<?xml version="1.0" encoding="utf-8"?>
<!-- Generator: Adobe Illustrator 26.5.0, SVG Export Plug-In . SVG Version: 6.00 Build 0)  -->
<svg version="1.1" id="Layer_1" xmlns="http://www.w3.org/2000/svg" xmlns:xlink="http://www.w3.org/1999/xlink" x="0px" y="0px"
	 viewBox="0 0 161.1 82" enable-background="new 0 0 161.1 82" xml:space="preserve">
<g>
	<path fill="#4A8DCB" d="M8.4,52c0,0.8,0,2.1,0,3.8s0.1,3.3,0.3,4.9c0.2,1.6,0.5,3.2,1.1,4.8c0.5,1.6,1.3,2.8,2.4,3.7
		s2.5,1.3,4.2,1.3c2.7,0,4.8-0.9,6.3-2.7s2.4-4.2,2.6-7.1l0.9,0.1c-0.2,3.3-1.3,5.9-3.1,7.9s-4.4,2.9-7.5,2.9
		c-4.1,0-7.3-1.6-9.6-4.9S2.5,59.5,2.5,55c0-4.6,1.2-8.5,3.6-11.7c2.4-3.2,5.6-4.8,9.6-4.8c1.4,0,2.9,0.3,4.5,0.8
		c1.6,0.5,2.5,0.8,2.8,0.8c0.9,0,1.5-0.5,1.6-1.6h0.6v11.2h-0.8c-0.5-3.2-1.3-5.7-2.6-7.5s-3.2-2.8-5.7-2.8c-3,0-5.1,1.3-6.2,3.9
		C9,45.4,8.4,48.4,8.4,52z"/>
	<path fill="#4A8DCB" d="M48.7,68.2c-1.9,2.2-4.4,3.4-7.8,3.4c-3.3,0-5.9-1.1-7.8-3.4c-1.9-2.2-2.8-5.1-2.8-8.6
		c0-3.5,0.9-6.4,2.8-8.6c1.9-2.2,4.4-3.4,7.8-3.4c3.3,0,5.9,1.1,7.8,3.4c1.9,2.2,2.8,5.1,2.8,8.6C51.5,63.1,50.5,66,48.7,68.2z
		 M46.7,62.8c0.1-0.9,0.1-2,0.1-3.2s0-2.3-0.1-3.2c-0.1-0.9-0.2-1.9-0.5-3c-0.2-1.1-0.6-1.9-1-2.6c-0.4-0.7-1-1.3-1.7-1.7
		c-0.8-0.4-1.6-0.7-2.7-0.7c-1,0-1.9,0.2-2.7,0.7c-0.8,0.4-1.3,1-1.7,1.7c-0.4,0.7-0.7,1.6-1,2.6c-0.2,1.1-0.4,2-0.5,3
		s-0.1,2-0.1,3.2s0,2.3,0.1,3.2c0.1,0.9,0.2,1.9,0.5,3c0.2,1.1,0.6,1.9,1,2.6c0.4,0.7,1,1.3,1.7,1.7c0.8,0.4,1.6,0.7,2.7,0.7
		c1,0,1.9-0.2,2.7-0.7c0.8-0.4,1.3-1,1.7-1.7c0.4-0.7,0.7-1.6,1-2.6C46.5,64.7,46.6,63.7,46.7,62.8z"/>
	<path fill="#4A8DCB" d="M66.5,69.9v0.7H55.9v-0.7h3.2V49.2h-3.4v-0.7h1c2.5,0,4.8-0.2,6.8-0.6v4.8h0.3c0.5-1.5,1.5-2.8,2.8-3.7
		c1.3-0.9,2.7-1.4,4.3-1.4c2.8,0,4.7,0.8,5.7,2.5c1,1.6,1.5,4.1,1.5,7.4v12.5h3.2v0.7H70.7v-0.7h3.2V58.1c0-3.6-0.3-6-0.8-7.2
		c-0.3-0.5-0.6-1-1.2-1.4c-0.5-0.4-1.3-0.6-2.3-0.6s-2,0.4-2.9,1.1s-1.6,1.7-2,3c-0.8,2.3-1.2,5-1.2,8.2v8.7H66.5z"/>
	<path fill="#4A8DCB" d="M91.6,49.2v16.3c0,2.7,0.2,4.2,0.5,4.5c0.2,0.2,0.4,0.2,0.8,0.2c0.8,0,1.6-0.5,2.3-1.4
		c0.8-0.9,1.4-1.9,1.8-3l0.8,0.3c-0.6,1.5-1.4,2.8-2.4,3.9c-1,1-2.2,1.6-3.6,1.6c-1.9,0-3.1-0.6-3.7-1.7c-0.6-1.1-0.8-2.9-0.8-5.4
		V49.2h-3.4v-0.7h0.3c3.7,0,5.9-2.1,6.7-6.3h0.6v6.3h5.8v0.7H91.6z"/>
	<path fill="#4A8DCB" d="M109.6,47.6c3.8,0,6.3,0.9,7.6,2.6c1.2,1.7,1.8,4.7,1.8,9v8.5c0,1.3,0.3,2,0.9,2c1.2,0,2-1.8,2.4-5.5
		l0.9,0.1c-0.5,5-2.1,7.4-4.8,7.4c-0.8,0-1.4-0.3-1.8-0.9s-0.7-1.2-0.8-1.9s-0.2-1.5-0.2-2.6h-0.3c-0.4,1.7-1.3,3-2.5,3.9
		s-2.9,1.4-4.9,1.4s-3.8-0.5-5.3-1.6c-1.5-1.1-2.3-2.6-2.3-4.6c0-1.5,0.4-2.8,1.3-3.7c1.8-2,5.9-3.1,12.2-3.1c0.4,0,0.7,0,1.1,0
		v-2.4c0-2.5-0.4-4.4-1.3-5.7c-0.9-1.3-2.4-1.9-4.5-1.9s-3.7,0.4-4.7,1.3c-1,0.9-1.5,1.8-1.5,2.7c0,0.3,0.1,0.4,0.4,0.4
		c0.3,0,0.4-0.1,0.5-0.4c0.2-0.8,0.8-1.2,1.9-1.2c0.7,0,1.3,0.2,1.7,0.7c0.4,0.5,0.6,1.1,0.6,1.8s-0.3,1.3-0.8,1.8
		c-0.5,0.5-1.2,0.7-2.1,0.7c-0.8,0-1.6-0.3-2.2-1c-0.6-0.7-0.9-1.5-0.9-2.4c0-1.8,0.8-3.1,2.3-4.1C105.6,48,107.4,47.6,109.6,47.6z
		 M114.7,62.6v-3.2c-0.3,0-0.8,0-1.5,0c-0.7,0-1.5,0-2.4,0.1c-0.9,0.1-1.9,0.3-2.9,0.7c-2,0.7-3.1,2.4-3.1,4.9
		c0,1.5,0.4,2.8,1.1,3.7c0.7,0.9,1.9,1.4,3.6,1.4c1.6,0,2.9-0.7,3.9-2.2C114.2,66.5,114.7,64.7,114.7,62.6z"/>
	<path fill="#4A8DCB" d="M137.1,48.5c-4.4,0-6.5,3.6-6.5,10.8c0,7.2,2.2,10.8,6.6,10.8c1.7,0,3-0.6,4.1-1.8c1.1-1.2,1.8-2.8,2.2-4.7
		l0.9,0.1c-0.5,2.3-1.4,4.2-2.9,5.6c-1.4,1.4-3.3,2.1-5.5,2.1c-3.3,0-5.8-1.1-7.5-3.3c-1.7-2.2-2.6-5.1-2.6-8.8
		c0-3.6,0.9-6.5,2.6-8.7c1.7-2.2,4.3-3.2,7.8-3.2c0.6,0,1.2,0,1.7,0.1c-2.3-1.8-3.5-4-3.5-6.6s1.1-4.7,3.2-6.2
		c2.2-1.5,4.6-2.3,7.3-2.3c2.7,0,5,0.9,6.8,2.7c1.8,1.8,2.7,4.6,2.7,8.6v4.7h5.8v0.7h-5.8v16.3c0,2.7,0.2,4.2,0.6,4.5
		c0.2,0.2,0.4,0.2,0.7,0.2c0.8,0,1.6-0.5,2.3-1.4c0.8-0.9,1.4-1.9,1.8-3l0.8,0.3c-0.6,1.5-1.4,2.8-2.4,3.9c-1,1-2.2,1.6-3.6,1.6
		c-1.9,0-3.1-0.6-3.7-1.7c-0.6-1.1-0.8-2.9-0.8-5.4V49.2H147v-0.7h0.9c1.7,0,3.1-0.7,4-2.2c0.9-1.5,1.4-3.4,1.4-5.6
		c0-2.2-0.8-4-2.4-5.3c-1.6-1.3-3.6-2-6-2s-4.6,0.7-6.5,2.1s-2.9,3.2-2.9,5.3c0,3,1.8,5.6,5.3,7.7c2,0.9,3,2.6,3,4.9
		c0,1-0.3,1.8-0.9,2.4c-0.6,0.7-1.4,1-2.2,1c-0.8,0-1.5-0.2-2.1-0.7c-0.5-0.5-0.8-1.1-0.8-1.8c0-0.7,0.2-1.3,0.6-1.8s1-0.7,1.7-0.7
		c1.1,0,1.7,0.4,1.9,1.2c0,0.3,0.2,0.4,0.5,0.4c0.3,0,0.4-0.1,0.4-0.4c0-1.1-0.5-2.1-1.5-3C140.4,49,139,48.5,137.1,48.5z"/>
</g>
</svg>
