<?xml version="1.0" encoding="utf-8"?>
<!-- Generator: Adobe Illustrator 26.5.0, SVG Export Plug-In . SVG Version: 6.00 Build 0)  -->
<svg version="1.1" id="Layer_1" xmlns="http://www.w3.org/2000/svg" xmlns:xlink="http://www.w3.org/1999/xlink" x="0px" y="0px"
	 viewBox="0 0 37.2 37.2" enable-background="new 0 0 37.2 37.2" xml:space="preserve">
<g>
	<g>
		<g>
			<path fill="#4A8DCB" d="M7.8,19c-1.5,0.4-2.9,0.8-3.8,1.1c-3,1.2-4.6,3.9-3.8,6c0.4,1,1.3,1.7,2.5,2c1.3,0.3,2.9,0.2,4.4-0.4
				c0.9-0.4,2.1-1,3.5-1.9l6.8-6.8L7.8,19z"/>
			<path fill="#4A8DCB" d="M18.1,19.8l-6.8,6.8c-0.8,1.3-1.5,2.6-1.9,3.5c-1.2,3-0.6,6,1.5,6.9c1,0.4,2.1,0.3,3.2-0.4
				c1.2-0.7,2.1-1.9,2.8-3.4c0.4-0.9,0.8-2.2,1.1-3.8V19.8z"/>
		</g>
		<g>
			<path fill="#4A8DCB" d="M19,29.4c0.4,1.5,0.8,2.9,1.1,3.8c1.2,3,3.9,4.6,6,3.8c1-0.4,1.7-1.3,2-2.5c0.3-1.3,0.2-2.9-0.4-4.4
				c-0.4-0.9-1-2.1-1.9-3.5L19,19.8L19,29.4z"/>
			<path fill="#4A8DCB" d="M19.8,19l6.8,6.8c1.3,0.8,2.6,1.5,3.5,1.9c3,1.2,6,0.6,6.9-1.5c0.4-1,0.3-2.1-0.4-3.2
				c-0.7-1.2-1.9-2.1-3.4-2.8c-0.9-0.4-2.2-0.8-3.8-1.1H19.8z"/>
		</g>
		<g>
			<path fill="#4A8DCB" d="M19,17.3l6.8-6.8c0.8-1.3,1.5-2.6,1.9-3.5c0.6-1.5,0.8-3.1,0.4-4.4c-0.3-1.2-1-2.1-2-2.5
				C24-0.6,21.4,1,20.2,4c-0.4,0.9-0.8,2.2-1.1,3.8L19,17.3z"/>
			<path fill="#4A8DCB" d="M29.4,18.1c1.5-0.4,2.9-0.8,3.8-1.1c1.5-0.6,2.7-1.6,3.4-2.8c0.6-1.1,0.8-2.2,0.4-3.2
				C36.1,8.9,33,8.3,30,9.5c-0.9,0.4-2.1,1-3.5,1.9l-6.8,6.8H29.4z"/>
		</g>
		<g>
			<path fill="#4A8DCB" d="M18.1,7.8C17.8,6.2,17.4,4.9,17,4c-1.2-3-3.9-4.6-6-3.8c-1,0.4-1.7,1.3-2,2.5C8.7,4,8.9,5.6,9.5,7.1
				c0.4,0.9,1,2.1,1.9,3.5l6.8,6.8L18.1,7.8z"/>
			<path fill="#4A8DCB" d="M17.3,18.1l-6.8-6.8C9.2,10.5,8,9.8,7.1,9.5c-3-1.2-6-0.6-6.9,1.5c-0.4,1-0.3,2.1,0.4,3.2
				C1.3,15.4,2.5,16.4,4,17c0.9,0.4,2.2,0.8,3.8,1.1H17.3z"/>
		</g>
	</g>
</g>
</svg>
