<?xml version="1.0" encoding="utf-8"?>
<!-- Generator: Adobe Illustrator 26.5.0, SVG Export Plug-In . SVG Version: 6.00 Build 0)  -->
<svg version="1.1" id="Layer_1" xmlns="http://www.w3.org/2000/svg" xmlns:xlink="http://www.w3.org/1999/xlink" x="0px" y="0px"
	 viewBox="0 0 114.3 218.6" enable-background="new 0 0 114.3 218.6" xml:space="preserve">
<pattern  x="-475.3" y="-462.5" width="73.7" height="72.7" patternUnits="userSpaceOnUse" id="Nueva_muestra_de_motivo_3" viewBox="18.2 -90.9 73.7 72.7" overflow="visible">
	<g>
		<rect x="18.2" y="-90.9" fill="none" width="73.7" height="72.7"/>
		<g>
			<circle fill="none" stroke="#E2CA72" stroke-miterlimit="10" cx="82.3" cy="-18.2" r="8.8"/>
			<circle fill="none" stroke="#E2CA72" stroke-miterlimit="10" cx="64.6" cy="-18.2" r="8.8"/>
			<circle fill="none" stroke="#E2CA72" stroke-miterlimit="10" cx="73.5" cy="-9.3" r="8.8"/>
			<circle fill="none" stroke="#E2CA72" stroke-miterlimit="10" cx="73.5" cy="-27" r="8.8"/>
			<circle fill="none" stroke="#E2CA72" stroke-miterlimit="10" cx="58.3" cy="-33.1" r="2.8"/>
			<circle fill="none" stroke="#E2CA72" stroke-miterlimit="10" cx="88.6" cy="-33.1" r="2.8"/>
		</g>
		<g>
			<circle fill="none" stroke="#E2CA72" stroke-miterlimit="10" cx="45.4" cy="-18.2" r="8.8"/>
			<circle fill="none" stroke="#E2CA72" stroke-miterlimit="10" cx="27.8" cy="-18.2" r="8.8"/>
			<circle fill="none" stroke="#E2CA72" stroke-miterlimit="10" cx="36.6" cy="-9.3" r="8.8"/>
			<circle fill="none" stroke="#E2CA72" stroke-miterlimit="10" cx="36.6" cy="-27" r="8.8"/>
			<circle fill="none" stroke="#E2CA72" stroke-miterlimit="10" cx="21.4" cy="-33.1" r="2.8"/>
			<circle fill="none" stroke="#E2CA72" stroke-miterlimit="10" cx="51.8" cy="-33.1" r="2.8"/>
		</g>
		<g>
			<circle fill="none" stroke="#E2CA72" stroke-miterlimit="10" cx="100.7" cy="-54.5" r="8.8"/>
			<circle fill="none" stroke="#E2CA72" stroke-miterlimit="10" cx="83" cy="-54.5" r="8.8"/>
			<circle fill="none" stroke="#E2CA72" stroke-miterlimit="10" cx="91.9" cy="-45.7" r="8.8"/>
			<circle fill="none" stroke="#E2CA72" stroke-miterlimit="10" cx="91.9" cy="-63.4" r="8.8"/>
			<circle fill="none" stroke="#E2CA72" stroke-miterlimit="10" cx="76.7" cy="-69.5" r="2.8"/>
			
				<ellipse transform="matrix(0.2298 -0.9732 0.9732 0.2298 97.6305 44.1485)" fill="none" stroke="#E2CA72" stroke-miterlimit="10" cx="76.7" cy="-39.6" rx="2.8" ry="2.8"/>
		</g>
		<g>
			<circle fill="none" stroke="#E2CA72" stroke-miterlimit="10" cx="63.9" cy="-54.5" r="8.8"/>
			<circle fill="none" stroke="#E2CA72" stroke-miterlimit="10" cx="46.2" cy="-54.5" r="8.8"/>
			<circle fill="none" stroke="#E2CA72" stroke-miterlimit="10" cx="55" cy="-45.7" r="8.8"/>
			<circle fill="none" stroke="#E2CA72" stroke-miterlimit="10" cx="55" cy="-63.4" r="8.8"/>
			<circle fill="none" stroke="#E2CA72" stroke-miterlimit="10" cx="39.9" cy="-69.5" r="2.8"/>
			<circle fill="none" stroke="#E2CA72" stroke-miterlimit="10" cx="70.2" cy="-69.5" r="2.8"/>
			
				<ellipse transform="matrix(0.2298 -0.9732 0.9732 0.2298 69.2456 8.2827)" fill="none" stroke="#E2CA72" stroke-miterlimit="10" cx="39.9" cy="-39.6" rx="2.8" ry="2.8"/>
			<circle fill="none" stroke="#E2CA72" stroke-miterlimit="10" cx="70.2" cy="-39.6" r="2.8"/>
		</g>
		<g>
			<circle fill="none" stroke="#E2CA72" stroke-miterlimit="10" cx="27" cy="-54.5" r="8.8"/>
			<circle fill="none" stroke="#E2CA72" stroke-miterlimit="10" cx="9.3" cy="-54.5" r="8.8"/>
			<circle fill="none" stroke="#E2CA72" stroke-miterlimit="10" cx="18.2" cy="-45.7" r="8.8"/>
			<circle fill="none" stroke="#E2CA72" stroke-miterlimit="10" cx="18.2" cy="-63.4" r="8.8"/>
			<circle fill="none" stroke="#E2CA72" stroke-miterlimit="10" cx="33.3" cy="-69.5" r="2.8"/>
			<circle fill="none" stroke="#E2CA72" stroke-miterlimit="10" cx="33.3" cy="-39.6" r="2.8"/>
		</g>
		<g>
			<circle fill="none" stroke="#E2CA72" stroke-miterlimit="10" cx="82.3" cy="-90.9" r="8.8"/>
			<circle fill="none" stroke="#E2CA72" stroke-miterlimit="10" cx="64.6" cy="-90.9" r="8.8"/>
			<circle fill="none" stroke="#E2CA72" stroke-miterlimit="10" cx="73.5" cy="-82" r="8.8"/>
			<circle fill="none" stroke="#E2CA72" stroke-miterlimit="10" cx="73.5" cy="-99.7" r="8.8"/>
			
				<ellipse transform="matrix(0.2298 -0.9732 0.9732 0.2298 118.8189 -1.7854)" fill="none" stroke="#E2CA72" stroke-miterlimit="10" cx="58.3" cy="-76" rx="2.8" ry="2.8"/>
			<circle fill="none" stroke="#E2CA72" stroke-miterlimit="10" cx="88.6" cy="-76" r="2.8"/>
		</g>
		<g>
			<circle fill="none" stroke="#E2CA72" stroke-miterlimit="10" cx="45.4" cy="-90.9" r="8.8"/>
			<circle fill="none" stroke="#E2CA72" stroke-miterlimit="10" cx="27.8" cy="-90.9" r="8.8"/>
			<circle fill="none" stroke="#E2CA72" stroke-miterlimit="10" cx="36.6" cy="-82" r="8.8"/>
			<circle fill="none" stroke="#E2CA72" stroke-miterlimit="10" cx="36.6" cy="-99.7" r="8.8"/>
			
				<ellipse transform="matrix(0.2298 -0.9732 0.9732 0.2298 90.434 -37.6513)" fill="none" stroke="#E2CA72" stroke-miterlimit="10" cx="21.4" cy="-76" rx="2.8" ry="2.8"/>
			<circle fill="none" stroke="#E2CA72" stroke-miterlimit="10" cx="51.8" cy="-76" r="2.8"/>
		</g>
	</g>
</pattern>
<g>
	<pattern  id="SVGID_1_" xlink:href="#Nueva_muestra_de_motivo_3" patternTransform="matrix(1 0 0 1 44.0766 67.2934)">
	</pattern>
	<path fill="url(#SVGID_1_)" d="M94.3,153.9c-9.5,8.9-21.8,13.3-37.1,13.3c-15.3,0-27.7-4.4-37.1-13.3c-9.5-8.9-14.2-20.6-14.2-35.1
		c0-14.5,4.7-26.2,14.2-35.1c9.5-8.9,21.8-13.3,37.1-13.3c15.3,0,27.7,4.4,37.1,13.3c9.5,8.9,14.2,20.6,14.2,35.1
		C108.5,133.3,103.8,145,94.3,153.9z M66.6,153.9c1.8-6.5,2.6-18.2,2.6-35.1c0-16.9-0.9-28.6-2.6-35.1c-1.8-6.5-4.9-9.8-9.4-9.8
		c-4.5,0-7.7,3.3-9.4,9.8c-1.8,6.5-2.6,18.2-2.6,35.1c0,16.9,0.9,28.6,2.6,35.1c1.8,6.5,4.9,9.8,9.4,9.8
		C61.7,163.7,64.8,160.5,66.6,153.9z"/>
</g>
</svg>
