<?xml version="1.0" encoding="utf-8"?>
<!-- Generator: Adobe Illustrator 26.5.0, SVG Export Plug-In . SVG Version: 6.00 Build 0)  -->
<svg version="1.1" id="Layer_1" xmlns="http://www.w3.org/2000/svg" xmlns:xlink="http://www.w3.org/1999/xlink" x="0px" y="0px"
	 viewBox="0 0 104.9 218.6" enable-background="new 0 0 104.9 218.6" xml:space="preserve">
<pattern  x="-879" y="-459.4" width="70" height="70" patternUnits="userSpaceOnUse" id="KoreanPattern_2" viewBox="85.5 -155.5 70 70" overflow="visible">
	<g>
		<rect x="85.5" y="-155.5" fill="none" width="70" height="70"/>
		<path fill="#4A8DCB" d="M241-100.5v100c0,0.3-0.2,0.5-0.5,0.5h-100c-0.3,0-0.5-0.2-0.5-0.5v-100c0-0.3,0.2-0.5,0.5-0.5h100
			C240.8-101,241-100.8,241-100.5z M226-1l3.9-3.9v-5.5l-9-9L208.8-7.3c-0.2,0.2-0.4,0.3-0.7,0.3h-35.2c-0.3,0-0.5-0.1-0.7-0.3
			l-12.1-12.1l-9,9v5.5L155-1H226z M141-15l3.9,3.9h5.5l9-9l-12.1-12.1c-0.2-0.2-0.3-0.4-0.3-0.7v-35.2c0-0.3,0.1-0.5,0.3-0.7
			l12.1-12.1l-9-9h-5.5L141-86V-15z M155-100l-3.9,3.9v5.5l9,9l12.1-12.1c0.2-0.2,0.4-0.3,0.7-0.3h35.2c0.3,0,0.5,0.1,0.7,0.3
			l12.1,12.1l9-9v-5.5L226-100H155z M178.2-80.8c-0.1,4.7-2,9-5.1,12.2l5.1,5.1h8.5h7.6h8.5l5.1-5.1c-3-3.2-4.9-7.5-5.1-12.2H178.2z
			 M220.8-62.8c-4.7-0.1-9-2-12.2-5.1l-5.1,5.1v8.5v7.6v8.5l5.1,5.1c3.2-3,7.5-4.9,12.2-5.1V-62.8z M207.9-32.4l-5.1-5.1h-8.5h-7.6
			h-8.5l-5.1,5.1c3,3.2,4.9,7.5,5.1,12.2h24.6C202.9-24.9,204.8-29.2,207.9-32.4z M160.2-38.2c4.7,0.1,9,2,12.2,5.1l5.1-5.1v-8.5
			v-7.6v-8.5l-5.1-5.1c-3.2,3-7.5,4.9-12.2,5.1v12.3c0,0,0,0,0,0c0,0,0,0,0,0V-38.2z M178.5-53.8v6.6h8.2c0.3,0,0.5,0.2,0.5,0.5v8.2
			h6.6v-8.2c0-0.3,0.2-0.5,0.5-0.5h8.2v-6.6h-8.2c-0.3,0-0.5-0.2-0.5-0.5v-8.2h-6.6v8.2c0,0.3-0.2,0.5-0.5,0.5H178.5z M186.2-54.8
			v-7.7h-7.7v7.7H186.2z M202.5-62.5h-7.7v7.7h7.7V-62.5z M194.8-46.2v7.7h7.7v-7.7H194.8z M178.5-38.5h7.7v-7.7h-7.7V-38.5z
			 M190-81.8v-10.1h-16.7l-11.8,11.8l10.9,10.9c3-3.1,4.8-7.4,4.8-12c0-0.3,0.2-0.5,0.5-0.5H190z M160.8-79.5l-11.8,11.8V-51h10.1
			v-12.3c0-0.3,0.2-0.5,0.5-0.5c4.7,0,8.9-1.8,12-4.8L160.8-79.5z M149.1-33.3l11.8,11.8l10.9-10.9c-3.1-3-7.4-4.8-12-4.8
			c-0.3,0-0.5-0.2-0.5-0.5V-50h-10.1V-33.3z M161.5-20.8l11.8,11.8H190v-10.1h-12.3c-0.3,0-0.5-0.2-0.5-0.5c0-4.7-1.8-8.9-4.8-12
			L161.5-20.8z M191-9.1h16.7l11.8-11.8l-10.9-10.9c-3,3.1-4.8,7.4-4.8,12c0,0.3-0.2,0.5-0.5,0.5H191V-9.1z M220.2-21.5l11.8-11.8
			V-50h-10.1v12.3c0,0.3-0.2,0.5-0.5,0.5c-4.7,0-8.9,1.8-12,4.8L220.2-21.5z M231.9-67.7l-11.8-11.8l-10.9,10.9
			c3.1,3,7.4,4.8,12,4.8c0.3,0,0.5,0.2,0.5,0.5V-51h10.1V-67.7z M219.5-80.2l-11.8-11.8H191v10.1h12.3c0.3,0,0.5,0.2,0.5,0.5
			c0,4.7,1.8,8.9,4.8,12L219.5-80.2z M236.1-11.1L240-15v-71l-3.9-3.9h-5.5l-9,9l12.1,12.1c0.2,0.2,0.3,0.4,0.3,0.7v35.2
			c0,0.3-0.1,0.5-0.3,0.7l-12.1,12.1l9,9H236.1z M240-100h-12.6l3.3,3.3c0.1,0.1,0.1,0.2,0.1,0.4v5.4h5.4c0.1,0,0.3,0.1,0.4,0.1
			l3.3,3.3V-100z M141-100v12.6l3.3-3.3c0.1-0.1,0.2-0.1,0.4-0.1h5.4v-5.4c0-0.1,0.1-0.3,0.1-0.4l3.3-3.3H141z M141-1h12.6l-3.3-3.3
			c-0.1-0.1-0.1-0.2-0.1-0.4v-5.4h-5.4c-0.1,0-0.3-0.1-0.4-0.1l-3.3-3.3V-1z M240-1v-12.6l-3.3,3.3c-0.1,0.1-0.2,0.1-0.4,0.1h-5.4
			v5.4c0,0.1-0.1,0.3-0.1,0.4L227.4-1H240z"/>
		<path fill="#4A8DCB" d="M171-100.5v100c0,0.3-0.2,0.5-0.5,0.5h-100C70.2,0,70-0.2,70-0.5v-100c0-0.3,0.2-0.5,0.5-0.5h100
			C170.8-101,171-100.8,171-100.5z M156-1l3.9-3.9v-5.5l-9-9L138.8-7.3c-0.2,0.2-0.4,0.3-0.7,0.3h-35.2c-0.3,0-0.5-0.1-0.7-0.3
			L90.1-19.4l-9,9v5.5L85-1H156z M71-15l3.9,3.9h5.5l9-9L77.3-32.2c-0.2-0.2-0.3-0.4-0.3-0.7v-35.2c0-0.3,0.1-0.5,0.3-0.7l12.1-12.1
			l-9-9h-5.5L71-86V-15z M85-100l-3.9,3.9v5.5l9,9l12.1-12.1c0.2-0.2,0.4-0.3,0.7-0.3h35.2c0.3,0,0.5,0.1,0.7,0.3l12.1,12.1l9-9
			v-5.5L156-100H85z M108.2-80.8c-0.1,4.7-2,9-5.1,12.2l5.1,5.1h8.5h7.6h8.5l5.1-5.1c-3-3.2-4.9-7.5-5.1-12.2H108.2z M150.8-62.8
			c-4.7-0.1-9-2-12.2-5.1l-5.1,5.1v8.5v7.6v8.5l5.1,5.1c3.2-3,7.5-4.9,12.2-5.1V-62.8z M137.9-32.4l-5.1-5.1h-8.5h-7.6h-8.5
			l-5.1,5.1c3,3.2,4.9,7.5,5.1,12.2h24.6C132.9-24.9,134.8-29.2,137.9-32.4z M90.2-38.2c4.7,0.1,9,2,12.2,5.1l5.1-5.1v-8.5v-7.6
			v-8.5l-5.1-5.1c-3.2,3-7.5,4.9-12.2,5.1v12.3c0,0,0,0,0,0c0,0,0,0,0,0V-38.2z M108.5-53.8v6.6h8.2c0.3,0,0.5,0.2,0.5,0.5v8.2h6.6
			v-8.2c0-0.3,0.2-0.5,0.5-0.5h8.2v-6.6h-8.2c-0.3,0-0.5-0.2-0.5-0.5v-8.2h-6.6v8.2c0,0.3-0.2,0.5-0.5,0.5H108.5z M116.2-54.8v-7.7
			h-7.7v7.7H116.2z M132.5-62.5h-7.7v7.7h7.7V-62.5z M124.8-46.2v7.7h7.7v-7.7H124.8z M108.5-38.5h7.7v-7.7h-7.7V-38.5z M120-81.8
			v-10.1h-16.7L91.5-80.2l10.9,10.9c3-3.1,4.8-7.4,4.8-12c0-0.3,0.2-0.5,0.5-0.5H120z M90.8-79.5L79.1-67.7V-51h10.1v-12.3
			c0-0.3,0.2-0.5,0.5-0.5c4.7,0,8.9-1.8,12-4.8L90.8-79.5z M79.1-33.3l11.8,11.8l10.9-10.9c-3.1-3-7.4-4.8-12-4.8
			c-0.3,0-0.5-0.2-0.5-0.5V-50H79.1V-33.3z M91.5-20.8l11.8,11.8H120v-10.1h-12.3c-0.3,0-0.5-0.2-0.5-0.5c0-4.7-1.8-8.9-4.8-12
			L91.5-20.8z M121-9.1h16.7l11.8-11.8l-10.9-10.9c-3,3.1-4.8,7.4-4.8,12c0,0.3-0.2,0.5-0.5,0.5H121V-9.1z M150.2-21.5l11.8-11.8
			V-50h-10.1v12.3c0,0.3-0.2,0.5-0.5,0.5c-4.7,0-8.9,1.8-12,4.8L150.2-21.5z M161.9-67.7l-11.8-11.8l-10.9,10.9
			c3.1,3,7.4,4.8,12,4.8c0.3,0,0.5,0.2,0.5,0.5V-51h10.1V-67.7z M149.5-80.2l-11.8-11.8H121v10.1h12.3c0.3,0,0.5,0.2,0.5,0.5
			c0,4.7,1.8,8.9,4.8,12L149.5-80.2z M166.1-11.1L170-15v-71l-3.9-3.9h-5.5l-9,9l12.1,12.1c0.2,0.2,0.3,0.4,0.3,0.7v35.2
			c0,0.3-0.1,0.5-0.3,0.7l-12.1,12.1l9,9H166.1z M170-100h-12.6l3.3,3.3c0.1,0.1,0.1,0.2,0.1,0.4v5.4h5.4c0.1,0,0.3,0.1,0.4,0.1
			l3.3,3.3V-100z M71-100v12.6l3.3-3.3c0.1-0.1,0.2-0.1,0.4-0.1h5.4v-5.4c0-0.1,0.1-0.3,0.1-0.4l3.3-3.3H71z M71-1h12.6l-3.3-3.3
			c-0.1-0.1-0.1-0.2-0.1-0.4v-5.4h-5.4c-0.1,0-0.3-0.1-0.4-0.1L71-13.6V-1z M170-1v-12.6l-3.3,3.3c-0.1,0.1-0.2,0.1-0.4,0.1h-5.4
			v5.4c0,0.1-0.1,0.3-0.1,0.4L157.4-1H170z"/>
		<path fill="#4A8DCB" d="M101-100.5v100c0,0.3-0.2,0.5-0.5,0.5H0.5C0.2,0,0-0.2,0-0.5v-100c0-0.3,0.2-0.5,0.5-0.5h100
			C100.8-101,101-100.8,101-100.5z M86-1l3.9-3.9v-5.5l-9-9L68.8-7.3c-0.2,0.2-0.4,0.3-0.7,0.3H32.9c-0.3,0-0.5-0.1-0.7-0.3
			L20.1-19.4l-9,9v5.5L15-1H86z M1-15l3.9,3.9h5.5l9-9L7.3-32.2c-0.2-0.2-0.3-0.4-0.3-0.7v-35.2c0-0.3,0.1-0.5,0.3-0.7l12.1-12.1
			l-9-9H4.9L1-86V-15z M15-100l-3.9,3.9v5.5l9,9l12.1-12.1c0.2-0.2,0.4-0.3,0.7-0.3h35.2c0.3,0,0.5,0.1,0.7,0.3l12.1,12.1l9-9v-5.5
			L86-100H15z M38.2-80.8c-0.1,4.7-2,9-5.1,12.2l5.1,5.1h8.5h7.6h8.5l5.1-5.1c-3-3.2-4.9-7.5-5.1-12.2H38.2z M80.8-62.8
			c-4.7-0.1-9-2-12.2-5.1l-5.1,5.1v8.5v7.6v8.5l5.1,5.1c3.2-3,7.5-4.9,12.2-5.1V-62.8z M67.9-32.4l-5.1-5.1h-8.5h-7.6h-8.5l-5.1,5.1
			c3,3.2,4.9,7.5,5.1,12.2h24.6C62.9-24.9,64.8-29.2,67.9-32.4z M20.2-38.2c4.7,0.1,9,2,12.2,5.1l5.1-5.1v-8.5v-7.6v-8.5l-5.1-5.1
			c-3.2,3-7.5,4.9-12.2,5.1v12.3c0,0,0,0,0,0c0,0,0,0,0,0V-38.2z M38.5-53.8v6.6h8.2c0.3,0,0.5,0.2,0.5,0.5v8.2h6.6v-8.2
			c0-0.3,0.2-0.5,0.5-0.5h8.2v-6.6h-8.2c-0.3,0-0.5-0.2-0.5-0.5v-8.2h-6.6v8.2c0,0.3-0.2,0.5-0.5,0.5H38.5z M46.2-54.8v-7.7h-7.7
			v7.7H46.2z M62.5-62.5h-7.7v7.7h7.7V-62.5z M54.8-46.2v7.7h7.7v-7.7H54.8z M38.5-38.5h7.7v-7.7h-7.7V-38.5z M50-81.8v-10.1H33.3
			L21.5-80.2l10.9,10.9c3-3.1,4.8-7.4,4.8-12c0-0.3,0.2-0.5,0.5-0.5H50z M20.8-79.5L9.1-67.7V-51h10.1v-12.3c0-0.3,0.2-0.5,0.5-0.5
			c4.7,0,8.9-1.8,12-4.8L20.8-79.5z M9.1-33.3l11.8,11.8l10.9-10.9c-3.1-3-7.4-4.8-12-4.8c-0.3,0-0.5-0.2-0.5-0.5V-50H9.1V-33.3z
			 M21.5-20.8L33.3-9.1H50v-10.1H37.7c-0.3,0-0.5-0.2-0.5-0.5c0-4.7-1.8-8.9-4.8-12L21.5-20.8z M51-9.1h16.7l11.8-11.8L68.6-31.7
			c-3,3.1-4.8,7.4-4.8,12c0,0.3-0.2,0.5-0.5,0.5H51V-9.1z M80.2-21.5l11.8-11.8V-50H81.8v12.3c0,0.3-0.2,0.5-0.5,0.5
			c-4.7,0-8.9,1.8-12,4.8L80.2-21.5z M91.9-67.7L80.2-79.5L69.3-68.6c3.1,3,7.4,4.8,12,4.8c0.3,0,0.5,0.2,0.5,0.5V-51h10.1V-67.7z
			 M79.5-80.2L67.7-91.9H51v10.1h12.3c0.3,0,0.5,0.2,0.5,0.5c0,4.7,1.8,8.9,4.8,12L79.5-80.2z M96.1-11.1L100-15v-71l-3.9-3.9h-5.5
			l-9,9l12.1,12.1c0.2,0.2,0.3,0.4,0.3,0.7v35.2c0,0.3-0.1,0.5-0.3,0.7L81.6-20.1l9,9H96.1z M100-100H87.4l3.3,3.3
			c0.1,0.1,0.1,0.2,0.1,0.4v5.4h5.4c0.1,0,0.3,0.1,0.4,0.1l3.3,3.3V-100z M1-100v12.6l3.3-3.3c0.1-0.1,0.2-0.1,0.4-0.1h5.4v-5.4
			c0-0.1,0.1-0.3,0.1-0.4l3.3-3.3H1z M1-1h12.6l-3.3-3.3c-0.1-0.1-0.1-0.2-0.1-0.4v-5.4H4.7c-0.1,0-0.3-0.1-0.4-0.1L1-13.6V-1z
			 M100-1v-12.6l-3.3,3.3c-0.1,0.1-0.2,0.1-0.4,0.1h-5.4v5.4c0,0.1-0.1,0.3-0.1,0.4L87.4-1H100z"/>
		<path fill="#4A8DCB" d="M241-170.5v100c0,0.3-0.2,0.5-0.5,0.5h-100c-0.3,0-0.5-0.2-0.5-0.5v-100c0-0.3,0.2-0.5,0.5-0.5h100
			C240.8-171,241-170.8,241-170.5z M226-71l3.9-3.9v-5.5l-9-9l-12.1,12.1c-0.2,0.2-0.4,0.3-0.7,0.3h-35.2c-0.3,0-0.5-0.1-0.7-0.3
			l-12.1-12.1l-9,9v5.5L155-71H226z M141-85l3.9,3.9h5.5l9-9l-12.1-12.1c-0.2-0.2-0.3-0.4-0.3-0.7v-35.2c0-0.3,0.1-0.5,0.3-0.7
			l12.1-12.1l-9-9h-5.5L141-156V-85z M155-170l-3.9,3.9v5.5l9,9l12.1-12.1c0.2-0.2,0.4-0.3,0.7-0.3h35.2c0.3,0,0.5,0.1,0.7,0.3
			l12.1,12.1l9-9v-5.5L226-170H155z M178.2-150.8c-0.1,4.7-2,9-5.1,12.2l5.1,5.1h8.5h7.6h8.5l5.1-5.1c-3-3.2-4.9-7.5-5.1-12.2H178.2
			z M220.8-132.8c-4.7-0.1-9-2-12.2-5.1l-5.1,5.1v8.5v7.6v8.5l5.1,5.1c3.2-3,7.5-4.9,12.2-5.1V-132.8z M207.9-102.4l-5.1-5.1h-8.5
			h-7.6h-8.5l-5.1,5.1c3,3.2,4.9,7.5,5.1,12.2h24.6C202.9-94.9,204.8-99.2,207.9-102.4z M160.2-108.2c4.7,0.1,9,2,12.2,5.1l5.1-5.1
			v-8.5v-7.6v-8.5l-5.1-5.1c-3.2,3-7.5,4.9-12.2,5.1v12.3c0,0,0,0,0,0c0,0,0,0,0,0V-108.2z M178.5-123.8v6.6h8.2
			c0.3,0,0.5,0.2,0.5,0.5v8.2h6.6v-8.2c0-0.3,0.2-0.5,0.5-0.5h8.2v-6.6h-8.2c-0.3,0-0.5-0.2-0.5-0.5v-8.2h-6.6v8.2
			c0,0.3-0.2,0.5-0.5,0.5H178.5z M186.2-124.8v-7.7h-7.7v7.7H186.2z M202.5-132.5h-7.7v7.7h7.7V-132.5z M194.8-116.2v7.7h7.7v-7.7
			H194.8z M178.5-108.5h7.7v-7.7h-7.7V-108.5z M190-151.8v-10.1h-16.7l-11.8,11.8l10.9,10.9c3-3.1,4.8-7.4,4.8-12
			c0-0.3,0.2-0.5,0.5-0.5H190z M160.8-149.5l-11.8,11.8v16.7h10.1v-12.3c0-0.3,0.2-0.5,0.5-0.5c4.7,0,8.9-1.8,12-4.8L160.8-149.5z
			 M149.1-103.3l11.8,11.8l10.9-10.9c-3.1-3-7.4-4.8-12-4.8c-0.3,0-0.5-0.2-0.5-0.5V-120h-10.1V-103.3z M161.5-90.8l11.8,11.8H190
			v-10.1h-12.3c-0.3,0-0.5-0.2-0.5-0.5c0-4.7-1.8-8.9-4.8-12L161.5-90.8z M191-79.1h16.7l11.8-11.8l-10.9-10.9
			c-3,3.1-4.8,7.4-4.8,12c0,0.3-0.2,0.5-0.5,0.5H191V-79.1z M220.2-91.5l11.8-11.8V-120h-10.1v12.3c0,0.3-0.2,0.5-0.5,0.5
			c-4.7,0-8.9,1.8-12,4.8L220.2-91.5z M231.9-137.7l-11.8-11.8l-10.9,10.9c3.1,3,7.4,4.8,12,4.8c0.3,0,0.5,0.2,0.5,0.5v12.3h10.1
			V-137.7z M219.5-150.2l-11.8-11.8H191v10.1h12.3c0.3,0,0.5,0.2,0.5,0.5c0,4.7,1.8,8.9,4.8,12L219.5-150.2z M236.1-81.1L240-85v-71
			l-3.9-3.9h-5.5l-9,9l12.1,12.1c0.2,0.2,0.3,0.4,0.3,0.7v35.2c0,0.3-0.1,0.5-0.3,0.7l-12.1,12.1l9,9H236.1z M240-170h-12.6l3.3,3.3
			c0.1,0.1,0.1,0.2,0.1,0.4v5.4h5.4c0.1,0,0.3,0.1,0.4,0.1l3.3,3.3V-170z M141-170v12.6l3.3-3.3c0.1-0.1,0.2-0.1,0.4-0.1h5.4v-5.4
			c0-0.1,0.1-0.3,0.1-0.4l3.3-3.3H141z M141-71h12.6l-3.3-3.3c-0.1-0.1-0.1-0.2-0.1-0.4v-5.4h-5.4c-0.1,0-0.3-0.1-0.4-0.1l-3.3-3.3
			V-71z M240-71v-12.6l-3.3,3.3c-0.1,0.1-0.2,0.1-0.4,0.1h-5.4v5.4c0,0.1-0.1,0.3-0.1,0.4l-3.3,3.3H240z"/>
		<path fill="#4A8DCB" d="M171-170.5v100c0,0.3-0.2,0.5-0.5,0.5h-100c-0.3,0-0.5-0.2-0.5-0.5v-100c0-0.3,0.2-0.5,0.5-0.5h100
			C170.8-171,171-170.8,171-170.5z M156-71l3.9-3.9v-5.5l-9-9l-12.1,12.1c-0.2,0.2-0.4,0.3-0.7,0.3h-35.2c-0.3,0-0.5-0.1-0.7-0.3
			L90.1-89.4l-9,9v5.5L85-71H156z M71-85l3.9,3.9h5.5l9-9l-12.1-12.1c-0.2-0.2-0.3-0.4-0.3-0.7v-35.2c0-0.3,0.1-0.5,0.3-0.7
			l12.1-12.1l-9-9h-5.5L71-156V-85z M85-170l-3.9,3.9v5.5l9,9l12.1-12.1c0.2-0.2,0.4-0.3,0.7-0.3h35.2c0.3,0,0.5,0.1,0.7,0.3
			l12.1,12.1l9-9v-5.5L156-170H85z M108.2-150.8c-0.1,4.7-2,9-5.1,12.2l5.1,5.1h8.5h7.6h8.5l5.1-5.1c-3-3.2-4.9-7.5-5.1-12.2H108.2z
			 M150.8-132.8c-4.7-0.1-9-2-12.2-5.1l-5.1,5.1v8.5v7.6v8.5l5.1,5.1c3.2-3,7.5-4.9,12.2-5.1V-132.8z M137.9-102.4l-5.1-5.1h-8.5
			h-7.6h-8.5l-5.1,5.1c3,3.2,4.9,7.5,5.1,12.2h24.6C132.9-94.9,134.8-99.2,137.9-102.4z M90.2-108.2c4.7,0.1,9,2,12.2,5.1l5.1-5.1
			v-8.5v-7.6v-8.5l-5.1-5.1c-3.2,3-7.5,4.9-12.2,5.1v12.3c0,0,0,0,0,0c0,0,0,0,0,0V-108.2z M108.5-123.8v6.6h8.2
			c0.3,0,0.5,0.2,0.5,0.5v8.2h6.6v-8.2c0-0.3,0.2-0.5,0.5-0.5h8.2v-6.6h-8.2c-0.3,0-0.5-0.2-0.5-0.5v-8.2h-6.6v8.2
			c0,0.3-0.2,0.5-0.5,0.5H108.5z M116.2-124.8v-7.7h-7.7v7.7H116.2z M132.5-132.5h-7.7v7.7h7.7V-132.5z M124.8-116.2v7.7h7.7v-7.7
			H124.8z M108.5-108.5h7.7v-7.7h-7.7V-108.5z M120-151.8v-10.1h-16.7l-11.8,11.8l10.9,10.9c3-3.1,4.8-7.4,4.8-12
			c0-0.3,0.2-0.5,0.5-0.5H120z M90.8-149.5l-11.8,11.8v16.7h10.1v-12.3c0-0.3,0.2-0.5,0.5-0.5c4.7,0,8.9-1.8,12-4.8L90.8-149.5z
			 M79.1-103.3l11.8,11.8l10.9-10.9c-3.1-3-7.4-4.8-12-4.8c-0.3,0-0.5-0.2-0.5-0.5V-120H79.1V-103.3z M91.5-90.8l11.8,11.8H120
			v-10.1h-12.3c-0.3,0-0.5-0.2-0.5-0.5c0-4.7-1.8-8.9-4.8-12L91.5-90.8z M121-79.1h16.7l11.8-11.8l-10.9-10.9c-3,3.1-4.8,7.4-4.8,12
			c0,0.3-0.2,0.5-0.5,0.5H121V-79.1z M150.2-91.5l11.8-11.8V-120h-10.1v12.3c0,0.3-0.2,0.5-0.5,0.5c-4.7,0-8.9,1.8-12,4.8
			L150.2-91.5z M161.9-137.7l-11.8-11.8l-10.9,10.9c3.1,3,7.4,4.8,12,4.8c0.3,0,0.5,0.2,0.5,0.5v12.3h10.1V-137.7z M149.5-150.2
			l-11.8-11.8H121v10.1h12.3c0.3,0,0.5,0.2,0.5,0.5c0,4.7,1.8,8.9,4.8,12L149.5-150.2z M166.1-81.1L170-85v-71l-3.9-3.9h-5.5l-9,9
			l12.1,12.1c0.2,0.2,0.3,0.4,0.3,0.7v35.2c0,0.3-0.1,0.5-0.3,0.7l-12.1,12.1l9,9H166.1z M170-170h-12.6l3.3,3.3
			c0.1,0.1,0.1,0.2,0.1,0.4v5.4h5.4c0.1,0,0.3,0.1,0.4,0.1l3.3,3.3V-170z M71-170v12.6l3.3-3.3c0.1-0.1,0.2-0.1,0.4-0.1h5.4v-5.4
			c0-0.1,0.1-0.3,0.1-0.4l3.3-3.3H71z M71-71h12.6l-3.3-3.3c-0.1-0.1-0.1-0.2-0.1-0.4v-5.4h-5.4c-0.1,0-0.3-0.1-0.4-0.1L71-83.6V-71
			z M170-71v-12.6l-3.3,3.3c-0.1,0.1-0.2,0.1-0.4,0.1h-5.4v5.4c0,0.1-0.1,0.3-0.1,0.4l-3.3,3.3H170z"/>
		<path fill="#4A8DCB" d="M101-170.5v100c0,0.3-0.2,0.5-0.5,0.5H0.5C0.2-70,0-70.2,0-70.5v-100c0-0.3,0.2-0.5,0.5-0.5h100
			C100.8-171,101-170.8,101-170.5z M86-71l3.9-3.9v-5.5l-9-9L68.8-77.3c-0.2,0.2-0.4,0.3-0.7,0.3H32.9c-0.3,0-0.5-0.1-0.7-0.3
			L20.1-89.4l-9,9v5.5L15-71H86z M1-85l3.9,3.9h5.5l9-9L7.3-102.2c-0.2-0.2-0.3-0.4-0.3-0.7v-35.2c0-0.3,0.1-0.5,0.3-0.7l12.1-12.1
			l-9-9H4.9L1-156V-85z M15-170l-3.9,3.9v5.5l9,9l12.1-12.1c0.2-0.2,0.4-0.3,0.7-0.3h35.2c0.3,0,0.5,0.1,0.7,0.3l12.1,12.1l9-9v-5.5
			L86-170H15z M38.2-150.8c-0.1,4.7-2,9-5.1,12.2l5.1,5.1h8.5h7.6h8.5l5.1-5.1c-3-3.2-4.9-7.5-5.1-12.2H38.2z M80.8-132.8
			c-4.7-0.1-9-2-12.2-5.1l-5.1,5.1v8.5v7.6v8.5l5.1,5.1c3.2-3,7.5-4.9,12.2-5.1V-132.8z M67.9-102.4l-5.1-5.1h-8.5h-7.6h-8.5
			l-5.1,5.1c3,3.2,4.9,7.5,5.1,12.2h24.6C62.9-94.9,64.8-99.2,67.9-102.4z M20.2-108.2c4.7,0.1,9,2,12.2,5.1l5.1-5.1v-8.5v-7.6v-8.5
			l-5.1-5.1c-3.2,3-7.5,4.9-12.2,5.1v12.3c0,0,0,0,0,0c0,0,0,0,0,0V-108.2z M38.5-123.8v6.6h8.2c0.3,0,0.5,0.2,0.5,0.5v8.2h6.6v-8.2
			c0-0.3,0.2-0.5,0.5-0.5h8.2v-6.6h-8.2c-0.3,0-0.5-0.2-0.5-0.5v-8.2h-6.6v8.2c0,0.3-0.2,0.5-0.5,0.5H38.5z M46.2-124.8v-7.7h-7.7
			v7.7H46.2z M62.5-132.5h-7.7v7.7h7.7V-132.5z M54.8-116.2v7.7h7.7v-7.7H54.8z M38.5-108.5h7.7v-7.7h-7.7V-108.5z M50-151.8v-10.1
			H33.3l-11.8,11.8l10.9,10.9c3-3.1,4.8-7.4,4.8-12c0-0.3,0.2-0.5,0.5-0.5H50z M20.8-149.5L9.1-137.7v16.7h10.1v-12.3
			c0-0.3,0.2-0.5,0.5-0.5c4.7,0,8.9-1.8,12-4.8L20.8-149.5z M9.1-103.3l11.8,11.8l10.9-10.9c-3.1-3-7.4-4.8-12-4.8
			c-0.3,0-0.5-0.2-0.5-0.5V-120H9.1V-103.3z M21.5-90.8l11.8,11.8H50v-10.1H37.7c-0.3,0-0.5-0.2-0.5-0.5c0-4.7-1.8-8.9-4.8-12
			L21.5-90.8z M51-79.1h16.7l11.8-11.8l-10.9-10.9c-3,3.1-4.8,7.4-4.8,12c0,0.3-0.2,0.5-0.5,0.5H51V-79.1z M80.2-91.5l11.8-11.8
			V-120H81.8v12.3c0,0.3-0.2,0.5-0.5,0.5c-4.7,0-8.9,1.8-12,4.8L80.2-91.5z M91.9-137.7l-11.8-11.8l-10.9,10.9c3.1,3,7.4,4.8,12,4.8
			c0.3,0,0.5,0.2,0.5,0.5v12.3h10.1V-137.7z M79.5-150.2l-11.8-11.8H51v10.1h12.3c0.3,0,0.5,0.2,0.5,0.5c0,4.7,1.8,8.9,4.8,12
			L79.5-150.2z M96.1-81.1L100-85v-71l-3.9-3.9h-5.5l-9,9l12.1,12.1c0.2,0.2,0.3,0.4,0.3,0.7v35.2c0,0.3-0.1,0.5-0.3,0.7L81.6-90.1
			l9,9H96.1z M100-170H87.4l3.3,3.3c0.1,0.1,0.1,0.2,0.1,0.4v5.4h5.4c0.1,0,0.3,0.1,0.4,0.1l3.3,3.3V-170z M1-170v12.6l3.3-3.3
			c0.1-0.1,0.2-0.1,0.4-0.1h5.4v-5.4c0-0.1,0.1-0.3,0.1-0.4l3.3-3.3H1z M1-71h12.6l-3.3-3.3c-0.1-0.1-0.1-0.2-0.1-0.4v-5.4H4.7
			c-0.1,0-0.3-0.1-0.4-0.1L1-83.6V-71z M100-71v-12.6l-3.3,3.3c-0.1,0.1-0.2,0.1-0.4,0.1h-5.4v5.4c0,0.1-0.1,0.3-0.1,0.4L87.4-71
			H100z"/>
		<path fill="#4A8DCB" d="M241-240.5v100c0,0.3-0.2,0.5-0.5,0.5h-100c-0.3,0-0.5-0.2-0.5-0.5v-100c0-0.3,0.2-0.5,0.5-0.5h100
			C240.8-241,241-240.8,241-240.5z M226-141l3.9-3.9v-5.5l-9-9l-12.1,12.1c-0.2,0.2-0.4,0.3-0.7,0.3h-35.2c-0.3,0-0.5-0.1-0.7-0.3
			l-12.1-12.1l-9,9v5.5l3.9,3.9H226z M141-155l3.9,3.9h5.5l9-9l-12.1-12.1c-0.2-0.2-0.3-0.4-0.3-0.7v-35.2c0-0.3,0.1-0.5,0.3-0.7
			l12.1-12.1l-9-9h-5.5L141-226V-155z M155-240l-3.9,3.9v5.5l9,9l12.1-12.1c0.2-0.2,0.4-0.3,0.7-0.3h35.2c0.3,0,0.5,0.1,0.7,0.3
			l12.1,12.1l9-9v-5.5L226-240H155z M178.2-220.8c-0.1,4.7-2,9-5.1,12.2l5.1,5.1h8.5h7.6h8.5l5.1-5.1c-3-3.2-4.9-7.5-5.1-12.2H178.2
			z M220.8-202.8c-4.7-0.1-9-2-12.2-5.1l-5.1,5.1v8.5v7.6v8.5l5.1,5.1c3.2-3,7.5-4.9,12.2-5.1V-202.8z M207.9-172.4l-5.1-5.1h-8.5
			h-7.6h-8.5l-5.1,5.1c3,3.2,4.9,7.5,5.1,12.2h24.6C202.9-164.9,204.8-169.2,207.9-172.4z M160.2-178.2c4.7,0.1,9,2,12.2,5.1
			l5.1-5.1v-8.5v-7.6v-8.5l-5.1-5.1c-3.2,3-7.5,4.9-12.2,5.1v12.3c0,0,0,0,0,0s0,0,0,0V-178.2z M178.5-193.8v6.6h8.2
			c0.3,0,0.5,0.2,0.5,0.5v8.2h6.6v-8.2c0-0.3,0.2-0.5,0.5-0.5h8.2v-6.6h-8.2c-0.3,0-0.5-0.2-0.5-0.5v-8.2h-6.6v8.2
			c0,0.3-0.2,0.5-0.5,0.5H178.5z M186.2-194.8v-7.7h-7.7v7.7H186.2z M202.5-202.5h-7.7v7.7h7.7V-202.5z M194.8-186.2v7.7h7.7v-7.7
			H194.8z M178.5-178.5h7.7v-7.7h-7.7V-178.5z M190-221.8v-10.1h-16.7l-11.8,11.8l10.9,10.9c3-3.1,4.8-7.4,4.8-12
			c0-0.3,0.2-0.5,0.5-0.5H190z M160.8-219.5l-11.8,11.8v16.7h10.1v-12.3c0-0.3,0.2-0.5,0.5-0.5c4.7,0,8.9-1.8,12-4.8L160.8-219.5z
			 M149.1-173.3l11.8,11.8l10.9-10.9c-3.1-3-7.4-4.8-12-4.8c-0.3,0-0.5-0.2-0.5-0.5V-190h-10.1V-173.3z M161.5-160.8l11.8,11.8H190
			v-10.1h-12.3c-0.3,0-0.5-0.2-0.5-0.5c0-4.7-1.8-8.9-4.8-12L161.5-160.8z M191-149.1h16.7l11.8-11.8l-10.9-10.9
			c-3,3.1-4.8,7.4-4.8,12c0,0.3-0.2,0.5-0.5,0.5H191V-149.1z M220.2-161.5l11.8-11.8V-190h-10.1v12.3c0,0.3-0.2,0.5-0.5,0.5
			c-4.7,0-8.9,1.8-12,4.8L220.2-161.5z M231.9-207.7l-11.8-11.8l-10.9,10.9c3.1,3,7.4,4.8,12,4.8c0.3,0,0.5,0.2,0.5,0.5v12.3h10.1
			V-207.7z M219.5-220.2l-11.8-11.8H191v10.1h12.3c0.3,0,0.5,0.2,0.5,0.5c0,4.7,1.8,8.9,4.8,12L219.5-220.2z M236.1-151.1l3.9-3.9
			v-71l-3.9-3.9h-5.5l-9,9l12.1,12.1c0.2,0.2,0.3,0.4,0.3,0.7v35.2c0,0.3-0.1,0.5-0.3,0.7l-12.1,12.1l9,9H236.1z M240-240h-12.6
			l3.3,3.3c0.1,0.1,0.1,0.2,0.1,0.4v5.4h5.4c0.1,0,0.3,0.1,0.4,0.1l3.3,3.3V-240z M141-240v12.6l3.3-3.3c0.1-0.1,0.2-0.1,0.4-0.1
			h5.4v-5.4c0-0.1,0.1-0.3,0.1-0.4l3.3-3.3H141z M141-141h12.6l-3.3-3.3c-0.1-0.1-0.1-0.2-0.1-0.4v-5.4h-5.4c-0.1,0-0.3-0.1-0.4-0.1
			l-3.3-3.3V-141z M240-141v-12.6l-3.3,3.3c-0.1,0.1-0.2,0.1-0.4,0.1h-5.4v5.4c0,0.1-0.1,0.3-0.1,0.4l-3.3,3.3H240z"/>
		<path fill="#4A8DCB" d="M171-240.5v100c0,0.3-0.2,0.5-0.5,0.5h-100c-0.3,0-0.5-0.2-0.5-0.5v-100c0-0.3,0.2-0.5,0.5-0.5h100
			C170.8-241,171-240.8,171-240.5z M156-141l3.9-3.9v-5.5l-9-9l-12.1,12.1c-0.2,0.2-0.4,0.3-0.7,0.3h-35.2c-0.3,0-0.5-0.1-0.7-0.3
			l-12.1-12.1l-9,9v5.5L85-141H156z M71-155l3.9,3.9h5.5l9-9l-12.1-12.1c-0.2-0.2-0.3-0.4-0.3-0.7v-35.2c0-0.3,0.1-0.5,0.3-0.7
			l12.1-12.1l-9-9h-5.5L71-226V-155z M85-240l-3.9,3.9v5.5l9,9l12.1-12.1c0.2-0.2,0.4-0.3,0.7-0.3h35.2c0.3,0,0.5,0.1,0.7,0.3
			l12.1,12.1l9-9v-5.5L156-240H85z M108.2-220.8c-0.1,4.7-2,9-5.1,12.2l5.1,5.1h8.5h7.6h8.5l5.1-5.1c-3-3.2-4.9-7.5-5.1-12.2H108.2z
			 M150.8-202.8c-4.7-0.1-9-2-12.2-5.1l-5.1,5.1v8.5v7.6v8.5l5.1,5.1c3.2-3,7.5-4.9,12.2-5.1V-202.8z M137.9-172.4l-5.1-5.1h-8.5
			h-7.6h-8.5l-5.1,5.1c3,3.2,4.9,7.5,5.1,12.2h24.6C132.9-164.9,134.8-169.2,137.9-172.4z M90.2-178.2c4.7,0.1,9,2,12.2,5.1l5.1-5.1
			v-8.5v-7.6v-8.5l-5.1-5.1c-3.2,3-7.5,4.9-12.2,5.1v12.3c0,0,0,0,0,0s0,0,0,0V-178.2z M108.5-193.8v6.6h8.2c0.3,0,0.5,0.2,0.5,0.5
			v8.2h6.6v-8.2c0-0.3,0.2-0.5,0.5-0.5h8.2v-6.6h-8.2c-0.3,0-0.5-0.2-0.5-0.5v-8.2h-6.6v8.2c0,0.3-0.2,0.5-0.5,0.5H108.5z
			 M116.2-194.8v-7.7h-7.7v7.7H116.2z M132.5-202.5h-7.7v7.7h7.7V-202.5z M124.8-186.2v7.7h7.7v-7.7H124.8z M108.5-178.5h7.7v-7.7
			h-7.7V-178.5z M120-221.8v-10.1h-16.7l-11.8,11.8l10.9,10.9c3-3.1,4.8-7.4,4.8-12c0-0.3,0.2-0.5,0.5-0.5H120z M90.8-219.5
			l-11.8,11.8v16.7h10.1v-12.3c0-0.3,0.2-0.5,0.5-0.5c4.7,0,8.9-1.8,12-4.8L90.8-219.5z M79.1-173.3l11.8,11.8l10.9-10.9
			c-3.1-3-7.4-4.8-12-4.8c-0.3,0-0.5-0.2-0.5-0.5V-190H79.1V-173.3z M91.5-160.8l11.8,11.8H120v-10.1h-12.3c-0.3,0-0.5-0.2-0.5-0.5
			c0-4.7-1.8-8.9-4.8-12L91.5-160.8z M121-149.1h16.7l11.8-11.8l-10.9-10.9c-3,3.1-4.8,7.4-4.8,12c0,0.3-0.2,0.5-0.5,0.5H121V-149.1
			z M150.2-161.5l11.8-11.8V-190h-10.1v12.3c0,0.3-0.2,0.5-0.5,0.5c-4.7,0-8.9,1.8-12,4.8L150.2-161.5z M161.9-207.7l-11.8-11.8
			l-10.9,10.9c3.1,3,7.4,4.8,12,4.8c0.3,0,0.5,0.2,0.5,0.5v12.3h10.1V-207.7z M149.5-220.2l-11.8-11.8H121v10.1h12.3
			c0.3,0,0.5,0.2,0.5,0.5c0,4.7,1.8,8.9,4.8,12L149.5-220.2z M166.1-151.1l3.9-3.9v-71l-3.9-3.9h-5.5l-9,9l12.1,12.1
			c0.2,0.2,0.3,0.4,0.3,0.7v35.2c0,0.3-0.1,0.5-0.3,0.7l-12.1,12.1l9,9H166.1z M170-240h-12.6l3.3,3.3c0.1,0.1,0.1,0.2,0.1,0.4v5.4
			h5.4c0.1,0,0.3,0.1,0.4,0.1l3.3,3.3V-240z M71-240v12.6l3.3-3.3c0.1-0.1,0.2-0.1,0.4-0.1h5.4v-5.4c0-0.1,0.1-0.3,0.1-0.4l3.3-3.3
			H71z M71-141h12.6l-3.3-3.3c-0.1-0.1-0.1-0.2-0.1-0.4v-5.4h-5.4c-0.1,0-0.3-0.1-0.4-0.1l-3.3-3.3V-141z M170-141v-12.6l-3.3,3.3
			c-0.1,0.1-0.2,0.1-0.4,0.1h-5.4v5.4c0,0.1-0.1,0.3-0.1,0.4l-3.3,3.3H170z"/>
		<path fill="#4A8DCB" d="M101-240.5v100c0,0.3-0.2,0.5-0.5,0.5H0.5c-0.3,0-0.5-0.2-0.5-0.5v-100c0-0.3,0.2-0.5,0.5-0.5h100
			C100.8-241,101-240.8,101-240.5z M86-141l3.9-3.9v-5.5l-9-9l-12.1,12.1c-0.2,0.2-0.4,0.3-0.7,0.3H32.9c-0.3,0-0.5-0.1-0.7-0.3
			l-12.1-12.1l-9,9v5.5L15-141H86z M1-155l3.9,3.9h5.5l9-9L7.3-172.2c-0.2-0.2-0.3-0.4-0.3-0.7v-35.2c0-0.3,0.1-0.5,0.3-0.7
			l12.1-12.1l-9-9H4.9L1-226V-155z M15-240l-3.9,3.9v5.5l9,9l12.1-12.1c0.2-0.2,0.4-0.3,0.7-0.3h35.2c0.3,0,0.5,0.1,0.7,0.3
			l12.1,12.1l9-9v-5.5L86-240H15z M38.2-220.8c-0.1,4.7-2,9-5.1,12.2l5.1,5.1h8.5h7.6h8.5l5.1-5.1c-3-3.2-4.9-7.5-5.1-12.2H38.2z
			 M80.8-202.8c-4.7-0.1-9-2-12.2-5.1l-5.1,5.1v8.5v7.6v8.5l5.1,5.1c3.2-3,7.5-4.9,12.2-5.1V-202.8z M67.9-172.4l-5.1-5.1h-8.5h-7.6
			h-8.5l-5.1,5.1c3,3.2,4.9,7.5,5.1,12.2h24.6C62.9-164.9,64.8-169.2,67.9-172.4z M20.2-178.2c4.7,0.1,9,2,12.2,5.1l5.1-5.1v-8.5
			v-7.6v-8.5l-5.1-5.1c-3.2,3-7.5,4.9-12.2,5.1v12.3c0,0,0,0,0,0s0,0,0,0V-178.2z M38.5-193.8v6.6h8.2c0.3,0,0.5,0.2,0.5,0.5v8.2
			h6.6v-8.2c0-0.3,0.2-0.5,0.5-0.5h8.2v-6.6h-8.2c-0.3,0-0.5-0.2-0.5-0.5v-8.2h-6.6v8.2c0,0.3-0.2,0.5-0.5,0.5H38.5z M46.2-194.8
			v-7.7h-7.7v7.7H46.2z M62.5-202.5h-7.7v7.7h7.7V-202.5z M54.8-186.2v7.7h7.7v-7.7H54.8z M38.5-178.5h7.7v-7.7h-7.7V-178.5z
			 M50-221.8v-10.1H33.3l-11.8,11.8l10.9,10.9c3-3.1,4.8-7.4,4.8-12c0-0.3,0.2-0.5,0.5-0.5H50z M20.8-219.5L9.1-207.7v16.7h10.1
			v-12.3c0-0.3,0.2-0.5,0.5-0.5c4.7,0,8.9-1.8,12-4.8L20.8-219.5z M9.1-173.3l11.8,11.8l10.9-10.9c-3.1-3-7.4-4.8-12-4.8
			c-0.3,0-0.5-0.2-0.5-0.5V-190H9.1V-173.3z M21.5-160.8l11.8,11.8H50v-10.1H37.7c-0.3,0-0.5-0.2-0.5-0.5c0-4.7-1.8-8.9-4.8-12
			L21.5-160.8z M51-149.1h16.7l11.8-11.8l-10.9-10.9c-3,3.1-4.8,7.4-4.8,12c0,0.3-0.2,0.5-0.5,0.5H51V-149.1z M80.2-161.5l11.8-11.8
			V-190H81.8v12.3c0,0.3-0.2,0.5-0.5,0.5c-4.7,0-8.9,1.8-12,4.8L80.2-161.5z M91.9-207.7l-11.8-11.8l-10.9,10.9
			c3.1,3,7.4,4.8,12,4.8c0.3,0,0.5,0.2,0.5,0.5v12.3h10.1V-207.7z M79.5-220.2l-11.8-11.8H51v10.1h12.3c0.3,0,0.5,0.2,0.5,0.5
			c0,4.7,1.8,8.9,4.8,12L79.5-220.2z M96.1-151.1l3.9-3.9v-71l-3.9-3.9h-5.5l-9,9l12.1,12.1c0.2,0.2,0.3,0.4,0.3,0.7v35.2
			c0,0.3-0.1,0.5-0.3,0.7l-12.1,12.1l9,9H96.1z M100-240H87.4l3.3,3.3c0.1,0.1,0.1,0.2,0.1,0.4v5.4h5.4c0.1,0,0.3,0.1,0.4,0.1
			l3.3,3.3V-240z M1-240v12.6l3.3-3.3c0.1-0.1,0.2-0.1,0.4-0.1h5.4v-5.4c0-0.1,0.1-0.3,0.1-0.4l3.3-3.3H1z M1-141h12.6l-3.3-3.3
			c-0.1-0.1-0.1-0.2-0.1-0.4v-5.4H4.7c-0.1,0-0.3-0.1-0.4-0.1L1-153.6V-141z M100-141v-12.6l-3.3,3.3c-0.1,0.1-0.2,0.1-0.4,0.1h-5.4
			v5.4c0,0.1-0.1,0.3-0.1,0.4l-3.3,3.3H100z"/>
	</g>
</pattern>
<g>
	<path fill="url(#KoreanPattern_2)" d="M50,153.4c2.9,6.1,8.3,9.1,16.2,9.1c7.9,0,14.7-2.5,20.6-7.6c5.8-5.1,9.6-11.9,11.3-20.4
		l0.4-1.8l3.5,0.6c-1.8,10.6-6.3,18.9-13.5,24.9c-7.2,6-16.5,8.9-28,8.9c-17.4,0-30.8-4.1-40.3-12.3c-9.5-8.2-14.3-20.1-14.3-35.5
		c0-15.4,4.6-27.4,13.7-36.1c9.1-8.6,21.5-12.9,37.2-12.9c12.8,0,23.5,2.4,32,7.1c8.5,4.7,12.8,12,12.8,21.9c0,9.9-4,16.9-11.9,21
		c-8,4.2-18.3,6.2-31.1,6.2H45.6C45.6,138.4,47.1,147.3,50,153.4z M45.4,109.1v14h4.9c5.9,0,9.9-2,12.2-5.9c2.3-4,3.4-9.8,3.4-17.4
		c0-17.2-3.1-25.9-9.2-25.9c-4,0-6.9,2.3-8.7,7C46.3,85.6,45.4,95,45.4,109.1z"/>
</g>
</svg>
