<?xml version="1.0" encoding="utf-8"?>
<!-- Generator: Adobe Illustrator 26.5.0, SVG Export Plug-In . SVG Version: 6.00 Build 0)  -->
<svg version="1.1" id="Layer_1" xmlns="http://www.w3.org/2000/svg" xmlns:xlink="http://www.w3.org/1999/xlink" x="0px" y="0px"
	 viewBox="0 0 123.9 218.6" enable-background="new 0 0 123.9 218.6" xml:space="preserve">
<g>
	<path fill="#FFDFCA" d="M15.8,32.3H1.9v-3.1h11.7c14.1,0,27.1-1.2,38.9-3.7v62h1c2.5-6.2,5.9-10.6,10.2-13.2c4.3-2.6,10-3.9,17-3.9
		c11.1,0,19,3.5,23.5,10.4c4.5,6.9,6.8,16.8,6.8,29.7v50h12.1v3.1H63v-3.1h12.1v-41.8c0-13.4-0.6-23.1-1.8-29.3
		c-1.2-6.2-3.8-9.2-7.8-9.2c-4.5,0-8,4.1-10.3,12.3c-2.3,8.2-3.5,17.9-3.5,29.1v42h-48v-3.1h12.1V32.3z"/>
</g>
</svg>
