<?xml version="1.0" encoding="utf-8"?>
<!-- Generator: Adobe Illustrator 26.5.0, SVG Export Plug-In . SVG Version: 6.00 Build 0)  -->
<svg version="1.1" id="Layer_1" xmlns="http://www.w3.org/2000/svg" xmlns:xlink="http://www.w3.org/1999/xlink" x="0px" y="0px"
	 viewBox="0 0 104.9 218.6" enable-background="new 0 0 104.9 218.6" xml:space="preserve">
<g>
	<path fill="#FFDFCA" d="M50,153.4c2.9,6.1,8.3,9.1,16.2,9.1c7.9,0,14.7-2.5,20.6-7.6c5.8-5.1,9.6-11.9,11.3-20.4l0.4-1.8l3.5,0.6
		c-1.8,10.6-6.3,18.9-13.5,24.9c-7.2,6-16.5,8.9-28,8.9c-17.4,0-30.8-4.1-40.3-12.3c-9.5-8.2-14.3-20.1-14.3-35.5
		c0-15.4,4.6-27.4,13.7-36.1c9.1-8.6,21.5-12.9,37.2-12.9c12.8,0,23.5,2.4,32,7.1c8.5,4.7,12.8,12,12.8,21.9c0,9.9-4,16.9-11.9,21
		c-8,4.2-18.3,6.2-31.1,6.2H45.6C45.6,138.4,47.1,147.3,50,153.4z M45.4,109.1v14h4.9c5.9,0,9.9-2,12.2-5.9c2.3-4,3.4-9.8,3.4-17.4
		c0-17.2-3.1-25.9-9.2-25.9c-4,0-6.9,2.3-8.7,7C46.3,85.6,45.4,95,45.4,109.1z"/>
</g>
</svg>
