<?xml version="1.0" encoding="utf-8"?>
<!-- Generator: Adobe Illustrator 26.5.0, SVG Export Plug-In . SVG Version: 6.00 Build 0)  -->
<svg version="1.1" id="Layer_1" xmlns="http://www.w3.org/2000/svg" xmlns:xlink="http://www.w3.org/1999/xlink" x="0px" y="0px"
	 viewBox="0 0 123.9 218.6" enable-background="new 0 0 123.9 218.6" xml:space="preserve">
<pattern  x="-605.8" y="-464" width="59" height="59" patternUnits="userSpaceOnUse" id="KoreanPattern" viewBox="0 -59 59 59" overflow="visible">
	<g>
		<rect y="-59" fill="none" width="59" height="59"/>
		<g>
			<path fill="none" stroke="#C0618C" stroke-miterlimit="10" d="M40-4.7L54.3-19c0.1-0.1,0.2-0.3,0.2-0.4v-20.2
				c0-0.2-0.1-0.3-0.2-0.4L40-54.3c-0.1-0.1-0.3-0.2-0.4-0.2H19.4c-0.2,0-0.3,0.1-0.4,0.2L4.7-40c-0.1,0.1-0.2,0.3-0.2,0.4v20.2
				c0,0.2,0.1,0.3,0.2,0.4L19-4.7c0.1,0.1,0.3,0.2,0.4,0.2h20.2C39.7-4.5,39.9-4.6,40-4.7z M5.7-19.6v-19.7l13.9-13.9h19.7
				l13.9,13.9v19.7L39.4-5.7H19.6L5.7-19.6z"/>
			<path fill="none" stroke="#C0618C" stroke-miterlimit="10" d="M38.6-7.8l12.6-12.6c0.1-0.1,0.1-0.1,0.1-0.2v-17.8
				c0-0.1,0-0.1-0.1-0.2L38.6-51.2c-0.1-0.1-0.1-0.1-0.2-0.1H20.6c-0.1,0-0.1,0-0.2,0.1L7.8-38.6c-0.1,0.1-0.1,0.1-0.1,0.2v17.8
				c0,0.1,0,0.1,0.1,0.2L20.4-7.8c0.1,0.1,0.1,0.1,0.2,0.1h17.8C38.5-7.7,38.6-7.7,38.6-7.8z M8.3-20.7v-17.6l12.4-12.4h17.6
				l12.4,12.4v17.6L38.3-8.3H20.7L8.3-20.7z"/>
			<g>
				<path fill="none" stroke="#C0618C" stroke-miterlimit="10" d="M35.4-29.5c0-3.2-2.6-5.9-5.9-5.9s-5.9,2.6-5.9,5.9
					c0,3.2,2.6,5.9,5.9,5.9S35.4-26.3,35.4-29.5z M34.8-29.5c0,2.9-2.4,5.3-5.3,5.3s-5.3-2.4-5.3-5.3s2.4-5.3,5.3-5.3
					S34.8-32.4,34.8-29.5z"/>
				<path fill="none" stroke="#C0618C" stroke-miterlimit="10" d="M33.4-29.5c0-2.2-1.8-3.9-3.9-3.9s-3.9,1.8-3.9,3.9
					s1.8,3.9,3.9,3.9S33.4-27.3,33.4-29.5z M32.8-29.5c0,1.8-1.5,3.3-3.3,3.3c-1.8,0-3.3-1.5-3.3-3.3c0-1.8,1.5-3.3,3.3-3.3
					C31.3-32.8,32.8-31.3,32.8-29.5z"/>
				<path fill="none" stroke="#C0618C" stroke-miterlimit="10" d="M33.4-33.4c2.6-1.4,4.2-4.1,4.2-7.1c0-4.4-3.6-8-8-8s-8,3.6-8,8
					c0,2.9,1.6,5.6,4.2,7.1c0.1,0.1,0.2,0,0.3,0c1-0.9,2.2-1.4,3.5-1.4s2.6,0.5,3.5,1.4c0.1,0,0.1,0.1,0.2,0.1
					C33.3-33.4,33.3-33.4,33.4-33.4z M25.7-34c-2.3-1.3-3.7-3.8-3.7-6.5c0-4.1,3.3-7.5,7.5-7.5s7.5,3.3,7.5,7.5
					c0,2.7-1.4,5.1-3.7,6.5c-1.1-0.9-2.4-1.4-3.8-1.4C28.1-35.4,26.8-34.9,25.7-34z"/>
				<path fill="none" stroke="#C0618C" stroke-miterlimit="10" d="M24-29.5c0.1,0,0.2-0.1,0.2-0.3c0.1-1.3,0.6-2.5,1.5-3.4
					c0.9-0.9,2.1-1.5,3.4-1.5c0.1,0,0.2-0.1,0.3-0.2c0.8-2.8,0-5.9-2-8c-3.1-3.1-8.2-3.1-11.4,0c-3.1,3.1-3.1,8.2,0,11.4
					c1.5,1.5,3.6,2.4,5.7,2.4C22.5-29.2,23.3-29.3,24-29.5z M27-42.5c1.9,1.9,2.6,4.6,1.9,7.2c-1.4,0.1-2.6,0.7-3.6,1.7
					c-1,1-1.6,2.2-1.7,3.6c-2.6,0.7-5.3-0.1-7.2-1.9c-2.9-2.9-2.9-7.6,0-10.6c1.5-1.5,3.4-2.2,5.3-2.2C23.7-44.7,25.6-44,27-42.5z
					 M29.2-35.1L29.2-35.1L29.2-35.1z"/>
				<path fill="none" stroke="#C0618C" stroke-miterlimit="10" d="M25.6-25.6c0.1-0.1,0-0.2,0-0.3c-0.9-1-1.4-2.2-1.4-3.5
					s0.5-2.6,1.4-3.5c0.1-0.1,0.1-0.2,0-0.3c-1.4-2.6-4.1-4.2-7.1-4.2c-4.4,0-8,3.6-8,8s3.6,8,8,8C21.5-21.5,24.2-23.1,25.6-25.6z
					 M25-33.3c-0.9,1.1-1.4,2.4-1.4,3.8c0,1.4,0.5,2.7,1.4,3.8c-1.3,2.3-3.8,3.7-6.5,3.7c-4.1,0-7.5-3.3-7.5-7.5s3.3-7.5,7.5-7.5
					C21.2-37,23.7-35.5,25-33.3z"/>
				<path fill="none" stroke="#C0618C" stroke-miterlimit="10" d="M27.4-16.1c2.1-2.1,2.9-5.1,2-8c0-0.1-0.1-0.2-0.3-0.2
					c-1.3-0.1-2.5-0.6-3.4-1.5c-0.9-0.9-1.5-2.1-1.5-3.4c0-0.1-0.1-0.2-0.2-0.3c-2.8-0.8-5.9-0.1-8,2c-3.1,3.1-3.1,8.2,0,11.4
					c1.6,1.6,3.6,2.4,5.7,2.4C23.8-13.7,25.9-14.5,27.4-16.1z M23.7-29c0.1,1.4,0.7,2.6,1.7,3.6c1,1,2.2,1.6,3.6,1.7
					c0.7,2.6-0.1,5.3-1.9,7.2c-2.9,2.9-7.6,2.9-10.6,0c-2.9-2.9-2.9-7.6,0-10.6c1.4-1.4,3.3-2.2,5.3-2.2C22.4-29.2,23-29.1,23.7-29z
					"/>
				<path fill="none" stroke="#C0618C" stroke-miterlimit="10" d="M37.5-18.6c0-2.9-1.6-5.6-4.2-7.1c-0.1-0.1-0.2,0-0.3,0
					c-1,0.9-2.2,1.4-3.5,1.4c-1.3,0-2.6-0.5-3.5-1.4c-0.1-0.1-0.2-0.1-0.3,0c-2.6,1.4-4.2,4.1-4.2,7.1c0,4.4,3.6,8,8,8
					S37.5-14.1,37.5-18.6z M29.5-23.6c1.4,0,2.7-0.5,3.8-1.4c2.3,1.3,3.7,3.8,3.7,6.5c0,4.1-3.3,7.5-7.5,7.5S22-14.4,22-18.6
					c0-2.7,1.4-5.1,3.7-6.5C26.8-24.1,28.1-23.6,29.5-23.6z"/>
				<path fill="none" stroke="#C0618C" stroke-miterlimit="10" d="M42.9-16.1c3.1-3.1,3.1-8.2,0-11.4c-2.1-2.1-5.1-2.9-8-2
					c-0.1,0-0.2,0.1-0.2,0.3c-0.1,1.3-0.6,2.5-1.5,3.4c-0.9,0.9-2.1,1.5-3.4,1.5c-0.1,0-0.2,0.1-0.3,0.2c-0.8,2.8,0,5.9,2,8
					c1.6,1.6,3.6,2.4,5.7,2.4C39.3-13.7,41.4-14.5,42.9-16.1z M33.6-25.4c1-1,1.6-2.2,1.7-3.6c2.6-0.7,5.3,0.1,7.2,1.9
					c2.9,2.9,2.9,7.6,0,10.6c-2.9,2.9-7.6,2.9-10.6,0c-1.9-1.9-2.6-4.6-1.9-7.2C31.4-23.8,32.7-24.4,33.6-25.4z"/>
				<path fill="none" stroke="#C0618C" stroke-miterlimit="10" d="M48.5-29.5c0-4.4-3.6-8-8-8c-2.9,0-5.6,1.6-7.1,4.2
					c-0.1,0.1,0,0.2,0,0.3c0.9,1,1.4,2.2,1.4,3.5s-0.5,2.6-1.4,3.5c-0.1,0.1-0.1,0.2,0,0.3c1.4,2.6,4.1,4.2,7.1,4.2
					C44.9-21.5,48.5-25.1,48.5-29.5z M35.4-29.5c0-1.4-0.5-2.7-1.4-3.8c1.3-2.3,3.8-3.7,6.5-3.7c4.1,0,7.5,3.3,7.5,7.5
					S44.6-22,40.4-22c-2.7,0-5.1-1.4-6.5-3.7C34.9-26.8,35.4-28.1,35.4-29.5z"/>
				<path fill="none" stroke="#C0618C" stroke-miterlimit="10" d="M42.9-31.6c3.1-3.1,3.1-8.2,0-11.4c-3.1-3.1-8.2-3.1-11.4,0
					c-2.1,2.1-2.9,5.1-2,8c0,0.1,0.1,0.2,0.3,0.2c1.3,0.1,2.5,0.6,3.4,1.5c0.9,0.9,1.5,2.1,1.5,3.4c0,0.1,0.1,0.2,0.2,0.3
					c0.7,0.2,1.5,0.3,2.3,0.3C39.3-29.2,41.4-30,42.9-31.6z M33.6-33.6c-1-1-2.2-1.6-3.6-1.7c-0.7-2.6,0.1-5.3,1.9-7.2
					c2.9-2.9,7.6-2.9,10.6,0c2.9,2.9,2.9,7.6,0,10.6c-1.9,1.9-4.6,2.6-7.2,1.9C35.2-31.4,34.6-32.7,33.6-33.6z"/>
			</g>
			<path fill="none" stroke="#C0618C" stroke-miterlimit="10" d="M58.2-7c-0.2,0-0.3-0.1-0.3-0.3v-44.5c0-0.2,0.1-0.3,0.3-0.3
				s0.3,0.1,0.3,0.3v44.5C58.5-7.1,58.4-7,58.2-7z"/>
			<path fill="none" stroke="#C0618C" stroke-miterlimit="10" d="M51.8-57.9H7.2c-0.2,0-0.3-0.1-0.3-0.3s0.1-0.3,0.3-0.3h44.5
				c0.2,0,0.3,0.1,0.3,0.3S51.9-57.9,51.8-57.9z"/>
			<path fill="none" stroke="#C0618C" stroke-miterlimit="10" d="M0.8-7C0.6-7,0.5-7.1,0.5-7.2v-44.5c0-0.2,0.1-0.3,0.3-0.3
				s0.3,0.1,0.3,0.3v44.5C1.1-7.1,0.9-7,0.8-7z"/>
			<path fill="none" stroke="#C0618C" stroke-miterlimit="10" d="M51.8-0.5H7.2C7.1-0.5,7-0.6,7-0.8s0.1-0.3,0.3-0.3h44.5
				c0.2,0,0.3,0.1,0.3,0.3S51.9-0.5,51.8-0.5z"/>
			<path fill="none" stroke="#C0618C" stroke-miterlimit="10" d="M56.8-0.8c0-0.8,0.6-1.4,1.4-1.4c0.2,0,0.3-0.1,0.3-0.3
				c0-0.2-0.1-0.3-0.3-0.3c-1.1,0-2,0.9-2,2c0,0.2,0.1,0.3,0.3,0.3C56.7-0.5,56.8-0.6,56.8-0.8z M52-0.8c0-1.4,1.1-2.5,2.5-2.5h0.9
				c0.2,0,0.3-0.1,0.3-0.3v-0.9c0-1.4,1.1-2.5,2.5-2.5c0.2,0,0.3-0.1,0.3-0.3s-0.1-0.3-0.3-0.3c-1.7,0-3.1,1.4-3.1,3.1v0.6h-0.6
				c-1.7,0-3.1,1.4-3.1,3.1c0,0.2,0.1,0.3,0.3,0.3C51.9-0.5,52-0.6,52-0.8z"/>
			<path fill="none" stroke="#C0618C" stroke-miterlimit="10" d="M58.5-51.8c0-0.2-0.1-0.3-0.3-0.3c-1.4,0-2.5-1.1-2.5-2.5v-0.9
				c0-0.2-0.1-0.3-0.3-0.3h-0.9c-1.4,0-2.5-1.1-2.5-2.5c0-0.2-0.1-0.3-0.3-0.3c-0.2,0-0.3,0.1-0.3,0.3c0,1.7,1.4,3.1,3.1,3.1h0.6
				v0.6c0,1.7,1.4,3.1,3.1,3.1C58.4-51.5,58.5-51.6,58.5-51.8z M58.5-56.5c0-0.2-0.1-0.3-0.3-0.3c-0.8,0-1.4-0.6-1.4-1.4
				c0-0.2-0.1-0.3-0.3-0.3c-0.2,0-0.3,0.1-0.3,0.3c0,1.1,0.9,2,2,2C58.4-56.2,58.5-56.4,58.5-56.5z"/>
			<path fill="none" stroke="#C0618C" stroke-miterlimit="10" d="M3.8-54.5v-0.6h0.6c1.7,0,3.1-1.4,3.1-3.1c0-0.2-0.1-0.3-0.3-0.3
				S7-58.4,7-58.2c0,1.4-1.1,2.5-2.5,2.5H3.6c-0.2,0-0.3,0.1-0.3,0.3v0.9c0,1.4-1.1,2.5-2.5,2.5c-0.2,0-0.3,0.1-0.3,0.3
				c0,0.2,0.1,0.3,0.3,0.3C2.5-51.5,3.8-52.8,3.8-54.5z M2.8-58.2c0-0.2-0.1-0.3-0.3-0.3c-0.2,0-0.3,0.1-0.3,0.3
				c0,0.8-0.6,1.4-1.4,1.4c-0.2,0-0.3,0.1-0.3,0.3c0,0.2,0.1,0.3,0.3,0.3C1.9-56.2,2.8-57.1,2.8-58.2z"/>
			<path fill="none" stroke="#C0618C" stroke-miterlimit="10" d="M7.5-0.8c0-1.7-1.4-3.1-3.1-3.1H3.8v-0.6c0-1.7-1.4-3.1-3.1-3.1
				c-0.2,0-0.3,0.1-0.3,0.3S0.6-7,0.8-7c1.4,0,2.5,1.1,2.5,2.5v0.9c0,0.2,0.1,0.3,0.3,0.3h0.9C5.8-3.3,7-2.2,7-0.8
				c0,0.2,0.1,0.3,0.3,0.3S7.5-0.6,7.5-0.8z M2.8-0.8c0-1.1-0.9-2-2-2c-0.2,0-0.3,0.1-0.3,0.3c0,0.2,0.1,0.3,0.3,0.3
				c0.8,0,1.4,0.6,1.4,1.4c0,0.2,0.1,0.3,0.3,0.3C2.6-0.5,2.8-0.6,2.8-0.8z"/>
			<path fill="none" stroke="#C0618C" stroke-miterlimit="10" d="M5.1-39.3H0.8c-0.2,0-0.3-0.1-0.3-0.3c0-0.2,0.1-0.3,0.3-0.3h4.3
				c0.2,0,0.3,0.1,0.3,0.3C5.4-39.4,5.3-39.3,5.1-39.3z"/>
			<path fill="none" stroke="#C0618C" stroke-miterlimit="10" d="M5.1-19.1H0.8c-0.2,0-0.3-0.1-0.3-0.3c0-0.2,0.1-0.3,0.3-0.3h4.3
				c0.2,0,0.3,0.1,0.3,0.3C5.4-19.2,5.3-19.1,5.1-19.1z"/>
			<path fill="none" stroke="#C0618C" stroke-miterlimit="10" d="M19.4-0.5c-0.2,0-0.3-0.1-0.3-0.3v-4.3c0-0.2,0.1-0.3,0.3-0.3
				c0.2,0,0.3,0.1,0.3,0.3v4.3C19.7-0.6,19.6-0.5,19.4-0.5z"/>
			<path fill="none" stroke="#C0618C" stroke-miterlimit="10" d="M39.6-0.5c-0.2,0-0.3-0.1-0.3-0.3v-4.3c0-0.2,0.1-0.3,0.3-0.3
				s0.3,0.1,0.3,0.3v4.3C39.9-0.6,39.8-0.5,39.6-0.5z"/>
			<path fill="none" stroke="#C0618C" stroke-miterlimit="10" d="M58.2-19.1h-4.3c-0.2,0-0.3-0.1-0.3-0.3c0-0.2,0.1-0.3,0.3-0.3h4.3
				c0.2,0,0.3,0.1,0.3,0.3C58.5-19.2,58.4-19.1,58.2-19.1z"/>
			<path fill="none" stroke="#C0618C" stroke-miterlimit="10" d="M58.2-39.3h-4.3c-0.2,0-0.3-0.1-0.3-0.3c0-0.2,0.1-0.3,0.3-0.3h4.3
				c0.2,0,0.3,0.1,0.3,0.3C58.5-39.4,58.4-39.3,58.2-39.3z"/>
			<path fill="none" stroke="#C0618C" stroke-miterlimit="10" d="M39.6-53.6c-0.2,0-0.3-0.1-0.3-0.3v-4.3c0-0.2,0.1-0.3,0.3-0.3
				s0.3,0.1,0.3,0.3v4.3C39.9-53.7,39.8-53.6,39.6-53.6z"/>
			<path fill="none" stroke="#C0618C" stroke-miterlimit="10" d="M19.4-53.6c-0.2,0-0.3-0.1-0.3-0.3v-4.3c0-0.2,0.1-0.3,0.3-0.3
				c0.2,0,0.3,0.1,0.3,0.3v4.3C19.7-53.7,19.6-53.6,19.4-53.6z"/>
			<path fill="none" stroke="#C0618C" stroke-miterlimit="10" d="M29.5-53.6c-0.2,0-0.3-0.1-0.3-0.3v-4.3c0-0.2,0.1-0.3,0.3-0.3
				c0.2,0,0.3,0.1,0.3,0.3v4.3C29.8-53.7,29.6-53.6,29.5-53.6z"/>
			<path fill="none" stroke="#C0618C" stroke-miterlimit="10" d="M5.1-29.2H0.8c-0.2,0-0.3-0.1-0.3-0.3c0-0.2,0.1-0.3,0.3-0.3h4.3
				c0.2,0,0.3,0.1,0.3,0.3C5.4-29.3,5.3-29.2,5.1-29.2z"/>
			<path fill="none" stroke="#C0618C" stroke-miterlimit="10" d="M29.5-0.5c-0.2,0-0.3-0.1-0.3-0.3v-4.3c0-0.2,0.1-0.3,0.3-0.3
				c0.2,0,0.3,0.1,0.3,0.3v4.3C29.8-0.6,29.7-0.5,29.5-0.5z"/>
			<path fill="none" stroke="#C0618C" stroke-miterlimit="10" d="M58.2-29.2h-4.3c-0.2,0-0.3-0.1-0.3-0.3c0-0.2,0.1-0.3,0.3-0.3h4.3
				c0.2,0,0.3,0.1,0.3,0.3C58.5-29.4,58.4-29.2,58.2-29.2z"/>
		</g>
	</g>
</pattern>
<g>
	<path fill="url(#KoreanPattern)" d="M15.8,32.3H1.9v-3.1h11.7c14.1,0,27.1-1.2,38.9-3.7v62h1c2.5-6.2,5.9-10.6,10.2-13.2
		c4.3-2.6,10-3.9,17-3.9c11.1,0,19,3.5,23.5,10.4c4.5,6.9,6.8,16.8,6.8,29.7v50h12.1v3.1H63v-3.1h12.1v-41.8
		c0-13.4-0.6-23.1-1.8-29.3c-1.2-6.2-3.8-9.2-7.8-9.2c-4.5,0-8,4.1-10.3,12.3c-2.3,8.2-3.5,17.9-3.5,29.1v42h-48v-3.1h12.1V32.3z"/>
</g>
</svg>
