<?xml version="1.0" encoding="utf-8"?>
<!-- Generator: Adobe Illustrator 26.5.0, SVG Export Plug-In . SVG Version: 6.00 Build 0)  -->
<svg version="1.1" id="Layer_1" xmlns="http://www.w3.org/2000/svg" xmlns:xlink="http://www.w3.org/1999/xlink" x="0px" y="0px"
	 viewBox="0 0 179.1 218.6" enable-background="new 0 0 179.1 218.6" xml:space="preserve">
<g>
	<path fill="#FFDFCA" d="M135.9,70.4c11.1,0,19,3.5,23.5,10.4c4.5,6.9,6.8,16.8,6.8,29.7v50h12.1v3.1h-60.1v-3.1h12.1v-41.8
		c0-13.2-0.6-22.8-1.8-28.8c-1.2-6-3.8-8.9-7.8-8.9c-4.5,0-8,4.8-10.3,14.5c-2.3,9.7-3.5,20.3-3.5,32v36.2H63v-3.1h12.1v-41.8
		c0-13.2-0.6-22.8-1.8-28.8c-1.2-6-3.8-8.9-7.8-8.9c-4.5,0-8,4.8-10.3,14.5c-2.3,9.7-3.5,20.3-3.5,32v36.2h-48v-3.1h12.1V77.2H1.9
		v-3.1h11.7c14.1,0,27.1-1.2,38.9-3.7v19.1h1c5.1-12.7,14.2-19.1,27.3-19.1c13.2,0,22.1,6.4,26.7,19.3l0.2-0.2h1
		C113.8,76.7,122.8,70.4,135.9,70.4z"/>
</g>
</svg>
