<?xml version="1.0" encoding="utf-8"?>
<!-- Generator: Adobe Illustrator 26.5.0, SVG Export Plug-In . SVG Version: 6.00 Build 0)  -->
<svg version="1.1" id="Layer_1" xmlns="http://www.w3.org/2000/svg" xmlns:xlink="http://www.w3.org/1999/xlink" x="0px" y="0px"
	 viewBox="0 0 89.4 218.6" enable-background="new 0 0 89.4 218.6" xml:space="preserve">
<g>
	<path fill="#FFDFCA" d="M27.4,205.1c-6.4,0-12.2-2.1-17.5-6.2c-5.3-4.1-8-9.5-8-16c0-6.5,2-11.9,6-16c4-4.1,8.7-6.2,14-6.2
		c5.3,0,9.8,1.7,13.4,5.1c3.6,3.4,5.4,7.6,5.4,12.5c0,5-1.5,9.2-4.6,12.6c-3,3.4-7.1,5.2-12.2,5.2c-2.9,0-5.3-0.5-7.4-1.6
		c-2.1-1-3.4-2.1-4.1-3.1l-1-1.8c-0.8-1.6-1.6-2.3-2.3-2.3c-1.2,0-1.8,0.6-1.8,1.8c0,0.3,0.4,1.3,1.3,3.2c0.8,1.9,2.9,3.9,6.3,6
		c3.4,2.1,7.2,3.2,11.5,3.2c7.4,0,13-2.3,16.8-6.9c3.8-4.6,5.7-9.6,5.7-14.9c0-5.3-0.7-9.7-2.2-13c-1.5-3.4-3.3-6-5.3-8
		c-4.4-3.8-8.4-6.1-12.1-7l-2.1-0.6V32.3H13.2v-3.1h70.4v3.1H67.3v125.2c0,15.3-3.6,27.1-10.8,35.3C49.3,201,39.6,205.1,27.4,205.1z
		"/>
</g>
</svg>
