<?xml version="1.0" encoding="utf-8"?>
<!-- Generator: Adobe Illustrator 26.5.0, SVG Export Plug-In . SVG Version: 6.00 Build 0)  -->
<svg version="1.1" id="Layer_1" xmlns="http://www.w3.org/2000/svg" xmlns:xlink="http://www.w3.org/1999/xlink" x="0px" y="0px"
	 viewBox="0 0 179.1 218.6" enable-background="new 0 0 179.1 218.6" xml:space="preserve">
<pattern  x="-1477.9" y="-463.4" width="70" height="70" patternUnits="userSpaceOnUse" id="Korean_Pattern" viewBox="86 -156 70 70" overflow="visible">
	<g>
		<rect x="86" y="-156" fill="none" width="70" height="70"/>
		<path fill="none" stroke="#FF9C80" stroke-miterlimit="10" d="M241.5-13.5V-1c0,0.3-0.2,0.5-0.5,0.5H141c-0.3,0-0.5-0.2-0.5-0.5
			v-12.4c0,0,0,0,0,0v-75c0,0,0,0,0,0V-101c0-0.3,0.2-0.5,0.5-0.5h87.5c0,0,0,0,0,0H241c0.3,0,0.5,0.2,0.5,0.5v12.4c0,0,0,0,0,0
			V-13.5C241.5-13.5,241.5-13.5,241.5-13.5z M228.3-1.5l12.2-12.2v-23.8h-12.2L217-26.3v24.8H228.3z M165-1.5v-24.8l-11.3-11.2
			h-12.2v23.9l12.2,12.2H165z M153.7-100.5l-12.2,12.2v23.8h12.3L165-75.7v-24.8H153.7z M217-100.5v24.8l11.2,11.2h12.3v-23.8
			l-12.2-12.2H217z M141.5-39.5H153v-23h-11.5V-39.5z M154-62.5v11h24v-11H154z M154-39.5h24v-11h-24V-39.5z M179-39.5h11.5v-23H179
			V-39.5z M191.5-39.5H203v-23h-11.5V-39.5z M228-39.5v-11h-24v11H228z M228-62.5h-24v11h24V-62.5z M226.8-64.5l-9.8-9.8v9.8H226.8z
			 M215-75.5h-23.5v11H215V-75.5z M190.5-75.5H167v11h23.5V-75.5z M165-74.3l-9.8,9.8h9.8V-74.3z M155.2-37.5l9.8,9.8v-9.8H155.2z
			 M167-26.5h23.5v-11H167V-26.5z M191.5-26.5H215v-11h-23.5V-26.5z M217-27.8l9.8-9.8H217V-27.8z M240.5-39.5v-23H229v23H240.5z
			 M215-100.5h-23.5v24H215V-100.5z M190.5-100.5H167v24h23.5V-100.5z M167-1.5h23.5v-24H167V-1.5z M191.5-1.5H215v-24h-23.5V-1.5z
			 M240.5-100.5h-10.8l10.8,10.7V-100.5z M141.5-100.5v10.8l10.7-10.8H141.5z M141.5-1.5h10.8l-10.8-10.7V-1.5z M240.5-1.5v-10.8
			L229.8-1.5H240.5z"/>
		<path fill="none" stroke="#FF9C80" stroke-miterlimit="10" d="M171.5-13.5V-1c0,0.3-0.2,0.5-0.5,0.5H71c-0.3,0-0.5-0.2-0.5-0.5
			v-12.4c0,0,0,0,0,0v-75c0,0,0,0,0,0V-101c0-0.3,0.2-0.5,0.5-0.5h87.5c0,0,0,0,0,0H171c0.3,0,0.5,0.2,0.5,0.5v12.4c0,0,0,0,0,0
			V-13.5C171.5-13.5,171.5-13.5,171.5-13.5z M158.3-1.5l12.2-12.2v-23.8h-12.2L147-26.3v24.8H158.3z M95-1.5v-24.8L83.7-37.5H71.5
			v23.9L83.7-1.5H95z M83.7-100.5L71.5-88.3v23.8h12.3L95-75.7v-24.8H83.7z M147-100.5v24.8l11.2,11.2h12.3v-23.8l-12.2-12.2H147z
			 M71.5-39.5H83v-23H71.5V-39.5z M84-62.5v11h24v-11H84z M84-39.5h24v-11H84V-39.5z M109-39.5h11.5v-23H109V-39.5z M121.5-39.5H133
			v-23h-11.5V-39.5z M158-39.5v-11h-24v11H158z M158-62.5h-24v11h24V-62.5z M156.8-64.5l-9.8-9.8v9.8H156.8z M145-75.5h-23.5v11H145
			V-75.5z M120.5-75.5H97v11h23.5V-75.5z M95-74.3l-9.8,9.8H95V-74.3z M85.2-37.5l9.8,9.8v-9.8H85.2z M97-26.5h23.5v-11H97V-26.5z
			 M121.5-26.5H145v-11h-23.5V-26.5z M147-27.8l9.8-9.8H147V-27.8z M170.5-39.5v-23H159v23H170.5z M145-100.5h-23.5v24H145V-100.5z
			 M120.5-100.5H97v24h23.5V-100.5z M97-1.5h23.5v-24H97V-1.5z M121.5-1.5H145v-24h-23.5V-1.5z M170.5-100.5h-10.8l10.8,10.7V-100.5
			z M71.5-100.5v10.8l10.7-10.8H71.5z M71.5-1.5h10.8L71.5-12.2V-1.5z M170.5-1.5v-10.8L159.8-1.5H170.5z"/>
		<path fill="none" stroke="#FF9C80" stroke-miterlimit="10" d="M101.5-13.5V-1c0,0.3-0.2,0.5-0.5,0.5H1C0.7-0.5,0.5-0.7,0.5-1
			v-12.4c0,0,0,0,0,0v-75c0,0,0,0,0,0V-101c0-0.3,0.2-0.5,0.5-0.5h87.5c0,0,0,0,0,0H101c0.3,0,0.5,0.2,0.5,0.5v12.4c0,0,0,0,0,0
			V-13.5C101.5-13.5,101.5-13.5,101.5-13.5z M88.3-1.5l12.2-12.2v-23.8H88.3L77-26.3v24.8H88.3z M25-1.5v-24.8L13.7-37.5H1.5v23.9
			L13.7-1.5H25z M13.7-100.5L1.5-88.3v23.8h12.3L25-75.7v-24.8H13.7z M77-100.5v24.8l11.2,11.2h12.3v-23.8l-12.2-12.2H77z M1.5-39.5
			H13v-23H1.5V-39.5z M14-62.5v11h24v-11H14z M14-39.5h24v-11H14V-39.5z M39-39.5h11.5v-23H39V-39.5z M51.5-39.5H63v-23H51.5V-39.5z
			 M88-39.5v-11H64v11H88z M88-62.5H64v11h24V-62.5z M86.8-64.5L77-74.3v9.8H86.8z M75-75.5H51.5v11H75V-75.5z M50.5-75.5H27v11
			h23.5V-75.5z M25-74.3l-9.8,9.8H25V-74.3z M15.2-37.5l9.8,9.8v-9.8H15.2z M27-26.5h23.5v-11H27V-26.5z M51.5-26.5H75v-11H51.5
			V-26.5z M77-27.8l9.8-9.8H77V-27.8z M100.5-39.5v-23H89v23H100.5z M75-100.5H51.5v24H75V-100.5z M50.5-100.5H27v24h23.5V-100.5z
			 M27-1.5h23.5v-24H27V-1.5z M51.5-1.5H75v-24H51.5V-1.5z M100.5-100.5H89.7l10.8,10.7V-100.5z M1.5-100.5v10.8l10.7-10.8H1.5z
			 M1.5-1.5h10.8L1.5-12.2V-1.5z M100.5-1.5v-10.8L89.8-1.5H100.5z"/>
		<path fill="none" stroke="#FF9C80" stroke-miterlimit="10" d="M241.5-83.5V-71c0,0.3-0.2,0.5-0.5,0.5H141c-0.3,0-0.5-0.2-0.5-0.5
			v-12.4c0,0,0,0,0,0v-75c0,0,0,0,0,0V-171c0-0.3,0.2-0.5,0.5-0.5h87.5c0,0,0,0,0,0H241c0.3,0,0.5,0.2,0.5,0.5v12.4c0,0,0,0,0,0
			V-83.5C241.5-83.5,241.5-83.5,241.5-83.5z M228.3-71.5l12.2-12.2v-23.8h-12.2L217-96.3v24.8H228.3z M165-71.5v-24.8l-11.3-11.2
			h-12.2v23.9l12.2,12.2H165z M153.7-170.5l-12.2,12.2v23.8h12.3l11.2-11.2v-24.8H153.7z M217-170.5v24.8l11.2,11.2h12.3v-23.8
			l-12.2-12.2H217z M141.5-109.5H153v-23h-11.5V-109.5z M154-132.5v11h24v-11H154z M154-109.5h24v-11h-24V-109.5z M179-109.5h11.5
			v-23H179V-109.5z M191.5-109.5H203v-23h-11.5V-109.5z M228-109.5v-11h-24v11H228z M228-132.5h-24v11h24V-132.5z M226.8-134.5
			l-9.8-9.8v9.8H226.8z M215-145.5h-23.5v11H215V-145.5z M190.5-145.5H167v11h23.5V-145.5z M165-144.3l-9.8,9.8h9.8V-144.3z
			 M155.2-107.5l9.8,9.8v-9.8H155.2z M167-96.5h23.5v-11H167V-96.5z M191.5-96.5H215v-11h-23.5V-96.5z M217-97.8l9.8-9.8H217V-97.8z
			 M240.5-109.5v-23H229v23H240.5z M215-170.5h-23.5v24H215V-170.5z M190.5-170.5H167v24h23.5V-170.5z M167-71.5h23.5v-24H167V-71.5
			z M191.5-71.5H215v-24h-23.5V-71.5z M240.5-170.5h-10.8l10.8,10.7V-170.5z M141.5-170.5v10.8l10.7-10.8H141.5z M141.5-71.5h10.8
			l-10.8-10.7V-71.5z M240.5-71.5v-10.8l-10.7,10.8H240.5z"/>
		<path fill="none" stroke="#FF9C80" stroke-miterlimit="10" d="M171.5-83.5V-71c0,0.3-0.2,0.5-0.5,0.5H71c-0.3,0-0.5-0.2-0.5-0.5
			v-12.4c0,0,0,0,0,0v-75c0,0,0,0,0,0V-171c0-0.3,0.2-0.5,0.5-0.5h87.5c0,0,0,0,0,0H171c0.3,0,0.5,0.2,0.5,0.5v12.4c0,0,0,0,0,0
			V-83.5C171.5-83.5,171.5-83.5,171.5-83.5z M158.3-71.5l12.2-12.2v-23.8h-12.2L147-96.3v24.8H158.3z M95-71.5v-24.8l-11.3-11.2
			H71.5v23.9l12.2,12.2H95z M83.7-170.5l-12.2,12.2v23.8h12.3L95-145.7v-24.8H83.7z M147-170.5v24.8l11.2,11.2h12.3v-23.8
			l-12.2-12.2H147z M71.5-109.5H83v-23H71.5V-109.5z M84-132.5v11h24v-11H84z M84-109.5h24v-11H84V-109.5z M109-109.5h11.5v-23H109
			V-109.5z M121.5-109.5H133v-23h-11.5V-109.5z M158-109.5v-11h-24v11H158z M158-132.5h-24v11h24V-132.5z M156.8-134.5l-9.8-9.8v9.8
			H156.8z M145-145.5h-23.5v11H145V-145.5z M120.5-145.5H97v11h23.5V-145.5z M95-144.3l-9.8,9.8H95V-144.3z M85.2-107.5l9.8,9.8
			v-9.8H85.2z M97-96.5h23.5v-11H97V-96.5z M121.5-96.5H145v-11h-23.5V-96.5z M147-97.8l9.8-9.8H147V-97.8z M170.5-109.5v-23H159v23
			H170.5z M145-170.5h-23.5v24H145V-170.5z M120.5-170.5H97v24h23.5V-170.5z M97-71.5h23.5v-24H97V-71.5z M121.5-71.5H145v-24h-23.5
			V-71.5z M170.5-170.5h-10.8l10.8,10.7V-170.5z M71.5-170.5v10.8l10.7-10.8H71.5z M71.5-71.5h10.8L71.5-82.2V-71.5z M170.5-71.5
			v-10.8l-10.7,10.8H170.5z"/>
		<path fill="none" stroke="#FF9C80" stroke-miterlimit="10" d="M101.5-83.5V-71c0,0.3-0.2,0.5-0.5,0.5H1c-0.3,0-0.5-0.2-0.5-0.5
			v-12.4c0,0,0,0,0,0v-75c0,0,0,0,0,0V-171c0-0.3,0.2-0.5,0.5-0.5h87.5c0,0,0,0,0,0H101c0.3,0,0.5,0.2,0.5,0.5v12.4c0,0,0,0,0,0
			V-83.5C101.5-83.5,101.5-83.5,101.5-83.5z M88.3-71.5l12.2-12.2v-23.8H88.3L77-96.3v24.8H88.3z M25-71.5v-24.8l-11.3-11.2H1.5
			v23.9l12.2,12.2H25z M13.7-170.5L1.5-158.3v23.8h12.3L25-145.7v-24.8H13.7z M77-170.5v24.8l11.2,11.2h12.3v-23.8l-12.2-12.2H77z
			 M1.5-109.5H13v-23H1.5V-109.5z M14-132.5v11h24v-11H14z M14-109.5h24v-11H14V-109.5z M39-109.5h11.5v-23H39V-109.5z M51.5-109.5
			H63v-23H51.5V-109.5z M88-109.5v-11H64v11H88z M88-132.5H64v11h24V-132.5z M86.8-134.5l-9.8-9.8v9.8H86.8z M75-145.5H51.5v11H75
			V-145.5z M50.5-145.5H27v11h23.5V-145.5z M25-144.3l-9.8,9.8H25V-144.3z M15.2-107.5l9.8,9.8v-9.8H15.2z M27-96.5h23.5v-11H27
			V-96.5z M51.5-96.5H75v-11H51.5V-96.5z M77-97.8l9.8-9.8H77V-97.8z M100.5-109.5v-23H89v23H100.5z M75-170.5H51.5v24H75V-170.5z
			 M50.5-170.5H27v24h23.5V-170.5z M27-71.5h23.5v-24H27V-71.5z M51.5-71.5H75v-24H51.5V-71.5z M100.5-170.5H89.7l10.8,10.7V-170.5z
			 M1.5-170.5v10.8l10.7-10.8H1.5z M1.5-71.5h10.8L1.5-82.2V-71.5z M100.5-71.5v-10.8L89.8-71.5H100.5z"/>
		<path fill="none" stroke="#FF9C80" stroke-miterlimit="10" d="M241.5-153.5v12.5c0,0.3-0.2,0.5-0.5,0.5H141
			c-0.3,0-0.5-0.2-0.5-0.5v-12.4c0,0,0,0,0,0v-75c0,0,0,0,0,0V-241c0-0.3,0.2-0.5,0.5-0.5h87.5c0,0,0,0,0,0H241
			c0.3,0,0.5,0.2,0.5,0.5v12.4c0,0,0,0,0,0V-153.5C241.5-153.5,241.5-153.5,241.5-153.5z M228.3-141.5l12.2-12.2v-23.8h-12.2
			L217-166.3v24.8H228.3z M165-141.5v-24.8l-11.3-11.2h-12.2v23.9l12.2,12.2H165z M153.7-240.5l-12.2,12.2v23.8h12.3l11.2-11.2
			v-24.8H153.7z M217-240.5v24.8l11.2,11.2h12.3v-23.8l-12.2-12.2H217z M141.5-179.5H153v-23h-11.5V-179.5z M154-202.5v11h24v-11
			H154z M154-179.5h24v-11h-24V-179.5z M179-179.5h11.5v-23H179V-179.5z M191.5-179.5H203v-23h-11.5V-179.5z M228-179.5v-11h-24v11
			H228z M228-202.5h-24v11h24V-202.5z M226.8-204.5l-9.8-9.8v9.8H226.8z M215-215.5h-23.5v11H215V-215.5z M190.5-215.5H167v11h23.5
			V-215.5z M165-214.3l-9.8,9.8h9.8V-214.3z M155.2-177.5l9.8,9.8v-9.8H155.2z M167-166.5h23.5v-11H167V-166.5z M191.5-166.5H215
			v-11h-23.5V-166.5z M217-167.8l9.8-9.8H217V-167.8z M240.5-179.5v-23H229v23H240.5z M215-240.5h-23.5v24H215V-240.5z M190.5-240.5
			H167v24h23.5V-240.5z M167-141.5h23.5v-24H167V-141.5z M191.5-141.5H215v-24h-23.5V-141.5z M240.5-240.5h-10.8l10.8,10.7V-240.5z
			 M141.5-240.5v10.8l10.7-10.8H141.5z M141.5-141.5h10.8l-10.8-10.7V-141.5z M240.5-141.5v-10.8l-10.7,10.8H240.5z"/>
		<path fill="none" stroke="#FF9C80" stroke-miterlimit="10" d="M171.5-153.5v12.5c0,0.3-0.2,0.5-0.5,0.5H71c-0.3,0-0.5-0.2-0.5-0.5
			v-12.4c0,0,0,0,0,0v-75c0,0,0,0,0,0V-241c0-0.3,0.2-0.5,0.5-0.5h87.5c0,0,0,0,0,0H171c0.3,0,0.5,0.2,0.5,0.5v12.4c0,0,0,0,0,0
			V-153.5C171.5-153.5,171.5-153.5,171.5-153.5z M158.3-141.5l12.2-12.2v-23.8h-12.2L147-166.3v24.8H158.3z M95-141.5v-24.8
			l-11.3-11.2H71.5v23.9l12.2,12.2H95z M83.7-240.5l-12.2,12.2v23.8h12.3L95-215.7v-24.8H83.7z M147-240.5v24.8l11.2,11.2h12.3
			v-23.8l-12.2-12.2H147z M71.5-179.5H83v-23H71.5V-179.5z M84-202.5v11h24v-11H84z M84-179.5h24v-11H84V-179.5z M109-179.5h11.5
			v-23H109V-179.5z M121.5-179.5H133v-23h-11.5V-179.5z M158-179.5v-11h-24v11H158z M158-202.5h-24v11h24V-202.5z M156.8-204.5
			l-9.8-9.8v9.8H156.8z M145-215.5h-23.5v11H145V-215.5z M120.5-215.5H97v11h23.5V-215.5z M95-214.3l-9.8,9.8H95V-214.3z
			 M85.2-177.5l9.8,9.8v-9.8H85.2z M97-166.5h23.5v-11H97V-166.5z M121.5-166.5H145v-11h-23.5V-166.5z M147-167.8l9.8-9.8H147
			V-167.8z M170.5-179.5v-23H159v23H170.5z M145-240.5h-23.5v24H145V-240.5z M120.5-240.5H97v24h23.5V-240.5z M97-141.5h23.5v-24H97
			V-141.5z M121.5-141.5H145v-24h-23.5V-141.5z M170.5-240.5h-10.8l10.8,10.7V-240.5z M71.5-240.5v10.8l10.7-10.8H71.5z M71.5-141.5
			h10.8l-10.8-10.7V-141.5z M170.5-141.5v-10.8l-10.7,10.8H170.5z"/>
		<path fill="none" stroke="#FF9C80" stroke-miterlimit="10" d="M101.5-153.5v12.5c0,0.3-0.2,0.5-0.5,0.5H1c-0.3,0-0.5-0.2-0.5-0.5
			v-12.4c0,0,0,0,0,0v-75c0,0,0,0,0,0V-241c0-0.3,0.2-0.5,0.5-0.5h87.5c0,0,0,0,0,0H101c0.3,0,0.5,0.2,0.5,0.5v12.4c0,0,0,0,0,0
			V-153.5C101.5-153.5,101.5-153.5,101.5-153.5z M88.3-141.5l12.2-12.2v-23.8H88.3L77-166.3v24.8H88.3z M25-141.5v-24.8l-11.3-11.2
			H1.5v23.9l12.2,12.2H25z M13.7-240.5L1.5-228.3v23.8h12.3L25-215.7v-24.8H13.7z M77-240.5v24.8l11.2,11.2h12.3v-23.8l-12.2-12.2
			H77z M1.5-179.5H13v-23H1.5V-179.5z M14-202.5v11h24v-11H14z M14-179.5h24v-11H14V-179.5z M39-179.5h11.5v-23H39V-179.5z
			 M51.5-179.5H63v-23H51.5V-179.5z M88-179.5v-11H64v11H88z M88-202.5H64v11h24V-202.5z M86.8-204.5l-9.8-9.8v9.8H86.8z M75-215.5
			H51.5v11H75V-215.5z M50.5-215.5H27v11h23.5V-215.5z M25-214.3l-9.8,9.8H25V-214.3z M15.2-177.5l9.8,9.8v-9.8H15.2z M27-166.5
			h23.5v-11H27V-166.5z M51.5-166.5H75v-11H51.5V-166.5z M77-167.8l9.8-9.8H77V-167.8z M100.5-179.5v-23H89v23H100.5z M75-240.5
			H51.5v24H75V-240.5z M50.5-240.5H27v24h23.5V-240.5z M27-141.5h23.5v-24H27V-141.5z M51.5-141.5H75v-24H51.5V-141.5z M100.5-240.5
			H89.7l10.8,10.7V-240.5z M1.5-240.5v10.8l10.7-10.8H1.5z M1.5-141.5h10.8L1.5-152.2V-141.5z M100.5-141.5v-10.8l-10.7,10.8H100.5z
			"/>
	</g>
</pattern>
<g>
	<g>
		<path fill="url(#Korean_Pattern)" d="M135.9,70.4c11.1,0,19,3.5,23.5,10.4c4.5,6.9,6.8,16.8,6.8,29.7v50h12.1v3.1h-60.1v-3.1h12.1
			v-41.8c0-13.2-0.6-22.8-1.8-28.8c-1.2-6-3.8-8.9-7.8-8.9c-4.5,0-8,4.8-10.3,14.5c-2.3,9.7-3.5,20.3-3.5,32v36.2H63v-3.1h12.1
			v-41.8c0-13.2-0.6-22.8-1.8-28.8c-1.2-6-3.8-8.9-7.8-8.9c-4.5,0-8,4.8-10.3,14.5c-2.3,9.7-3.5,20.3-3.5,32v36.2h-48v-3.1h12.1
			V77.2H1.9v-3.1h11.7c14.1,0,27.1-1.2,38.9-3.7v19.1h1c5.1-12.7,14.2-19.1,27.3-19.1c13.2,0,22.1,6.4,26.7,19.2l0.2-0.2h1
			C113.8,76.7,122.8,70.4,135.9,70.4z"/>
	</g>
</g>
</svg>
