<?xml version="1.0" encoding="utf-8"?>
<!-- Generator: Adobe Illustrator 26.5.0, SVG Export Plug-In . SVG Version: 6.00 Build 0)  -->
<svg version="1.1" id="Layer_1" xmlns="http://www.w3.org/2000/svg" xmlns:xlink="http://www.w3.org/1999/xlink" x="0px" y="0px"
	 viewBox="0 0 104.2 218.6" enable-background="new 0 0 104.2 218.6" xml:space="preserve">
<pattern  x="-750" y="-464.6" width="70" height="70" patternUnits="userSpaceOnUse" id="Korean_Pattern" viewBox="86 -156 70 70" overflow="visible">
	<g>
		<rect x="86" y="-156" fill="none" width="70" height="70"/>
		<path fill="none" stroke="#FF9C80" stroke-miterlimit="10" d="M241.5-13.5V-1c0,0.3-0.2,0.5-0.5,0.5H141c-0.3,0-0.5-0.2-0.5-0.5
			v-12.4c0,0,0,0,0,0v-75c0,0,0,0,0,0V-101c0-0.3,0.2-0.5,0.5-0.5h87.5c0,0,0,0,0,0H241c0.3,0,0.5,0.2,0.5,0.5v12.4c0,0,0,0,0,0
			V-13.5C241.5-13.5,241.5-13.5,241.5-13.5z M228.3-1.5l12.2-12.2v-23.8h-12.2L217-26.3v24.8H228.3z M165-1.5v-24.8l-11.3-11.2
			h-12.2v23.9l12.2,12.2H165z M153.7-100.5l-12.2,12.2v23.8h12.3L165-75.7v-24.8H153.7z M217-100.5v24.8l11.2,11.2h12.3v-23.8
			l-12.2-12.2H217z M141.5-39.5H153v-23h-11.5V-39.5z M154-62.5v11h24v-11H154z M154-39.5h24v-11h-24V-39.5z M179-39.5h11.5v-23H179
			V-39.5z M191.5-39.5H203v-23h-11.5V-39.5z M228-39.5v-11h-24v11H228z M228-62.5h-24v11h24V-62.5z M226.8-64.5l-9.8-9.8v9.8H226.8z
			 M215-75.5h-23.5v11H215V-75.5z M190.5-75.5H167v11h23.5V-75.5z M165-74.3l-9.8,9.8h9.8V-74.3z M155.2-37.5l9.8,9.8v-9.8H155.2z
			 M167-26.5h23.5v-11H167V-26.5z M191.5-26.5H215v-11h-23.5V-26.5z M217-27.8l9.8-9.8H217V-27.8z M240.5-39.5v-23H229v23H240.5z
			 M215-100.5h-23.5v24H215V-100.5z M190.5-100.5H167v24h23.5V-100.5z M167-1.5h23.5v-24H167V-1.5z M191.5-1.5H215v-24h-23.5V-1.5z
			 M240.5-100.5h-10.8l10.8,10.7V-100.5z M141.5-100.5v10.8l10.7-10.8H141.5z M141.5-1.5h10.8l-10.8-10.7V-1.5z M240.5-1.5v-10.8
			L229.8-1.5H240.5z"/>
		<path fill="none" stroke="#FF9C80" stroke-miterlimit="10" d="M171.5-13.5V-1c0,0.3-0.2,0.5-0.5,0.5H71c-0.3,0-0.5-0.2-0.5-0.5
			v-12.4c0,0,0,0,0,0v-75c0,0,0,0,0,0V-101c0-0.3,0.2-0.5,0.5-0.5h87.5c0,0,0,0,0,0H171c0.3,0,0.5,0.2,0.5,0.5v12.4c0,0,0,0,0,0
			V-13.5C171.5-13.5,171.5-13.5,171.5-13.5z M158.3-1.5l12.2-12.2v-23.8h-12.2L147-26.3v24.8H158.3z M95-1.5v-24.8L83.7-37.5H71.5
			v23.9L83.7-1.5H95z M83.7-100.5L71.5-88.3v23.8h12.3L95-75.7v-24.8H83.7z M147-100.5v24.8l11.2,11.2h12.3v-23.8l-12.2-12.2H147z
			 M71.5-39.5H83v-23H71.5V-39.5z M84-62.5v11h24v-11H84z M84-39.5h24v-11H84V-39.5z M109-39.5h11.5v-23H109V-39.5z M121.5-39.5H133
			v-23h-11.5V-39.5z M158-39.5v-11h-24v11H158z M158-62.5h-24v11h24V-62.5z M156.8-64.5l-9.8-9.8v9.8H156.8z M145-75.5h-23.5v11H145
			V-75.5z M120.5-75.5H97v11h23.5V-75.5z M95-74.3l-9.8,9.8H95V-74.3z M85.2-37.5l9.8,9.8v-9.8H85.2z M97-26.5h23.5v-11H97V-26.5z
			 M121.5-26.5H145v-11h-23.5V-26.5z M147-27.8l9.8-9.8H147V-27.8z M170.5-39.5v-23H159v23H170.5z M145-100.5h-23.5v24H145V-100.5z
			 M120.5-100.5H97v24h23.5V-100.5z M97-1.5h23.5v-24H97V-1.5z M121.5-1.5H145v-24h-23.5V-1.5z M170.5-100.5h-10.8l10.8,10.7V-100.5
			z M71.5-100.5v10.8l10.7-10.8H71.5z M71.5-1.5h10.8L71.5-12.2V-1.5z M170.5-1.5v-10.8L159.8-1.5H170.5z"/>
		<path fill="none" stroke="#FF9C80" stroke-miterlimit="10" d="M101.5-13.5V-1c0,0.3-0.2,0.5-0.5,0.5H1C0.7-0.5,0.5-0.7,0.5-1
			v-12.4c0,0,0,0,0,0v-75c0,0,0,0,0,0V-101c0-0.3,0.2-0.5,0.5-0.5h87.5c0,0,0,0,0,0H101c0.3,0,0.5,0.2,0.5,0.5v12.4c0,0,0,0,0,0
			V-13.5C101.5-13.5,101.5-13.5,101.5-13.5z M88.3-1.5l12.2-12.2v-23.8H88.3L77-26.3v24.8H88.3z M25-1.5v-24.8L13.7-37.5H1.5v23.9
			L13.7-1.5H25z M13.7-100.5L1.5-88.3v23.8h12.3L25-75.7v-24.8H13.7z M77-100.5v24.8l11.2,11.2h12.3v-23.8l-12.2-12.2H77z M1.5-39.5
			H13v-23H1.5V-39.5z M14-62.5v11h24v-11H14z M14-39.5h24v-11H14V-39.5z M39-39.5h11.5v-23H39V-39.5z M51.5-39.5H63v-23H51.5V-39.5z
			 M88-39.5v-11H64v11H88z M88-62.5H64v11h24V-62.5z M86.8-64.5L77-74.3v9.8H86.8z M75-75.5H51.5v11H75V-75.5z M50.5-75.5H27v11
			h23.5V-75.5z M25-74.3l-9.8,9.8H25V-74.3z M15.2-37.5l9.8,9.8v-9.8H15.2z M27-26.5h23.5v-11H27V-26.5z M51.5-26.5H75v-11H51.5
			V-26.5z M77-27.8l9.8-9.8H77V-27.8z M100.5-39.5v-23H89v23H100.5z M75-100.5H51.5v24H75V-100.5z M50.5-100.5H27v24h23.5V-100.5z
			 M27-1.5h23.5v-24H27V-1.5z M51.5-1.5H75v-24H51.5V-1.5z M100.5-100.5H89.7l10.8,10.7V-100.5z M1.5-100.5v10.8l10.7-10.8H1.5z
			 M1.5-1.5h10.8L1.5-12.2V-1.5z M100.5-1.5v-10.8L89.8-1.5H100.5z"/>
		<path fill="none" stroke="#FF9C80" stroke-miterlimit="10" d="M241.5-83.5V-71c0,0.3-0.2,0.5-0.5,0.5H141c-0.3,0-0.5-0.2-0.5-0.5
			v-12.4c0,0,0,0,0,0v-75c0,0,0,0,0,0V-171c0-0.3,0.2-0.5,0.5-0.5h87.5c0,0,0,0,0,0H241c0.3,0,0.5,0.2,0.5,0.5v12.4c0,0,0,0,0,0
			V-83.5C241.5-83.5,241.5-83.5,241.5-83.5z M228.3-71.5l12.2-12.2v-23.8h-12.2L217-96.3v24.8H228.3z M165-71.5v-24.8l-11.3-11.2
			h-12.2v23.9l12.2,12.2H165z M153.7-170.5l-12.2,12.2v23.8h12.3l11.2-11.2v-24.8H153.7z M217-170.5v24.8l11.2,11.2h12.3v-23.8
			l-12.2-12.2H217z M141.5-109.5H153v-23h-11.5V-109.5z M154-132.5v11h24v-11H154z M154-109.5h24v-11h-24V-109.5z M179-109.5h11.5
			v-23H179V-109.5z M191.5-109.5H203v-23h-11.5V-109.5z M228-109.5v-11h-24v11H228z M228-132.5h-24v11h24V-132.5z M226.8-134.5
			l-9.8-9.8v9.8H226.8z M215-145.5h-23.5v11H215V-145.5z M190.5-145.5H167v11h23.5V-145.5z M165-144.3l-9.8,9.8h9.8V-144.3z
			 M155.2-107.5l9.8,9.8v-9.8H155.2z M167-96.5h23.5v-11H167V-96.5z M191.5-96.5H215v-11h-23.5V-96.5z M217-97.8l9.8-9.8H217V-97.8z
			 M240.5-109.5v-23H229v23H240.5z M215-170.5h-23.5v24H215V-170.5z M190.5-170.5H167v24h23.5V-170.5z M167-71.5h23.5v-24H167V-71.5
			z M191.5-71.5H215v-24h-23.5V-71.5z M240.5-170.5h-10.8l10.8,10.7V-170.5z M141.5-170.5v10.8l10.7-10.8H141.5z M141.5-71.5h10.8
			l-10.8-10.7V-71.5z M240.5-71.5v-10.8l-10.7,10.8H240.5z"/>
		<path fill="none" stroke="#FF9C80" stroke-miterlimit="10" d="M171.5-83.5V-71c0,0.3-0.2,0.5-0.5,0.5H71c-0.3,0-0.5-0.2-0.5-0.5
			v-12.4c0,0,0,0,0,0v-75c0,0,0,0,0,0V-171c0-0.3,0.2-0.5,0.5-0.5h87.5c0,0,0,0,0,0H171c0.3,0,0.5,0.2,0.5,0.5v12.4c0,0,0,0,0,0
			V-83.5C171.5-83.5,171.5-83.5,171.5-83.5z M158.3-71.5l12.2-12.2v-23.8h-12.2L147-96.3v24.8H158.3z M95-71.5v-24.8l-11.3-11.2
			H71.5v23.9l12.2,12.2H95z M83.7-170.5l-12.2,12.2v23.8h12.3L95-145.7v-24.8H83.7z M147-170.5v24.8l11.2,11.2h12.3v-23.8
			l-12.2-12.2H147z M71.5-109.5H83v-23H71.5V-109.5z M84-132.5v11h24v-11H84z M84-109.5h24v-11H84V-109.5z M109-109.5h11.5v-23H109
			V-109.5z M121.5-109.5H133v-23h-11.5V-109.5z M158-109.5v-11h-24v11H158z M158-132.5h-24v11h24V-132.5z M156.8-134.5l-9.8-9.8v9.8
			H156.8z M145-145.5h-23.5v11H145V-145.5z M120.5-145.5H97v11h23.5V-145.5z M95-144.3l-9.8,9.8H95V-144.3z M85.2-107.5l9.8,9.8
			v-9.8H85.2z M97-96.5h23.5v-11H97V-96.5z M121.5-96.5H145v-11h-23.5V-96.5z M147-97.8l9.8-9.8H147V-97.8z M170.5-109.5v-23H159v23
			H170.5z M145-170.5h-23.5v24H145V-170.5z M120.5-170.5H97v24h23.5V-170.5z M97-71.5h23.5v-24H97V-71.5z M121.5-71.5H145v-24h-23.5
			V-71.5z M170.5-170.5h-10.8l10.8,10.7V-170.5z M71.5-170.5v10.8l10.7-10.8H71.5z M71.5-71.5h10.8L71.5-82.2V-71.5z M170.5-71.5
			v-10.8l-10.7,10.8H170.5z"/>
		<path fill="none" stroke="#FF9C80" stroke-miterlimit="10" d="M101.5-83.5V-71c0,0.3-0.2,0.5-0.5,0.5H1c-0.3,0-0.5-0.2-0.5-0.5
			v-12.4c0,0,0,0,0,0v-75c0,0,0,0,0,0V-171c0-0.3,0.2-0.5,0.5-0.5h87.5c0,0,0,0,0,0H101c0.3,0,0.5,0.2,0.5,0.5v12.4c0,0,0,0,0,0
			V-83.5C101.5-83.5,101.5-83.5,101.5-83.5z M88.3-71.5l12.2-12.2v-23.8H88.3L77-96.3v24.8H88.3z M25-71.5v-24.8l-11.3-11.2H1.5
			v23.9l12.2,12.2H25z M13.7-170.5L1.5-158.3v23.8h12.3L25-145.7v-24.8H13.7z M77-170.5v24.8l11.2,11.2h12.3v-23.8l-12.2-12.2H77z
			 M1.5-109.5H13v-23H1.5V-109.5z M14-132.5v11h24v-11H14z M14-109.5h24v-11H14V-109.5z M39-109.5h11.5v-23H39V-109.5z M51.5-109.5
			H63v-23H51.5V-109.5z M88-109.5v-11H64v11H88z M88-132.5H64v11h24V-132.5z M86.8-134.5l-9.8-9.8v9.8H86.8z M75-145.5H51.5v11H75
			V-145.5z M50.5-145.5H27v11h23.5V-145.5z M25-144.3l-9.8,9.8H25V-144.3z M15.2-107.5l9.8,9.8v-9.8H15.2z M27-96.5h23.5v-11H27
			V-96.5z M51.5-96.5H75v-11H51.5V-96.5z M77-97.8l9.8-9.8H77V-97.8z M100.5-109.5v-23H89v23H100.5z M75-170.5H51.5v24H75V-170.5z
			 M50.5-170.5H27v24h23.5V-170.5z M27-71.5h23.5v-24H27V-71.5z M51.5-71.5H75v-24H51.5V-71.5z M100.5-170.5H89.7l10.8,10.7V-170.5z
			 M1.5-170.5v10.8l10.7-10.8H1.5z M1.5-71.5h10.8L1.5-82.2V-71.5z M100.5-71.5v-10.8L89.8-71.5H100.5z"/>
		<path fill="none" stroke="#FF9C80" stroke-miterlimit="10" d="M241.5-153.5v12.5c0,0.3-0.2,0.5-0.5,0.5H141
			c-0.3,0-0.5-0.2-0.5-0.5v-12.4c0,0,0,0,0,0v-75c0,0,0,0,0,0V-241c0-0.3,0.2-0.5,0.5-0.5h87.5c0,0,0,0,0,0H241
			c0.3,0,0.5,0.2,0.5,0.5v12.4c0,0,0,0,0,0V-153.5C241.5-153.5,241.5-153.5,241.5-153.5z M228.3-141.5l12.2-12.2v-23.8h-12.2
			L217-166.3v24.8H228.3z M165-141.5v-24.8l-11.3-11.2h-12.2v23.9l12.2,12.2H165z M153.7-240.5l-12.2,12.2v23.8h12.3l11.2-11.2
			v-24.8H153.7z M217-240.5v24.8l11.2,11.2h12.3v-23.8l-12.2-12.2H217z M141.5-179.5H153v-23h-11.5V-179.5z M154-202.5v11h24v-11
			H154z M154-179.5h24v-11h-24V-179.5z M179-179.5h11.5v-23H179V-179.5z M191.5-179.5H203v-23h-11.5V-179.5z M228-179.5v-11h-24v11
			H228z M228-202.5h-24v11h24V-202.5z M226.8-204.5l-9.8-9.8v9.8H226.8z M215-215.5h-23.5v11H215V-215.5z M190.5-215.5H167v11h23.5
			V-215.5z M165-214.3l-9.8,9.8h9.8V-214.3z M155.2-177.5l9.8,9.8v-9.8H155.2z M167-166.5h23.5v-11H167V-166.5z M191.5-166.5H215
			v-11h-23.5V-166.5z M217-167.8l9.8-9.8H217V-167.8z M240.5-179.5v-23H229v23H240.5z M215-240.5h-23.5v24H215V-240.5z M190.5-240.5
			H167v24h23.5V-240.5z M167-141.5h23.5v-24H167V-141.5z M191.5-141.5H215v-24h-23.5V-141.5z M240.5-240.5h-10.8l10.8,10.7V-240.5z
			 M141.5-240.5v10.8l10.7-10.8H141.5z M141.5-141.5h10.8l-10.8-10.7V-141.5z M240.5-141.5v-10.8l-10.7,10.8H240.5z"/>
		<path fill="none" stroke="#FF9C80" stroke-miterlimit="10" d="M171.5-153.5v12.5c0,0.3-0.2,0.5-0.5,0.5H71c-0.3,0-0.5-0.2-0.5-0.5
			v-12.4c0,0,0,0,0,0v-75c0,0,0,0,0,0V-241c0-0.3,0.2-0.5,0.5-0.5h87.5c0,0,0,0,0,0H171c0.3,0,0.5,0.2,0.5,0.5v12.4c0,0,0,0,0,0
			V-153.5C171.5-153.5,171.5-153.5,171.5-153.5z M158.3-141.5l12.2-12.2v-23.8h-12.2L147-166.3v24.8H158.3z M95-141.5v-24.8
			l-11.3-11.2H71.5v23.9l12.2,12.2H95z M83.7-240.5l-12.2,12.2v23.8h12.3L95-215.7v-24.8H83.7z M147-240.5v24.8l11.2,11.2h12.3
			v-23.8l-12.2-12.2H147z M71.5-179.5H83v-23H71.5V-179.5z M84-202.5v11h24v-11H84z M84-179.5h24v-11H84V-179.5z M109-179.5h11.5
			v-23H109V-179.5z M121.5-179.5H133v-23h-11.5V-179.5z M158-179.5v-11h-24v11H158z M158-202.5h-24v11h24V-202.5z M156.8-204.5
			l-9.8-9.8v9.8H156.8z M145-215.5h-23.5v11H145V-215.5z M120.5-215.5H97v11h23.5V-215.5z M95-214.3l-9.8,9.8H95V-214.3z
			 M85.2-177.5l9.8,9.8v-9.8H85.2z M97-166.5h23.5v-11H97V-166.5z M121.5-166.5H145v-11h-23.5V-166.5z M147-167.8l9.8-9.8H147
			V-167.8z M170.5-179.5v-23H159v23H170.5z M145-240.5h-23.5v24H145V-240.5z M120.5-240.5H97v24h23.5V-240.5z M97-141.5h23.5v-24H97
			V-141.5z M121.5-141.5H145v-24h-23.5V-141.5z M170.5-240.5h-10.8l10.8,10.7V-240.5z M71.5-240.5v10.8l10.7-10.8H71.5z M71.5-141.5
			h10.8l-10.8-10.7V-141.5z M170.5-141.5v-10.8l-10.7,10.8H170.5z"/>
		<path fill="none" stroke="#FF9C80" stroke-miterlimit="10" d="M101.5-153.5v12.5c0,0.3-0.2,0.5-0.5,0.5H1c-0.3,0-0.5-0.2-0.5-0.5
			v-12.4c0,0,0,0,0,0v-75c0,0,0,0,0,0V-241c0-0.3,0.2-0.5,0.5-0.5h87.5c0,0,0,0,0,0H101c0.3,0,0.5,0.2,0.5,0.5v12.4c0,0,0,0,0,0
			V-153.5C101.5-153.5,101.5-153.5,101.5-153.5z M88.3-141.5l12.2-12.2v-23.8H88.3L77-166.3v24.8H88.3z M25-141.5v-24.8l-11.3-11.2
			H1.5v23.9l12.2,12.2H25z M13.7-240.5L1.5-228.3v23.8h12.3L25-215.7v-24.8H13.7z M77-240.5v24.8l11.2,11.2h12.3v-23.8l-12.2-12.2
			H77z M1.5-179.5H13v-23H1.5V-179.5z M14-202.5v11h24v-11H14z M14-179.5h24v-11H14V-179.5z M39-179.5h11.5v-23H39V-179.5z
			 M51.5-179.5H63v-23H51.5V-179.5z M88-179.5v-11H64v11H88z M88-202.5H64v11h24V-202.5z M86.8-204.5l-9.8-9.8v9.8H86.8z M75-215.5
			H51.5v11H75V-215.5z M50.5-215.5H27v11h23.5V-215.5z M25-214.3l-9.8,9.8H25V-214.3z M15.2-177.5l9.8,9.8v-9.8H15.2z M27-166.5
			h23.5v-11H27V-166.5z M51.5-166.5H75v-11H51.5V-166.5z M77-167.8l9.8-9.8H77V-167.8z M100.5-179.5v-23H89v23H100.5z M75-240.5
			H51.5v24H75V-240.5z M50.5-240.5H27v24h23.5V-240.5z M27-141.5h23.5v-24H27V-141.5z M51.5-141.5H75v-24H51.5V-141.5z M100.5-240.5
			H89.7l10.8,10.7V-240.5z M1.5-240.5v10.8l10.7-10.8H1.5z M1.5-141.5h10.8L1.5-152.2V-141.5z M100.5-141.5v-10.8l-10.7,10.8H100.5z
			"/>
	</g>
</pattern>
<pattern  x="-750" y="-464.6" width="59" height="59" patternUnits="userSpaceOnUse" id="KoreanPattern" viewBox="0 -59 59 59" overflow="visible">
	<g>
		<rect y="-59" fill="none" width="59" height="59"/>
		<g>
			<path fill="none" stroke="#C0618C" stroke-miterlimit="10" d="M40-4.7L54.3-19c0.1-0.1,0.2-0.3,0.2-0.4v-20.2
				c0-0.2-0.1-0.3-0.2-0.4L40-54.3c-0.1-0.1-0.3-0.2-0.4-0.2H19.4c-0.2,0-0.3,0.1-0.4,0.2L4.7-40c-0.1,0.1-0.2,0.3-0.2,0.4v20.2
				c0,0.2,0.1,0.3,0.2,0.4L19-4.7c0.1,0.1,0.3,0.2,0.4,0.2h20.2C39.7-4.5,39.9-4.6,40-4.7z M5.7-19.6v-19.7l13.9-13.9h19.7
				l13.9,13.9v19.7L39.4-5.7H19.6L5.7-19.6z"/>
			<path fill="none" stroke="#C0618C" stroke-miterlimit="10" d="M38.6-7.8l12.6-12.6c0.1-0.1,0.1-0.1,0.1-0.2v-17.8
				c0-0.1,0-0.1-0.1-0.2L38.6-51.2c-0.1-0.1-0.1-0.1-0.2-0.1H20.6c-0.1,0-0.1,0-0.2,0.1L7.8-38.6c-0.1,0.1-0.1,0.1-0.1,0.2v17.8
				c0,0.1,0,0.1,0.1,0.2L20.4-7.8c0.1,0.1,0.1,0.1,0.2,0.1h17.8C38.5-7.7,38.6-7.7,38.6-7.8z M8.3-20.7v-17.6l12.4-12.4h17.6
				l12.4,12.4v17.6L38.3-8.3H20.7L8.3-20.7z"/>
			<g>
				<path fill="none" stroke="#C0618C" stroke-miterlimit="10" d="M35.4-29.5c0-3.2-2.6-5.9-5.9-5.9s-5.9,2.6-5.9,5.9
					c0,3.2,2.6,5.9,5.9,5.9S35.4-26.3,35.4-29.5z M34.8-29.5c0,2.9-2.4,5.3-5.3,5.3s-5.3-2.4-5.3-5.3s2.4-5.3,5.3-5.3
					S34.8-32.4,34.8-29.5z"/>
				<path fill="none" stroke="#C0618C" stroke-miterlimit="10" d="M33.4-29.5c0-2.2-1.8-3.9-3.9-3.9s-3.9,1.8-3.9,3.9
					s1.8,3.9,3.9,3.9S33.4-27.3,33.4-29.5z M32.8-29.5c0,1.8-1.5,3.3-3.3,3.3c-1.8,0-3.3-1.5-3.3-3.3c0-1.8,1.5-3.3,3.3-3.3
					C31.3-32.8,32.8-31.3,32.8-29.5z"/>
				<path fill="none" stroke="#C0618C" stroke-miterlimit="10" d="M33.4-33.4c2.6-1.4,4.2-4.1,4.2-7.1c0-4.4-3.6-8-8-8s-8,3.6-8,8
					c0,2.9,1.6,5.6,4.2,7.1c0.1,0.1,0.2,0,0.3,0c1-0.9,2.2-1.4,3.5-1.4s2.6,0.5,3.5,1.4c0.1,0,0.1,0.1,0.2,0.1
					C33.3-33.4,33.3-33.4,33.4-33.4z M25.7-34c-2.3-1.3-3.7-3.8-3.7-6.5c0-4.1,3.3-7.5,7.5-7.5s7.5,3.3,7.5,7.5
					c0,2.7-1.4,5.1-3.7,6.5c-1.1-0.9-2.4-1.4-3.8-1.4C28.1-35.4,26.8-34.9,25.7-34z"/>
				<path fill="none" stroke="#C0618C" stroke-miterlimit="10" d="M24-29.5c0.1,0,0.2-0.1,0.2-0.3c0.1-1.3,0.6-2.5,1.5-3.4
					c0.9-0.9,2.1-1.5,3.4-1.5c0.1,0,0.2-0.1,0.3-0.2c0.8-2.8,0-5.9-2-8c-3.1-3.1-8.2-3.1-11.4,0c-3.1,3.1-3.1,8.2,0,11.4
					c1.5,1.5,3.6,2.4,5.7,2.4C22.5-29.2,23.3-29.3,24-29.5z M27-42.5c1.9,1.9,2.6,4.6,1.9,7.2c-1.4,0.1-2.6,0.7-3.6,1.7
					c-1,1-1.6,2.2-1.7,3.6c-2.6,0.7-5.3-0.1-7.2-1.9c-2.9-2.9-2.9-7.6,0-10.6c1.5-1.5,3.4-2.2,5.3-2.2C23.7-44.7,25.6-44,27-42.5z
					 M29.2-35.1L29.2-35.1L29.2-35.1z"/>
				<path fill="none" stroke="#C0618C" stroke-miterlimit="10" d="M25.6-25.6c0.1-0.1,0-0.2,0-0.3c-0.9-1-1.4-2.2-1.4-3.5
					s0.5-2.6,1.4-3.5c0.1-0.1,0.1-0.2,0-0.3c-1.4-2.6-4.1-4.2-7.1-4.2c-4.4,0-8,3.6-8,8s3.6,8,8,8C21.5-21.5,24.2-23.1,25.6-25.6z
					 M25-33.3c-0.9,1.1-1.4,2.4-1.4,3.8c0,1.4,0.5,2.7,1.4,3.8c-1.3,2.3-3.8,3.7-6.5,3.7c-4.1,0-7.5-3.3-7.5-7.5s3.3-7.5,7.5-7.5
					C21.2-37,23.7-35.5,25-33.3z"/>
				<path fill="none" stroke="#C0618C" stroke-miterlimit="10" d="M27.4-16.1c2.1-2.1,2.9-5.1,2-8c0-0.1-0.1-0.2-0.3-0.2
					c-1.3-0.1-2.5-0.6-3.4-1.5c-0.9-0.9-1.5-2.1-1.5-3.4c0-0.1-0.1-0.2-0.2-0.3c-2.8-0.8-5.9-0.1-8,2c-3.1,3.1-3.1,8.2,0,11.4
					c1.6,1.6,3.6,2.4,5.7,2.4C23.8-13.7,25.9-14.5,27.4-16.1z M23.7-29c0.1,1.4,0.7,2.6,1.7,3.6c1,1,2.2,1.6,3.6,1.7
					c0.7,2.6-0.1,5.3-1.9,7.2c-2.9,2.9-7.6,2.9-10.6,0c-2.9-2.9-2.9-7.6,0-10.6c1.4-1.4,3.3-2.2,5.3-2.2C22.4-29.2,23-29.1,23.7-29z
					"/>
				<path fill="none" stroke="#C0618C" stroke-miterlimit="10" d="M37.5-18.6c0-2.9-1.6-5.6-4.2-7.1c-0.1-0.1-0.2,0-0.3,0
					c-1,0.9-2.2,1.4-3.5,1.4c-1.3,0-2.6-0.5-3.5-1.4c-0.1-0.1-0.2-0.1-0.3,0c-2.6,1.4-4.2,4.1-4.2,7.1c0,4.4,3.6,8,8,8
					S37.5-14.1,37.5-18.6z M29.5-23.6c1.4,0,2.7-0.5,3.8-1.4c2.3,1.3,3.7,3.8,3.7,6.5c0,4.1-3.3,7.5-7.5,7.5S22-14.4,22-18.6
					c0-2.7,1.4-5.1,3.7-6.5C26.8-24.1,28.1-23.6,29.5-23.6z"/>
				<path fill="none" stroke="#C0618C" stroke-miterlimit="10" d="M42.9-16.1c3.1-3.1,3.1-8.2,0-11.4c-2.1-2.1-5.1-2.9-8-2
					c-0.1,0-0.2,0.1-0.2,0.3c-0.1,1.3-0.6,2.5-1.5,3.4c-0.9,0.9-2.1,1.5-3.4,1.5c-0.1,0-0.2,0.1-0.3,0.2c-0.8,2.8,0,5.9,2,8
					c1.6,1.6,3.6,2.4,5.7,2.4C39.3-13.7,41.4-14.5,42.9-16.1z M33.6-25.4c1-1,1.6-2.2,1.7-3.6c2.6-0.7,5.3,0.1,7.2,1.9
					c2.9,2.9,2.9,7.6,0,10.6c-2.9,2.9-7.6,2.9-10.6,0c-1.9-1.9-2.6-4.6-1.9-7.2C31.4-23.8,32.7-24.4,33.6-25.4z"/>
				<path fill="none" stroke="#C0618C" stroke-miterlimit="10" d="M48.5-29.5c0-4.4-3.6-8-8-8c-2.9,0-5.6,1.6-7.1,4.2
					c-0.1,0.1,0,0.2,0,0.3c0.9,1,1.4,2.2,1.4,3.5s-0.5,2.6-1.4,3.5c-0.1,0.1-0.1,0.2,0,0.3c1.4,2.6,4.1,4.2,7.1,4.2
					C44.9-21.5,48.5-25.1,48.5-29.5z M35.4-29.5c0-1.4-0.5-2.7-1.4-3.8c1.3-2.3,3.8-3.7,6.5-3.7c4.1,0,7.5,3.3,7.5,7.5
					S44.6-22,40.4-22c-2.7,0-5.1-1.4-6.5-3.7C34.9-26.8,35.4-28.1,35.4-29.5z"/>
				<path fill="none" stroke="#C0618C" stroke-miterlimit="10" d="M42.9-31.6c3.1-3.1,3.1-8.2,0-11.4c-3.1-3.1-8.2-3.1-11.4,0
					c-2.1,2.1-2.9,5.1-2,8c0,0.1,0.1,0.2,0.3,0.2c1.3,0.1,2.5,0.6,3.4,1.5c0.9,0.9,1.5,2.1,1.5,3.4c0,0.1,0.1,0.2,0.2,0.3
					c0.7,0.2,1.5,0.3,2.3,0.3C39.3-29.2,41.4-30,42.9-31.6z M33.6-33.6c-1-1-2.2-1.6-3.6-1.7c-0.7-2.6,0.1-5.3,1.9-7.2
					c2.9-2.9,7.6-2.9,10.6,0c2.9,2.9,2.9,7.6,0,10.6c-1.9,1.9-4.6,2.6-7.2,1.9C35.2-31.4,34.6-32.7,33.6-33.6z"/>
			</g>
			<path fill="none" stroke="#C0618C" stroke-miterlimit="10" d="M58.2-7c-0.2,0-0.3-0.1-0.3-0.3v-44.5c0-0.2,0.1-0.3,0.3-0.3
				s0.3,0.1,0.3,0.3v44.5C58.5-7.1,58.4-7,58.2-7z"/>
			<path fill="none" stroke="#C0618C" stroke-miterlimit="10" d="M51.8-57.9H7.2c-0.2,0-0.3-0.1-0.3-0.3s0.1-0.3,0.3-0.3h44.5
				c0.2,0,0.3,0.1,0.3,0.3S51.9-57.9,51.8-57.9z"/>
			<path fill="none" stroke="#C0618C" stroke-miterlimit="10" d="M0.8-7C0.6-7,0.5-7.1,0.5-7.2v-44.5c0-0.2,0.1-0.3,0.3-0.3
				s0.3,0.1,0.3,0.3v44.5C1.1-7.1,0.9-7,0.8-7z"/>
			<path fill="none" stroke="#C0618C" stroke-miterlimit="10" d="M51.8-0.5H7.2C7.1-0.5,7-0.6,7-0.8s0.1-0.3,0.3-0.3h44.5
				c0.2,0,0.3,0.1,0.3,0.3S51.9-0.5,51.8-0.5z"/>
			<path fill="none" stroke="#C0618C" stroke-miterlimit="10" d="M56.8-0.8c0-0.8,0.6-1.4,1.4-1.4c0.2,0,0.3-0.1,0.3-0.3
				c0-0.2-0.1-0.3-0.3-0.3c-1.1,0-2,0.9-2,2c0,0.2,0.1,0.3,0.3,0.3C56.7-0.5,56.8-0.6,56.8-0.8z M52-0.8c0-1.4,1.1-2.5,2.5-2.5h0.9
				c0.2,0,0.3-0.1,0.3-0.3v-0.9c0-1.4,1.1-2.5,2.5-2.5c0.2,0,0.3-0.1,0.3-0.3s-0.1-0.3-0.3-0.3c-1.7,0-3.1,1.4-3.1,3.1v0.6h-0.6
				c-1.7,0-3.1,1.4-3.1,3.1c0,0.2,0.1,0.3,0.3,0.3C51.9-0.5,52-0.6,52-0.8z"/>
			<path fill="none" stroke="#C0618C" stroke-miterlimit="10" d="M58.5-51.8c0-0.2-0.1-0.3-0.3-0.3c-1.4,0-2.5-1.1-2.5-2.5v-0.9
				c0-0.2-0.1-0.3-0.3-0.3h-0.9c-1.4,0-2.5-1.1-2.5-2.5c0-0.2-0.1-0.3-0.3-0.3c-0.2,0-0.3,0.1-0.3,0.3c0,1.7,1.4,3.1,3.1,3.1h0.6
				v0.6c0,1.7,1.4,3.1,3.1,3.1C58.4-51.5,58.5-51.6,58.5-51.8z M58.5-56.5c0-0.2-0.1-0.3-0.3-0.3c-0.8,0-1.4-0.6-1.4-1.4
				c0-0.2-0.1-0.3-0.3-0.3c-0.2,0-0.3,0.1-0.3,0.3c0,1.1,0.9,2,2,2C58.4-56.2,58.5-56.4,58.5-56.5z"/>
			<path fill="none" stroke="#C0618C" stroke-miterlimit="10" d="M3.8-54.5v-0.6h0.6c1.7,0,3.1-1.4,3.1-3.1c0-0.2-0.1-0.3-0.3-0.3
				S7-58.4,7-58.2c0,1.4-1.1,2.5-2.5,2.5H3.6c-0.2,0-0.3,0.1-0.3,0.3v0.9c0,1.4-1.1,2.5-2.5,2.5c-0.2,0-0.3,0.1-0.3,0.3
				c0,0.2,0.1,0.3,0.3,0.3C2.5-51.5,3.8-52.8,3.8-54.5z M2.8-58.2c0-0.2-0.1-0.3-0.3-0.3c-0.2,0-0.3,0.1-0.3,0.3
				c0,0.8-0.6,1.4-1.4,1.4c-0.2,0-0.3,0.1-0.3,0.3c0,0.2,0.1,0.3,0.3,0.3C1.9-56.2,2.8-57.1,2.8-58.2z"/>
			<path fill="none" stroke="#C0618C" stroke-miterlimit="10" d="M7.5-0.8c0-1.7-1.4-3.1-3.1-3.1H3.8v-0.6c0-1.7-1.4-3.1-3.1-3.1
				c-0.2,0-0.3,0.1-0.3,0.3S0.6-7,0.8-7c1.4,0,2.5,1.1,2.5,2.5v0.9c0,0.2,0.1,0.3,0.3,0.3h0.9C5.8-3.3,7-2.2,7-0.8
				c0,0.2,0.1,0.3,0.3,0.3S7.5-0.6,7.5-0.8z M2.8-0.8c0-1.1-0.9-2-2-2c-0.2,0-0.3,0.1-0.3,0.3c0,0.2,0.1,0.3,0.3,0.3
				c0.8,0,1.4,0.6,1.4,1.4c0,0.2,0.1,0.3,0.3,0.3C2.6-0.5,2.8-0.6,2.8-0.8z"/>
			<path fill="none" stroke="#C0618C" stroke-miterlimit="10" d="M5.1-39.3H0.8c-0.2,0-0.3-0.1-0.3-0.3c0-0.2,0.1-0.3,0.3-0.3h4.3
				c0.2,0,0.3,0.1,0.3,0.3C5.4-39.4,5.3-39.3,5.1-39.3z"/>
			<path fill="none" stroke="#C0618C" stroke-miterlimit="10" d="M5.1-19.1H0.8c-0.2,0-0.3-0.1-0.3-0.3c0-0.2,0.1-0.3,0.3-0.3h4.3
				c0.2,0,0.3,0.1,0.3,0.3C5.4-19.2,5.3-19.1,5.1-19.1z"/>
			<path fill="none" stroke="#C0618C" stroke-miterlimit="10" d="M19.4-0.5c-0.2,0-0.3-0.1-0.3-0.3v-4.3c0-0.2,0.1-0.3,0.3-0.3
				c0.2,0,0.3,0.1,0.3,0.3v4.3C19.7-0.6,19.6-0.5,19.4-0.5z"/>
			<path fill="none" stroke="#C0618C" stroke-miterlimit="10" d="M39.6-0.5c-0.2,0-0.3-0.1-0.3-0.3v-4.3c0-0.2,0.1-0.3,0.3-0.3
				s0.3,0.1,0.3,0.3v4.3C39.9-0.6,39.8-0.5,39.6-0.5z"/>
			<path fill="none" stroke="#C0618C" stroke-miterlimit="10" d="M58.2-19.1h-4.3c-0.2,0-0.3-0.1-0.3-0.3c0-0.2,0.1-0.3,0.3-0.3h4.3
				c0.2,0,0.3,0.1,0.3,0.3C58.5-19.2,58.4-19.1,58.2-19.1z"/>
			<path fill="none" stroke="#C0618C" stroke-miterlimit="10" d="M58.2-39.3h-4.3c-0.2,0-0.3-0.1-0.3-0.3c0-0.2,0.1-0.3,0.3-0.3h4.3
				c0.2,0,0.3,0.1,0.3,0.3C58.5-39.4,58.4-39.3,58.2-39.3z"/>
			<path fill="none" stroke="#C0618C" stroke-miterlimit="10" d="M39.6-53.6c-0.2,0-0.3-0.1-0.3-0.3v-4.3c0-0.2,0.1-0.3,0.3-0.3
				s0.3,0.1,0.3,0.3v4.3C39.9-53.7,39.8-53.6,39.6-53.6z"/>
			<path fill="none" stroke="#C0618C" stroke-miterlimit="10" d="M19.4-53.6c-0.2,0-0.3-0.1-0.3-0.3v-4.3c0-0.2,0.1-0.3,0.3-0.3
				c0.2,0,0.3,0.1,0.3,0.3v4.3C19.7-53.7,19.6-53.6,19.4-53.6z"/>
			<path fill="none" stroke="#C0618C" stroke-miterlimit="10" d="M29.5-53.6c-0.2,0-0.3-0.1-0.3-0.3v-4.3c0-0.2,0.1-0.3,0.3-0.3
				c0.2,0,0.3,0.1,0.3,0.3v4.3C29.8-53.7,29.6-53.6,29.5-53.6z"/>
			<path fill="none" stroke="#C0618C" stroke-miterlimit="10" d="M5.1-29.2H0.8c-0.2,0-0.3-0.1-0.3-0.3c0-0.2,0.1-0.3,0.3-0.3h4.3
				c0.2,0,0.3,0.1,0.3,0.3C5.4-29.3,5.3-29.2,5.1-29.2z"/>
			<path fill="none" stroke="#C0618C" stroke-miterlimit="10" d="M29.5-0.5c-0.2,0-0.3-0.1-0.3-0.3v-4.3c0-0.2,0.1-0.3,0.3-0.3
				c0.2,0,0.3,0.1,0.3,0.3v4.3C29.8-0.6,29.7-0.5,29.5-0.5z"/>
			<path fill="none" stroke="#C0618C" stroke-miterlimit="10" d="M58.2-29.2h-4.3c-0.2,0-0.3-0.1-0.3-0.3c0-0.2,0.1-0.3,0.3-0.3h4.3
				c0.2,0,0.3,0.1,0.3,0.3C58.5-29.4,58.4-29.2,58.2-29.2z"/>
		</g>
	</g>
</pattern>
<pattern  x="-750" y="-464.6" width="70" height="70" patternUnits="userSpaceOnUse" id="KoreanPattern_2" viewBox="85.5 -155.5 70 70" overflow="visible">
	<g>
		<rect x="85.5" y="-155.5" fill="none" width="70" height="70"/>
		<path fill="#4A8DCB" d="M241-100.5v100c0,0.3-0.2,0.5-0.5,0.5h-100c-0.3,0-0.5-0.2-0.5-0.5v-100c0-0.3,0.2-0.5,0.5-0.5h100
			C240.8-101,241-100.8,241-100.5z M226-1l3.9-3.9v-5.5l-9-9L208.8-7.3c-0.2,0.2-0.4,0.3-0.7,0.3h-35.2c-0.3,0-0.5-0.1-0.7-0.3
			l-12.1-12.1l-9,9v5.5L155-1H226z M141-15l3.9,3.9h5.5l9-9l-12.1-12.1c-0.2-0.2-0.3-0.4-0.3-0.7v-35.2c0-0.3,0.1-0.5,0.3-0.7
			l12.1-12.1l-9-9h-5.5L141-86V-15z M155-100l-3.9,3.9v5.5l9,9l12.1-12.1c0.2-0.2,0.4-0.3,0.7-0.3h35.2c0.3,0,0.5,0.1,0.7,0.3
			l12.1,12.1l9-9v-5.5L226-100H155z M178.2-80.8c-0.1,4.7-2,9-5.1,12.2l5.1,5.1h8.5h7.6h8.5l5.1-5.1c-3-3.2-4.9-7.5-5.1-12.2H178.2z
			 M220.8-62.8c-4.7-0.1-9-2-12.2-5.1l-5.1,5.1v8.5v7.6v8.5l5.1,5.1c3.2-3,7.5-4.9,12.2-5.1V-62.8z M207.9-32.4l-5.1-5.1h-8.5h-7.6
			h-8.5l-5.1,5.1c3,3.2,4.9,7.5,5.1,12.2h24.6C202.9-24.9,204.8-29.2,207.9-32.4z M160.2-38.2c4.7,0.1,9,2,12.2,5.1l5.1-5.1v-8.5
			v-7.6v-8.5l-5.1-5.1c-3.2,3-7.5,4.9-12.2,5.1v12.3c0,0,0,0,0,0c0,0,0,0,0,0V-38.2z M178.5-53.8v6.6h8.2c0.3,0,0.5,0.2,0.5,0.5v8.2
			h6.6v-8.2c0-0.3,0.2-0.5,0.5-0.5h8.2v-6.6h-8.2c-0.3,0-0.5-0.2-0.5-0.5v-8.2h-6.6v8.2c0,0.3-0.2,0.5-0.5,0.5H178.5z M186.2-54.8
			v-7.7h-7.7v7.7H186.2z M202.5-62.5h-7.7v7.7h7.7V-62.5z M194.8-46.2v7.7h7.7v-7.7H194.8z M178.5-38.5h7.7v-7.7h-7.7V-38.5z
			 M190-81.8v-10.1h-16.7l-11.8,11.8l10.9,10.9c3-3.1,4.8-7.4,4.8-12c0-0.3,0.2-0.5,0.5-0.5H190z M160.8-79.5l-11.8,11.8V-51h10.1
			v-12.3c0-0.3,0.2-0.5,0.5-0.5c4.7,0,8.9-1.8,12-4.8L160.8-79.5z M149.1-33.3l11.8,11.8l10.9-10.9c-3.1-3-7.4-4.8-12-4.8
			c-0.3,0-0.5-0.2-0.5-0.5V-50h-10.1V-33.3z M161.5-20.8l11.8,11.8H190v-10.1h-12.3c-0.3,0-0.5-0.2-0.5-0.5c0-4.7-1.8-8.9-4.8-12
			L161.5-20.8z M191-9.1h16.7l11.8-11.8l-10.9-10.9c-3,3.1-4.8,7.4-4.8,12c0,0.3-0.2,0.5-0.5,0.5H191V-9.1z M220.2-21.5l11.8-11.8
			V-50h-10.1v12.3c0,0.3-0.2,0.5-0.5,0.5c-4.7,0-8.9,1.8-12,4.8L220.2-21.5z M231.9-67.7l-11.8-11.8l-10.9,10.9
			c3.1,3,7.4,4.8,12,4.8c0.3,0,0.5,0.2,0.5,0.5V-51h10.1V-67.7z M219.5-80.2l-11.8-11.8H191v10.1h12.3c0.3,0,0.5,0.2,0.5,0.5
			c0,4.7,1.8,8.9,4.8,12L219.5-80.2z M236.1-11.1L240-15v-71l-3.9-3.9h-5.5l-9,9l12.1,12.1c0.2,0.2,0.3,0.4,0.3,0.7v35.2
			c0,0.3-0.1,0.5-0.3,0.7l-12.1,12.1l9,9H236.1z M240-100h-12.6l3.3,3.3c0.1,0.1,0.1,0.2,0.1,0.4v5.4h5.4c0.1,0,0.3,0.1,0.4,0.1
			l3.3,3.3V-100z M141-100v12.6l3.3-3.3c0.1-0.1,0.2-0.1,0.4-0.1h5.4v-5.4c0-0.1,0.1-0.3,0.1-0.4l3.3-3.3H141z M141-1h12.6l-3.3-3.3
			c-0.1-0.1-0.1-0.2-0.1-0.4v-5.4h-5.4c-0.1,0-0.3-0.1-0.4-0.1l-3.3-3.3V-1z M240-1v-12.6l-3.3,3.3c-0.1,0.1-0.2,0.1-0.4,0.1h-5.4
			v5.4c0,0.1-0.1,0.3-0.1,0.4L227.4-1H240z"/>
		<path fill="#4A8DCB" d="M171-100.5v100c0,0.3-0.2,0.5-0.5,0.5h-100C70.2,0,70-0.2,70-0.5v-100c0-0.3,0.2-0.5,0.5-0.5h100
			C170.8-101,171-100.8,171-100.5z M156-1l3.9-3.9v-5.5l-9-9L138.8-7.3c-0.2,0.2-0.4,0.3-0.7,0.3h-35.2c-0.3,0-0.5-0.1-0.7-0.3
			L90.1-19.4l-9,9v5.5L85-1H156z M71-15l3.9,3.9h5.5l9-9L77.3-32.2c-0.2-0.2-0.3-0.4-0.3-0.7v-35.2c0-0.3,0.1-0.5,0.3-0.7l12.1-12.1
			l-9-9h-5.5L71-86V-15z M85-100l-3.9,3.9v5.5l9,9l12.1-12.1c0.2-0.2,0.4-0.3,0.7-0.3h35.2c0.3,0,0.5,0.1,0.7,0.3l12.1,12.1l9-9
			v-5.5L156-100H85z M108.2-80.8c-0.1,4.7-2,9-5.1,12.2l5.1,5.1h8.5h7.6h8.5l5.1-5.1c-3-3.2-4.9-7.5-5.1-12.2H108.2z M150.8-62.8
			c-4.7-0.1-9-2-12.2-5.1l-5.1,5.1v8.5v7.6v8.5l5.1,5.1c3.2-3,7.5-4.9,12.2-5.1V-62.8z M137.9-32.4l-5.1-5.1h-8.5h-7.6h-8.5
			l-5.1,5.1c3,3.2,4.9,7.5,5.1,12.2h24.6C132.9-24.9,134.8-29.2,137.9-32.4z M90.2-38.2c4.7,0.1,9,2,12.2,5.1l5.1-5.1v-8.5v-7.6
			v-8.5l-5.1-5.1c-3.2,3-7.5,4.9-12.2,5.1v12.3c0,0,0,0,0,0c0,0,0,0,0,0V-38.2z M108.5-53.8v6.6h8.2c0.3,0,0.5,0.2,0.5,0.5v8.2h6.6
			v-8.2c0-0.3,0.2-0.5,0.5-0.5h8.2v-6.6h-8.2c-0.3,0-0.5-0.2-0.5-0.5v-8.2h-6.6v8.2c0,0.3-0.2,0.5-0.5,0.5H108.5z M116.2-54.8v-7.7
			h-7.7v7.7H116.2z M132.5-62.5h-7.7v7.7h7.7V-62.5z M124.8-46.2v7.7h7.7v-7.7H124.8z M108.5-38.5h7.7v-7.7h-7.7V-38.5z M120-81.8
			v-10.1h-16.7L91.5-80.2l10.9,10.9c3-3.1,4.8-7.4,4.8-12c0-0.3,0.2-0.5,0.5-0.5H120z M90.8-79.5L79.1-67.7V-51h10.1v-12.3
			c0-0.3,0.2-0.5,0.5-0.5c4.7,0,8.9-1.8,12-4.8L90.8-79.5z M79.1-33.3l11.8,11.8l10.9-10.9c-3.1-3-7.4-4.8-12-4.8
			c-0.3,0-0.5-0.2-0.5-0.5V-50H79.1V-33.3z M91.5-20.8l11.8,11.8H120v-10.1h-12.3c-0.3,0-0.5-0.2-0.5-0.5c0-4.7-1.8-8.9-4.8-12
			L91.5-20.8z M121-9.1h16.7l11.8-11.8l-10.9-10.9c-3,3.1-4.8,7.4-4.8,12c0,0.3-0.2,0.5-0.5,0.5H121V-9.1z M150.2-21.5l11.8-11.8
			V-50h-10.1v12.3c0,0.3-0.2,0.5-0.5,0.5c-4.7,0-8.9,1.8-12,4.8L150.2-21.5z M161.9-67.7l-11.8-11.8l-10.9,10.9
			c3.1,3,7.4,4.8,12,4.8c0.3,0,0.5,0.2,0.5,0.5V-51h10.1V-67.7z M149.5-80.2l-11.8-11.8H121v10.1h12.3c0.3,0,0.5,0.2,0.5,0.5
			c0,4.7,1.8,8.9,4.8,12L149.5-80.2z M166.1-11.1L170-15v-71l-3.9-3.9h-5.5l-9,9l12.1,12.1c0.2,0.2,0.3,0.4,0.3,0.7v35.2
			c0,0.3-0.1,0.5-0.3,0.7l-12.1,12.1l9,9H166.1z M170-100h-12.6l3.3,3.3c0.1,0.1,0.1,0.2,0.1,0.4v5.4h5.4c0.1,0,0.3,0.1,0.4,0.1
			l3.3,3.3V-100z M71-100v12.6l3.3-3.3c0.1-0.1,0.2-0.1,0.4-0.1h5.4v-5.4c0-0.1,0.1-0.3,0.1-0.4l3.3-3.3H71z M71-1h12.6l-3.3-3.3
			c-0.1-0.1-0.1-0.2-0.1-0.4v-5.4h-5.4c-0.1,0-0.3-0.1-0.4-0.1L71-13.6V-1z M170-1v-12.6l-3.3,3.3c-0.1,0.1-0.2,0.1-0.4,0.1h-5.4
			v5.4c0,0.1-0.1,0.3-0.1,0.4L157.4-1H170z"/>
		<path fill="#4A8DCB" d="M101-100.5v100c0,0.3-0.2,0.5-0.5,0.5H0.5C0.2,0,0-0.2,0-0.5v-100c0-0.3,0.2-0.5,0.5-0.5h100
			C100.8-101,101-100.8,101-100.5z M86-1l3.9-3.9v-5.5l-9-9L68.8-7.3c-0.2,0.2-0.4,0.3-0.7,0.3H32.9c-0.3,0-0.5-0.1-0.7-0.3
			L20.1-19.4l-9,9v5.5L15-1H86z M1-15l3.9,3.9h5.5l9-9L7.3-32.2c-0.2-0.2-0.3-0.4-0.3-0.7v-35.2c0-0.3,0.1-0.5,0.3-0.7l12.1-12.1
			l-9-9H4.9L1-86V-15z M15-100l-3.9,3.9v5.5l9,9l12.1-12.1c0.2-0.2,0.4-0.3,0.7-0.3h35.2c0.3,0,0.5,0.1,0.7,0.3l12.1,12.1l9-9v-5.5
			L86-100H15z M38.2-80.8c-0.1,4.7-2,9-5.1,12.2l5.1,5.1h8.5h7.6h8.5l5.1-5.1c-3-3.2-4.9-7.5-5.1-12.2H38.2z M80.8-62.8
			c-4.7-0.1-9-2-12.2-5.1l-5.1,5.1v8.5v7.6v8.5l5.1,5.1c3.2-3,7.5-4.9,12.2-5.1V-62.8z M67.9-32.4l-5.1-5.1h-8.5h-7.6h-8.5l-5.1,5.1
			c3,3.2,4.9,7.5,5.1,12.2h24.6C62.9-24.9,64.8-29.2,67.9-32.4z M20.2-38.2c4.7,0.1,9,2,12.2,5.1l5.1-5.1v-8.5v-7.6v-8.5l-5.1-5.1
			c-3.2,3-7.5,4.9-12.2,5.1v12.3c0,0,0,0,0,0c0,0,0,0,0,0V-38.2z M38.5-53.8v6.6h8.2c0.3,0,0.5,0.2,0.5,0.5v8.2h6.6v-8.2
			c0-0.3,0.2-0.5,0.5-0.5h8.2v-6.6h-8.2c-0.3,0-0.5-0.2-0.5-0.5v-8.2h-6.6v8.2c0,0.3-0.2,0.5-0.5,0.5H38.5z M46.2-54.8v-7.7h-7.7
			v7.7H46.2z M62.5-62.5h-7.7v7.7h7.7V-62.5z M54.8-46.2v7.7h7.7v-7.7H54.8z M38.5-38.5h7.7v-7.7h-7.7V-38.5z M50-81.8v-10.1H33.3
			L21.5-80.2l10.9,10.9c3-3.1,4.8-7.4,4.8-12c0-0.3,0.2-0.5,0.5-0.5H50z M20.8-79.5L9.1-67.7V-51h10.1v-12.3c0-0.3,0.2-0.5,0.5-0.5
			c4.7,0,8.9-1.8,12-4.8L20.8-79.5z M9.1-33.3l11.8,11.8l10.9-10.9c-3.1-3-7.4-4.8-12-4.8c-0.3,0-0.5-0.2-0.5-0.5V-50H9.1V-33.3z
			 M21.5-20.8L33.3-9.1H50v-10.1H37.7c-0.3,0-0.5-0.2-0.5-0.5c0-4.7-1.8-8.9-4.8-12L21.5-20.8z M51-9.1h16.7l11.8-11.8L68.6-31.7
			c-3,3.1-4.8,7.4-4.8,12c0,0.3-0.2,0.5-0.5,0.5H51V-9.1z M80.2-21.5l11.8-11.8V-50H81.8v12.3c0,0.3-0.2,0.5-0.5,0.5
			c-4.7,0-8.9,1.8-12,4.8L80.2-21.5z M91.9-67.7L80.2-79.5L69.3-68.6c3.1,3,7.4,4.8,12,4.8c0.3,0,0.5,0.2,0.5,0.5V-51h10.1V-67.7z
			 M79.5-80.2L67.7-91.9H51v10.1h12.3c0.3,0,0.5,0.2,0.5,0.5c0,4.7,1.8,8.9,4.8,12L79.5-80.2z M96.1-11.1L100-15v-71l-3.9-3.9h-5.5
			l-9,9l12.1,12.1c0.2,0.2,0.3,0.4,0.3,0.7v35.2c0,0.3-0.1,0.5-0.3,0.7L81.6-20.1l9,9H96.1z M100-100H87.4l3.3,3.3
			c0.1,0.1,0.1,0.2,0.1,0.4v5.4h5.4c0.1,0,0.3,0.1,0.4,0.1l3.3,3.3V-100z M1-100v12.6l3.3-3.3c0.1-0.1,0.2-0.1,0.4-0.1h5.4v-5.4
			c0-0.1,0.1-0.3,0.1-0.4l3.3-3.3H1z M1-1h12.6l-3.3-3.3c-0.1-0.1-0.1-0.2-0.1-0.4v-5.4H4.7c-0.1,0-0.3-0.1-0.4-0.1L1-13.6V-1z
			 M100-1v-12.6l-3.3,3.3c-0.1,0.1-0.2,0.1-0.4,0.1h-5.4v5.4c0,0.1-0.1,0.3-0.1,0.4L87.4-1H100z"/>
		<path fill="#4A8DCB" d="M241-170.5v100c0,0.3-0.2,0.5-0.5,0.5h-100c-0.3,0-0.5-0.2-0.5-0.5v-100c0-0.3,0.2-0.5,0.5-0.5h100
			C240.8-171,241-170.8,241-170.5z M226-71l3.9-3.9v-5.5l-9-9l-12.1,12.1c-0.2,0.2-0.4,0.3-0.7,0.3h-35.2c-0.3,0-0.5-0.1-0.7-0.3
			l-12.1-12.1l-9,9v5.5L155-71H226z M141-85l3.9,3.9h5.5l9-9l-12.1-12.1c-0.2-0.2-0.3-0.4-0.3-0.7v-35.2c0-0.3,0.1-0.5,0.3-0.7
			l12.1-12.1l-9-9h-5.5L141-156V-85z M155-170l-3.9,3.9v5.5l9,9l12.1-12.1c0.2-0.2,0.4-0.3,0.7-0.3h35.2c0.3,0,0.5,0.1,0.7,0.3
			l12.1,12.1l9-9v-5.5L226-170H155z M178.2-150.8c-0.1,4.7-2,9-5.1,12.2l5.1,5.1h8.5h7.6h8.5l5.1-5.1c-3-3.2-4.9-7.5-5.1-12.2H178.2
			z M220.8-132.8c-4.7-0.1-9-2-12.2-5.1l-5.1,5.1v8.5v7.6v8.5l5.1,5.1c3.2-3,7.5-4.9,12.2-5.1V-132.8z M207.9-102.4l-5.1-5.1h-8.5
			h-7.6h-8.5l-5.1,5.1c3,3.2,4.9,7.5,5.1,12.2h24.6C202.9-94.9,204.8-99.2,207.9-102.4z M160.2-108.2c4.7,0.1,9,2,12.2,5.1l5.1-5.1
			v-8.5v-7.6v-8.5l-5.1-5.1c-3.2,3-7.5,4.9-12.2,5.1v12.3c0,0,0,0,0,0c0,0,0,0,0,0V-108.2z M178.5-123.8v6.6h8.2
			c0.3,0,0.5,0.2,0.5,0.5v8.2h6.6v-8.2c0-0.3,0.2-0.5,0.5-0.5h8.2v-6.6h-8.2c-0.3,0-0.5-0.2-0.5-0.5v-8.2h-6.6v8.2
			c0,0.3-0.2,0.5-0.5,0.5H178.5z M186.2-124.8v-7.7h-7.7v7.7H186.2z M202.5-132.5h-7.7v7.7h7.7V-132.5z M194.8-116.2v7.7h7.7v-7.7
			H194.8z M178.5-108.5h7.7v-7.7h-7.7V-108.5z M190-151.8v-10.1h-16.7l-11.8,11.8l10.9,10.9c3-3.1,4.8-7.4,4.8-12
			c0-0.3,0.2-0.5,0.5-0.5H190z M160.8-149.5l-11.8,11.8v16.7h10.1v-12.3c0-0.3,0.2-0.5,0.5-0.5c4.7,0,8.9-1.8,12-4.8L160.8-149.5z
			 M149.1-103.3l11.8,11.8l10.9-10.9c-3.1-3-7.4-4.8-12-4.8c-0.3,0-0.5-0.2-0.5-0.5V-120h-10.1V-103.3z M161.5-90.8l11.8,11.8H190
			v-10.1h-12.3c-0.3,0-0.5-0.2-0.5-0.5c0-4.7-1.8-8.9-4.8-12L161.5-90.8z M191-79.1h16.7l11.8-11.8l-10.9-10.9
			c-3,3.1-4.8,7.4-4.8,12c0,0.3-0.2,0.5-0.5,0.5H191V-79.1z M220.2-91.5l11.8-11.8V-120h-10.1v12.3c0,0.3-0.2,0.5-0.5,0.5
			c-4.7,0-8.9,1.8-12,4.8L220.2-91.5z M231.9-137.7l-11.8-11.8l-10.9,10.9c3.1,3,7.4,4.8,12,4.8c0.3,0,0.5,0.2,0.5,0.5v12.3h10.1
			V-137.7z M219.5-150.2l-11.8-11.8H191v10.1h12.3c0.3,0,0.5,0.2,0.5,0.5c0,4.7,1.8,8.9,4.8,12L219.5-150.2z M236.1-81.1L240-85v-71
			l-3.9-3.9h-5.5l-9,9l12.1,12.1c0.2,0.2,0.3,0.4,0.3,0.7v35.2c0,0.3-0.1,0.5-0.3,0.7l-12.1,12.1l9,9H236.1z M240-170h-12.6l3.3,3.3
			c0.1,0.1,0.1,0.2,0.1,0.4v5.4h5.4c0.1,0,0.3,0.1,0.4,0.1l3.3,3.3V-170z M141-170v12.6l3.3-3.3c0.1-0.1,0.2-0.1,0.4-0.1h5.4v-5.4
			c0-0.1,0.1-0.3,0.1-0.4l3.3-3.3H141z M141-71h12.6l-3.3-3.3c-0.1-0.1-0.1-0.2-0.1-0.4v-5.4h-5.4c-0.1,0-0.3-0.1-0.4-0.1l-3.3-3.3
			V-71z M240-71v-12.6l-3.3,3.3c-0.1,0.1-0.2,0.1-0.4,0.1h-5.4v5.4c0,0.1-0.1,0.3-0.1,0.4l-3.3,3.3H240z"/>
		<path fill="#4A8DCB" d="M171-170.5v100c0,0.3-0.2,0.5-0.5,0.5h-100c-0.3,0-0.5-0.2-0.5-0.5v-100c0-0.3,0.2-0.5,0.5-0.5h100
			C170.8-171,171-170.8,171-170.5z M156-71l3.9-3.9v-5.5l-9-9l-12.1,12.1c-0.2,0.2-0.4,0.3-0.7,0.3h-35.2c-0.3,0-0.5-0.1-0.7-0.3
			L90.1-89.4l-9,9v5.5L85-71H156z M71-85l3.9,3.9h5.5l9-9l-12.1-12.1c-0.2-0.2-0.3-0.4-0.3-0.7v-35.2c0-0.3,0.1-0.5,0.3-0.7
			l12.1-12.1l-9-9h-5.5L71-156V-85z M85-170l-3.9,3.9v5.5l9,9l12.1-12.1c0.2-0.2,0.4-0.3,0.7-0.3h35.2c0.3,0,0.5,0.1,0.7,0.3
			l12.1,12.1l9-9v-5.5L156-170H85z M108.2-150.8c-0.1,4.7-2,9-5.1,12.2l5.1,5.1h8.5h7.6h8.5l5.1-5.1c-3-3.2-4.9-7.5-5.1-12.2H108.2z
			 M150.8-132.8c-4.7-0.1-9-2-12.2-5.1l-5.1,5.1v8.5v7.6v8.5l5.1,5.1c3.2-3,7.5-4.9,12.2-5.1V-132.8z M137.9-102.4l-5.1-5.1h-8.5
			h-7.6h-8.5l-5.1,5.1c3,3.2,4.9,7.5,5.1,12.2h24.6C132.9-94.9,134.8-99.2,137.9-102.4z M90.2-108.2c4.7,0.1,9,2,12.2,5.1l5.1-5.1
			v-8.5v-7.6v-8.5l-5.1-5.1c-3.2,3-7.5,4.9-12.2,5.1v12.3c0,0,0,0,0,0c0,0,0,0,0,0V-108.2z M108.5-123.8v6.6h8.2
			c0.3,0,0.5,0.2,0.5,0.5v8.2h6.6v-8.2c0-0.3,0.2-0.5,0.5-0.5h8.2v-6.6h-8.2c-0.3,0-0.5-0.2-0.5-0.5v-8.2h-6.6v8.2
			c0,0.3-0.2,0.5-0.5,0.5H108.5z M116.2-124.8v-7.7h-7.7v7.7H116.2z M132.5-132.5h-7.7v7.7h7.7V-132.5z M124.8-116.2v7.7h7.7v-7.7
			H124.8z M108.5-108.5h7.7v-7.7h-7.7V-108.5z M120-151.8v-10.1h-16.7l-11.8,11.8l10.9,10.9c3-3.1,4.8-7.4,4.8-12
			c0-0.3,0.2-0.5,0.5-0.5H120z M90.8-149.5l-11.8,11.8v16.7h10.1v-12.3c0-0.3,0.2-0.5,0.5-0.5c4.7,0,8.9-1.8,12-4.8L90.8-149.5z
			 M79.1-103.3l11.8,11.8l10.9-10.9c-3.1-3-7.4-4.8-12-4.8c-0.3,0-0.5-0.2-0.5-0.5V-120H79.1V-103.3z M91.5-90.8l11.8,11.8H120
			v-10.1h-12.3c-0.3,0-0.5-0.2-0.5-0.5c0-4.7-1.8-8.9-4.8-12L91.5-90.8z M121-79.1h16.7l11.8-11.8l-10.9-10.9c-3,3.1-4.8,7.4-4.8,12
			c0,0.3-0.2,0.5-0.5,0.5H121V-79.1z M150.2-91.5l11.8-11.8V-120h-10.1v12.3c0,0.3-0.2,0.5-0.5,0.5c-4.7,0-8.9,1.8-12,4.8
			L150.2-91.5z M161.9-137.7l-11.8-11.8l-10.9,10.9c3.1,3,7.4,4.8,12,4.8c0.3,0,0.5,0.2,0.5,0.5v12.3h10.1V-137.7z M149.5-150.2
			l-11.8-11.8H121v10.1h12.3c0.3,0,0.5,0.2,0.5,0.5c0,4.7,1.8,8.9,4.8,12L149.5-150.2z M166.1-81.1L170-85v-71l-3.9-3.9h-5.5l-9,9
			l12.1,12.1c0.2,0.2,0.3,0.4,0.3,0.7v35.2c0,0.3-0.1,0.5-0.3,0.7l-12.1,12.1l9,9H166.1z M170-170h-12.6l3.3,3.3
			c0.1,0.1,0.1,0.2,0.1,0.4v5.4h5.4c0.1,0,0.3,0.1,0.4,0.1l3.3,3.3V-170z M71-170v12.6l3.3-3.3c0.1-0.1,0.2-0.1,0.4-0.1h5.4v-5.4
			c0-0.1,0.1-0.3,0.1-0.4l3.3-3.3H71z M71-71h12.6l-3.3-3.3c-0.1-0.1-0.1-0.2-0.1-0.4v-5.4h-5.4c-0.1,0-0.3-0.1-0.4-0.1L71-83.6V-71
			z M170-71v-12.6l-3.3,3.3c-0.1,0.1-0.2,0.1-0.4,0.1h-5.4v5.4c0,0.1-0.1,0.3-0.1,0.4l-3.3,3.3H170z"/>
		<path fill="#4A8DCB" d="M101-170.5v100c0,0.3-0.2,0.5-0.5,0.5H0.5C0.2-70,0-70.2,0-70.5v-100c0-0.3,0.2-0.5,0.5-0.5h100
			C100.8-171,101-170.8,101-170.5z M86-71l3.9-3.9v-5.5l-9-9L68.8-77.3c-0.2,0.2-0.4,0.3-0.7,0.3H32.9c-0.3,0-0.5-0.1-0.7-0.3
			L20.1-89.4l-9,9v5.5L15-71H86z M1-85l3.9,3.9h5.5l9-9L7.3-102.2c-0.2-0.2-0.3-0.4-0.3-0.7v-35.2c0-0.3,0.1-0.5,0.3-0.7l12.1-12.1
			l-9-9H4.9L1-156V-85z M15-170l-3.9,3.9v5.5l9,9l12.1-12.1c0.2-0.2,0.4-0.3,0.7-0.3h35.2c0.3,0,0.5,0.1,0.7,0.3l12.1,12.1l9-9v-5.5
			L86-170H15z M38.2-150.8c-0.1,4.7-2,9-5.1,12.2l5.1,5.1h8.5h7.6h8.5l5.1-5.1c-3-3.2-4.9-7.5-5.1-12.2H38.2z M80.8-132.8
			c-4.7-0.1-9-2-12.2-5.1l-5.1,5.1v8.5v7.6v8.5l5.1,5.1c3.2-3,7.5-4.9,12.2-5.1V-132.8z M67.9-102.4l-5.1-5.1h-8.5h-7.6h-8.5
			l-5.1,5.1c3,3.2,4.9,7.5,5.1,12.2h24.6C62.9-94.9,64.8-99.2,67.9-102.4z M20.2-108.2c4.7,0.1,9,2,12.2,5.1l5.1-5.1v-8.5v-7.6v-8.5
			l-5.1-5.1c-3.2,3-7.5,4.9-12.2,5.1v12.3c0,0,0,0,0,0c0,0,0,0,0,0V-108.2z M38.5-123.8v6.6h8.2c0.3,0,0.5,0.2,0.5,0.5v8.2h6.6v-8.2
			c0-0.3,0.2-0.5,0.5-0.5h8.2v-6.6h-8.2c-0.3,0-0.5-0.2-0.5-0.5v-8.2h-6.6v8.2c0,0.3-0.2,0.5-0.5,0.5H38.5z M46.2-124.8v-7.7h-7.7
			v7.7H46.2z M62.5-132.5h-7.7v7.7h7.7V-132.5z M54.8-116.2v7.7h7.7v-7.7H54.8z M38.5-108.5h7.7v-7.7h-7.7V-108.5z M50-151.8v-10.1
			H33.3l-11.8,11.8l10.9,10.9c3-3.1,4.8-7.4,4.8-12c0-0.3,0.2-0.5,0.5-0.5H50z M20.8-149.5L9.1-137.7v16.7h10.1v-12.3
			c0-0.3,0.2-0.5,0.5-0.5c4.7,0,8.9-1.8,12-4.8L20.8-149.5z M9.1-103.3l11.8,11.8l10.9-10.9c-3.1-3-7.4-4.8-12-4.8
			c-0.3,0-0.5-0.2-0.5-0.5V-120H9.1V-103.3z M21.5-90.8l11.8,11.8H50v-10.1H37.7c-0.3,0-0.5-0.2-0.5-0.5c0-4.7-1.8-8.9-4.8-12
			L21.5-90.8z M51-79.1h16.7l11.8-11.8l-10.9-10.9c-3,3.1-4.8,7.4-4.8,12c0,0.3-0.2,0.5-0.5,0.5H51V-79.1z M80.2-91.5l11.8-11.8
			V-120H81.8v12.3c0,0.3-0.2,0.5-0.5,0.5c-4.7,0-8.9,1.8-12,4.8L80.2-91.5z M91.9-137.7l-11.8-11.8l-10.9,10.9c3.1,3,7.4,4.8,12,4.8
			c0.3,0,0.5,0.2,0.5,0.5v12.3h10.1V-137.7z M79.5-150.2l-11.8-11.8H51v10.1h12.3c0.3,0,0.5,0.2,0.5,0.5c0,4.7,1.8,8.9,4.8,12
			L79.5-150.2z M96.1-81.1L100-85v-71l-3.9-3.9h-5.5l-9,9l12.1,12.1c0.2,0.2,0.3,0.4,0.3,0.7v35.2c0,0.3-0.1,0.5-0.3,0.7L81.6-90.1
			l9,9H96.1z M100-170H87.4l3.3,3.3c0.1,0.1,0.1,0.2,0.1,0.4v5.4h5.4c0.1,0,0.3,0.1,0.4,0.1l3.3,3.3V-170z M1-170v12.6l3.3-3.3
			c0.1-0.1,0.2-0.1,0.4-0.1h5.4v-5.4c0-0.1,0.1-0.3,0.1-0.4l3.3-3.3H1z M1-71h12.6l-3.3-3.3c-0.1-0.1-0.1-0.2-0.1-0.4v-5.4H4.7
			c-0.1,0-0.3-0.1-0.4-0.1L1-83.6V-71z M100-71v-12.6l-3.3,3.3c-0.1,0.1-0.2,0.1-0.4,0.1h-5.4v5.4c0,0.1-0.1,0.3-0.1,0.4L87.4-71
			H100z"/>
		<path fill="#4A8DCB" d="M241-240.5v100c0,0.3-0.2,0.5-0.5,0.5h-100c-0.3,0-0.5-0.2-0.5-0.5v-100c0-0.3,0.2-0.5,0.5-0.5h100
			C240.8-241,241-240.8,241-240.5z M226-141l3.9-3.9v-5.5l-9-9l-12.1,12.1c-0.2,0.2-0.4,0.3-0.7,0.3h-35.2c-0.3,0-0.5-0.1-0.7-0.3
			l-12.1-12.1l-9,9v5.5l3.9,3.9H226z M141-155l3.9,3.9h5.5l9-9l-12.1-12.1c-0.2-0.2-0.3-0.4-0.3-0.7v-35.2c0-0.3,0.1-0.5,0.3-0.7
			l12.1-12.1l-9-9h-5.5L141-226V-155z M155-240l-3.9,3.9v5.5l9,9l12.1-12.1c0.2-0.2,0.4-0.3,0.7-0.3h35.2c0.3,0,0.5,0.1,0.7,0.3
			l12.1,12.1l9-9v-5.5L226-240H155z M178.2-220.8c-0.1,4.7-2,9-5.1,12.2l5.1,5.1h8.5h7.6h8.5l5.1-5.1c-3-3.2-4.9-7.5-5.1-12.2H178.2
			z M220.8-202.8c-4.7-0.1-9-2-12.2-5.1l-5.1,5.1v8.5v7.6v8.5l5.1,5.1c3.2-3,7.5-4.9,12.2-5.1V-202.8z M207.9-172.4l-5.1-5.1h-8.5
			h-7.6h-8.5l-5.1,5.1c3,3.2,4.9,7.5,5.1,12.2h24.6C202.9-164.9,204.8-169.2,207.9-172.4z M160.2-178.2c4.7,0.1,9,2,12.2,5.1
			l5.1-5.1v-8.5v-7.6v-8.5l-5.1-5.1c-3.2,3-7.5,4.9-12.2,5.1v12.3c0,0,0,0,0,0s0,0,0,0V-178.2z M178.5-193.8v6.6h8.2
			c0.3,0,0.5,0.2,0.5,0.5v8.2h6.6v-8.2c0-0.3,0.2-0.5,0.5-0.5h8.2v-6.6h-8.2c-0.3,0-0.5-0.2-0.5-0.5v-8.2h-6.6v8.2
			c0,0.3-0.2,0.5-0.5,0.5H178.5z M186.2-194.8v-7.7h-7.7v7.7H186.2z M202.5-202.5h-7.7v7.7h7.7V-202.5z M194.8-186.2v7.7h7.7v-7.7
			H194.8z M178.5-178.5h7.7v-7.7h-7.7V-178.5z M190-221.8v-10.1h-16.7l-11.8,11.8l10.9,10.9c3-3.1,4.8-7.4,4.8-12
			c0-0.3,0.2-0.5,0.5-0.5H190z M160.8-219.5l-11.8,11.8v16.7h10.1v-12.3c0-0.3,0.2-0.5,0.5-0.5c4.7,0,8.9-1.8,12-4.8L160.8-219.5z
			 M149.1-173.3l11.8,11.8l10.9-10.9c-3.1-3-7.4-4.8-12-4.8c-0.3,0-0.5-0.2-0.5-0.5V-190h-10.1V-173.3z M161.5-160.8l11.8,11.8H190
			v-10.1h-12.3c-0.3,0-0.5-0.2-0.5-0.5c0-4.7-1.8-8.9-4.8-12L161.5-160.8z M191-149.1h16.7l11.8-11.8l-10.9-10.9
			c-3,3.1-4.8,7.4-4.8,12c0,0.3-0.2,0.5-0.5,0.5H191V-149.1z M220.2-161.5l11.8-11.8V-190h-10.1v12.3c0,0.3-0.2,0.5-0.5,0.5
			c-4.7,0-8.9,1.8-12,4.8L220.2-161.5z M231.9-207.7l-11.8-11.8l-10.9,10.9c3.1,3,7.4,4.8,12,4.8c0.3,0,0.5,0.2,0.5,0.5v12.3h10.1
			V-207.7z M219.5-220.2l-11.8-11.8H191v10.1h12.3c0.3,0,0.5,0.2,0.5,0.5c0,4.7,1.8,8.9,4.8,12L219.5-220.2z M236.1-151.1l3.9-3.9
			v-71l-3.9-3.9h-5.5l-9,9l12.1,12.1c0.2,0.2,0.3,0.4,0.3,0.7v35.2c0,0.3-0.1,0.5-0.3,0.7l-12.1,12.1l9,9H236.1z M240-240h-12.6
			l3.3,3.3c0.1,0.1,0.1,0.2,0.1,0.4v5.4h5.4c0.1,0,0.3,0.1,0.4,0.1l3.3,3.3V-240z M141-240v12.6l3.3-3.3c0.1-0.1,0.2-0.1,0.4-0.1
			h5.4v-5.4c0-0.1,0.1-0.3,0.1-0.4l3.3-3.3H141z M141-141h12.6l-3.3-3.3c-0.1-0.1-0.1-0.2-0.1-0.4v-5.4h-5.4c-0.1,0-0.3-0.1-0.4-0.1
			l-3.3-3.3V-141z M240-141v-12.6l-3.3,3.3c-0.1,0.1-0.2,0.1-0.4,0.1h-5.4v5.4c0,0.1-0.1,0.3-0.1,0.4l-3.3,3.3H240z"/>
		<path fill="#4A8DCB" d="M171-240.5v100c0,0.3-0.2,0.5-0.5,0.5h-100c-0.3,0-0.5-0.2-0.5-0.5v-100c0-0.3,0.2-0.5,0.5-0.5h100
			C170.8-241,171-240.8,171-240.5z M156-141l3.9-3.9v-5.5l-9-9l-12.1,12.1c-0.2,0.2-0.4,0.3-0.7,0.3h-35.2c-0.3,0-0.5-0.1-0.7-0.3
			l-12.1-12.1l-9,9v5.5L85-141H156z M71-155l3.9,3.9h5.5l9-9l-12.1-12.1c-0.2-0.2-0.3-0.4-0.3-0.7v-35.2c0-0.3,0.1-0.5,0.3-0.7
			l12.1-12.1l-9-9h-5.5L71-226V-155z M85-240l-3.9,3.9v5.5l9,9l12.1-12.1c0.2-0.2,0.4-0.3,0.7-0.3h35.2c0.3,0,0.5,0.1,0.7,0.3
			l12.1,12.1l9-9v-5.5L156-240H85z M108.2-220.8c-0.1,4.7-2,9-5.1,12.2l5.1,5.1h8.5h7.6h8.5l5.1-5.1c-3-3.2-4.9-7.5-5.1-12.2H108.2z
			 M150.8-202.8c-4.7-0.1-9-2-12.2-5.1l-5.1,5.1v8.5v7.6v8.5l5.1,5.1c3.2-3,7.5-4.9,12.2-5.1V-202.8z M137.9-172.4l-5.1-5.1h-8.5
			h-7.6h-8.5l-5.1,5.1c3,3.2,4.9,7.5,5.1,12.2h24.6C132.9-164.9,134.8-169.2,137.9-172.4z M90.2-178.2c4.7,0.1,9,2,12.2,5.1l5.1-5.1
			v-8.5v-7.6v-8.5l-5.1-5.1c-3.2,3-7.5,4.9-12.2,5.1v12.3c0,0,0,0,0,0s0,0,0,0V-178.2z M108.5-193.8v6.6h8.2c0.3,0,0.5,0.2,0.5,0.5
			v8.2h6.6v-8.2c0-0.3,0.2-0.5,0.5-0.5h8.2v-6.6h-8.2c-0.3,0-0.5-0.2-0.5-0.5v-8.2h-6.6v8.2c0,0.3-0.2,0.5-0.5,0.5H108.5z
			 M116.2-194.8v-7.7h-7.7v7.7H116.2z M132.5-202.5h-7.7v7.7h7.7V-202.5z M124.8-186.2v7.7h7.7v-7.7H124.8z M108.5-178.5h7.7v-7.7
			h-7.7V-178.5z M120-221.8v-10.1h-16.7l-11.8,11.8l10.9,10.9c3-3.1,4.8-7.4,4.8-12c0-0.3,0.2-0.5,0.5-0.5H120z M90.8-219.5
			l-11.8,11.8v16.7h10.1v-12.3c0-0.3,0.2-0.5,0.5-0.5c4.7,0,8.9-1.8,12-4.8L90.8-219.5z M79.1-173.3l11.8,11.8l10.9-10.9
			c-3.1-3-7.4-4.8-12-4.8c-0.3,0-0.5-0.2-0.5-0.5V-190H79.1V-173.3z M91.5-160.8l11.8,11.8H120v-10.1h-12.3c-0.3,0-0.5-0.2-0.5-0.5
			c0-4.7-1.8-8.9-4.8-12L91.5-160.8z M121-149.1h16.7l11.8-11.8l-10.9-10.9c-3,3.1-4.8,7.4-4.8,12c0,0.3-0.2,0.5-0.5,0.5H121V-149.1
			z M150.2-161.5l11.8-11.8V-190h-10.1v12.3c0,0.3-0.2,0.5-0.5,0.5c-4.7,0-8.9,1.8-12,4.8L150.2-161.5z M161.9-207.7l-11.8-11.8
			l-10.9,10.9c3.1,3,7.4,4.8,12,4.8c0.3,0,0.5,0.2,0.5,0.5v12.3h10.1V-207.7z M149.5-220.2l-11.8-11.8H121v10.1h12.3
			c0.3,0,0.5,0.2,0.5,0.5c0,4.7,1.8,8.9,4.8,12L149.5-220.2z M166.1-151.1l3.9-3.9v-71l-3.9-3.9h-5.5l-9,9l12.1,12.1
			c0.2,0.2,0.3,0.4,0.3,0.7v35.2c0,0.3-0.1,0.5-0.3,0.7l-12.1,12.1l9,9H166.1z M170-240h-12.6l3.3,3.3c0.1,0.1,0.1,0.2,0.1,0.4v5.4
			h5.4c0.1,0,0.3,0.1,0.4,0.1l3.3,3.3V-240z M71-240v12.6l3.3-3.3c0.1-0.1,0.2-0.1,0.4-0.1h5.4v-5.4c0-0.1,0.1-0.3,0.1-0.4l3.3-3.3
			H71z M71-141h12.6l-3.3-3.3c-0.1-0.1-0.1-0.2-0.1-0.4v-5.4h-5.4c-0.1,0-0.3-0.1-0.4-0.1l-3.3-3.3V-141z M170-141v-12.6l-3.3,3.3
			c-0.1,0.1-0.2,0.1-0.4,0.1h-5.4v5.4c0,0.1-0.1,0.3-0.1,0.4l-3.3,3.3H170z"/>
		<path fill="#4A8DCB" d="M101-240.5v100c0,0.3-0.2,0.5-0.5,0.5H0.5c-0.3,0-0.5-0.2-0.5-0.5v-100c0-0.3,0.2-0.5,0.5-0.5h100
			C100.8-241,101-240.8,101-240.5z M86-141l3.9-3.9v-5.5l-9-9l-12.1,12.1c-0.2,0.2-0.4,0.3-0.7,0.3H32.9c-0.3,0-0.5-0.1-0.7-0.3
			l-12.1-12.1l-9,9v5.5L15-141H86z M1-155l3.9,3.9h5.5l9-9L7.3-172.2c-0.2-0.2-0.3-0.4-0.3-0.7v-35.2c0-0.3,0.1-0.5,0.3-0.7
			l12.1-12.1l-9-9H4.9L1-226V-155z M15-240l-3.9,3.9v5.5l9,9l12.1-12.1c0.2-0.2,0.4-0.3,0.7-0.3h35.2c0.3,0,0.5,0.1,0.7,0.3
			l12.1,12.1l9-9v-5.5L86-240H15z M38.2-220.8c-0.1,4.7-2,9-5.1,12.2l5.1,5.1h8.5h7.6h8.5l5.1-5.1c-3-3.2-4.9-7.5-5.1-12.2H38.2z
			 M80.8-202.8c-4.7-0.1-9-2-12.2-5.1l-5.1,5.1v8.5v7.6v8.5l5.1,5.1c3.2-3,7.5-4.9,12.2-5.1V-202.8z M67.9-172.4l-5.1-5.1h-8.5h-7.6
			h-8.5l-5.1,5.1c3,3.2,4.9,7.5,5.1,12.2h24.6C62.9-164.9,64.8-169.2,67.9-172.4z M20.2-178.2c4.7,0.1,9,2,12.2,5.1l5.1-5.1v-8.5
			v-7.6v-8.5l-5.1-5.1c-3.2,3-7.5,4.9-12.2,5.1v12.3c0,0,0,0,0,0s0,0,0,0V-178.2z M38.5-193.8v6.6h8.2c0.3,0,0.5,0.2,0.5,0.5v8.2
			h6.6v-8.2c0-0.3,0.2-0.5,0.5-0.5h8.2v-6.6h-8.2c-0.3,0-0.5-0.2-0.5-0.5v-8.2h-6.6v8.2c0,0.3-0.2,0.5-0.5,0.5H38.5z M46.2-194.8
			v-7.7h-7.7v7.7H46.2z M62.5-202.5h-7.7v7.7h7.7V-202.5z M54.8-186.2v7.7h7.7v-7.7H54.8z M38.5-178.5h7.7v-7.7h-7.7V-178.5z
			 M50-221.8v-10.1H33.3l-11.8,11.8l10.9,10.9c3-3.1,4.8-7.4,4.8-12c0-0.3,0.2-0.5,0.5-0.5H50z M20.8-219.5L9.1-207.7v16.7h10.1
			v-12.3c0-0.3,0.2-0.5,0.5-0.5c4.7,0,8.9-1.8,12-4.8L20.8-219.5z M9.1-173.3l11.8,11.8l10.9-10.9c-3.1-3-7.4-4.8-12-4.8
			c-0.3,0-0.5-0.2-0.5-0.5V-190H9.1V-173.3z M21.5-160.8l11.8,11.8H50v-10.1H37.7c-0.3,0-0.5-0.2-0.5-0.5c0-4.7-1.8-8.9-4.8-12
			L21.5-160.8z M51-149.1h16.7l11.8-11.8l-10.9-10.9c-3,3.1-4.8,7.4-4.8,12c0,0.3-0.2,0.5-0.5,0.5H51V-149.1z M80.2-161.5l11.8-11.8
			V-190H81.8v12.3c0,0.3-0.2,0.5-0.5,0.5c-4.7,0-8.9,1.8-12,4.8L80.2-161.5z M91.9-207.7l-11.8-11.8l-10.9,10.9
			c3.1,3,7.4,4.8,12,4.8c0.3,0,0.5,0.2,0.5,0.5v12.3h10.1V-207.7z M79.5-220.2l-11.8-11.8H51v10.1h12.3c0.3,0,0.5,0.2,0.5,0.5
			c0,4.7,1.8,8.9,4.8,12L79.5-220.2z M96.1-151.1l3.9-3.9v-71l-3.9-3.9h-5.5l-9,9l12.1,12.1c0.2,0.2,0.3,0.4,0.3,0.7v35.2
			c0,0.3-0.1,0.5-0.3,0.7l-12.1,12.1l9,9H96.1z M100-240H87.4l3.3,3.3c0.1,0.1,0.1,0.2,0.1,0.4v5.4h5.4c0.1,0,0.3,0.1,0.4,0.1
			l3.3,3.3V-240z M1-240v12.6l3.3-3.3c0.1-0.1,0.2-0.1,0.4-0.1h5.4v-5.4c0-0.1,0.1-0.3,0.1-0.4l3.3-3.3H1z M1-141h12.6l-3.3-3.3
			c-0.1-0.1-0.1-0.2-0.1-0.4v-5.4H4.7c-0.1,0-0.3-0.1-0.4-0.1L1-153.6V-141z M100-141v-12.6l-3.3,3.3c-0.1,0.1-0.2,0.1-0.4,0.1h-5.4
			v5.4c0,0.1-0.1,0.3-0.1,0.4l-3.3,3.3H100z"/>
	</g>
</pattern>
<pattern  x="-750" y="-464.6" width="62" height="49" patternUnits="userSpaceOnUse" id="New_Pattern_Swatch_5" viewBox="18 -61.2 62 49" overflow="visible">
	<g>
		<rect x="18" y="-61.2" fill="none" width="62" height="49"/>
		<g>
			
				<path id="XMLID_00000050627295438301690350000004150464384438683575_" fill="none" stroke="#95B4A0" stroke-linecap="round" stroke-linejoin="round" stroke-miterlimit="10" d="
				M97.5-18.7c0,0.2,0,0.4,0,0.5c-1.4-0.4-2.8-0.5-4.3-0.5c-5.2,0-10,2.3-13.2,6c-3.2-3.7-7.9-6-13.2-6c-1.5,0-2.9,0.2-4.3,0.5
				c0-0.2,0-0.4,0-0.5c0-9.7,7.8-17.5,17.5-17.5C89.7-36.2,97.5-28.4,97.5-18.7z"/>
			
				<path id="XMLID_00000024682523734380260850000012279350017004732076_" fill="none" stroke="#95B4A0" stroke-linecap="round" stroke-linejoin="round" stroke-miterlimit="10" d="
				M80-16.9c-3.7-3.1-8.3-4.8-13.2-4.8c-0.3,0-0.7,0-1,0C67.2-28.3,73-33.2,80-33.2s12.8,5,14.2,11.5c-0.3,0-0.7,0-1,0
				C88.3-21.7,83.7-20,80-16.9z"/>
			
				<path id="XMLID_00000027573881423599311500000006257428617227017127_" fill="none" stroke="#95B4A0" stroke-linecap="round" stroke-linejoin="round" stroke-miterlimit="10" d="
				M80-20.7c-3-2-6.4-3.3-9.9-3.8c2-3.5,5.8-5.7,9.9-5.7c4.2,0,7.9,2.3,9.9,5.7C86.4-24,83-22.7,80-20.7z"/>
			
				<path id="XMLID_00000085939534545272291300000016247616583286871468_" fill="none" stroke="#95B4A0" stroke-linecap="round" stroke-linejoin="round" stroke-miterlimit="10" d="
				M80-24.2c-1.3-0.8-2.7-1.4-4.1-1.9c1.2-0.7,2.7-1.1,4.1-1.1c1.5,0,2.9,0.4,4.1,1.1C82.7-25.6,81.3-25,80-24.2z"/>
		</g>
		<g>
			
				<path id="XMLID_00000070839113242298148470000017231525108143913398_" fill="none" stroke="#95B4A0" stroke-linecap="round" stroke-linejoin="round" stroke-miterlimit="10" d="
				M66.5-6.5c0,0.2,0,0.4,0,0.5c-1.4-0.4-2.8-0.5-4.3-0.5c-5.2,0-10,2.3-13.2,6c-3.2-3.7-7.9-6-13.2-6c-1.5,0-2.9,0.2-4.3,0.5
				c0-0.2,0-0.4,0-0.5C31.5-16.1,39.3-24,49-24C58.7-24,66.5-16.1,66.5-6.5z"/>
			
				<path id="XMLID_00000064333868214907482200000015175321396751781807_" fill="none" stroke="#95B4A0" stroke-linecap="round" stroke-linejoin="round" stroke-miterlimit="10" d="
				M49-4.7c-3.7-3.1-8.3-4.8-13.2-4.8c-0.3,0-0.7,0-1,0C36.2-16,42-21,49-21s12.8,5,14.2,11.5c-0.3,0-0.7,0-1,0
				C57.3-9.5,52.7-7.8,49-4.7z"/>
			
				<path id="XMLID_00000085233437637983687940000003163116559538757028_" fill="none" stroke="#95B4A0" stroke-linecap="round" stroke-linejoin="round" stroke-miterlimit="10" d="
				M49-8.4c-3-2-6.4-3.3-9.9-3.8c2-3.5,5.8-5.7,9.9-5.7c4.2,0,7.9,2.3,9.9,5.7C55.4-11.8,52-10.5,49-8.4z"/>
			
				<path id="XMLID_00000055689440733414258640000017409288920820982953_" fill="none" stroke="#95B4A0" stroke-linecap="round" stroke-linejoin="round" stroke-miterlimit="10" d="
				M49-12c-1.3-0.8-2.7-1.4-4.1-1.9c1.2-0.7,2.7-1.1,4.1-1.1c1.5,0,2.9,0.4,4.1,1.1C51.7-13.4,50.3-12.7,49-12z"/>
		</g>
		<g>
			
				<path id="XMLID_00000074412118066159619530000008509376160479348896_" fill="none" stroke="#95B4A0" stroke-linecap="round" stroke-linejoin="round" stroke-miterlimit="10" d="
				M35.5-18.7c0,0.2,0,0.4,0,0.5c-1.4-0.4-2.8-0.5-4.3-0.5c-5.2,0-10,2.3-13.2,6c-3.2-3.7-7.9-6-13.2-6c-1.5,0-2.9,0.2-4.3,0.5
				c0-0.2,0-0.4,0-0.5c0-9.7,7.8-17.5,17.5-17.5C27.7-36.2,35.5-28.4,35.5-18.7z"/>
			
				<path id="XMLID_00000052789581956192235080000015376874504539902617_" fill="none" stroke="#95B4A0" stroke-linecap="round" stroke-linejoin="round" stroke-miterlimit="10" d="
				M18-16.9c-3.7-3.1-8.3-4.8-13.2-4.8c-0.3,0-0.7,0-1,0C5.2-28.3,11-33.2,18-33.2s12.8,5,14.2,11.5c-0.3,0-0.7,0-1,0
				C26.3-21.7,21.7-20,18-16.9z"/>
			
				<path id="XMLID_00000173152040269709241750000012323780240013174930_" fill="none" stroke="#95B4A0" stroke-linecap="round" stroke-linejoin="round" stroke-miterlimit="10" d="
				M18-20.7c-3-2-6.4-3.3-9.9-3.8c2-3.5,5.8-5.7,9.9-5.7c4.2,0,7.9,2.3,9.9,5.7C24.4-24,21-22.7,18-20.7z"/>
			
				<path id="XMLID_00000057139028966169380350000015583132858766621369_" fill="none" stroke="#95B4A0" stroke-linecap="round" stroke-linejoin="round" stroke-miterlimit="10" d="
				M18-24.2c-1.3-0.8-2.7-1.4-4.1-1.9c1.2-0.7,2.7-1.1,4.1-1.1c1.5,0,2.9,0.4,4.1,1.1C20.7-25.6,19.3-25,18-24.2z"/>
		</g>
		<g>
			
				<path id="XMLID_00000017488556734780721100000001316802967029769088_" fill="none" stroke="#95B4A0" stroke-linecap="round" stroke-linejoin="round" stroke-miterlimit="10" d="
				M97.5-43.2c0,0.2,0,0.4,0,0.5c-1.4-0.3-2.8-0.5-4.3-0.5c-5.2,0-10,2.3-13.2,6c-3.2-3.7-7.9-6-13.2-6c-1.5,0-2.9,0.2-4.3,0.5
				c0-0.2,0-0.4,0-0.5c0-9.7,7.8-17.5,17.5-17.5C89.7-60.7,97.5-52.9,97.5-43.2z"/>
			
				<path id="XMLID_00000141453175605328561430000016603803826865048456_" fill="none" stroke="#95B4A0" stroke-linecap="round" stroke-linejoin="round" stroke-miterlimit="10" d="
				M80-41.4c-3.7-3.1-8.3-4.8-13.2-4.8c-0.3,0-0.7,0-1,0C67.2-52.8,73-57.7,80-57.7s12.8,5,14.2,11.5c-0.3,0-0.7,0-1,0
				C88.3-46.2,83.7-44.5,80-41.4z"/>
			
				<path id="XMLID_00000117669881423140387990000017958783246221170857_" fill="none" stroke="#95B4A0" stroke-linecap="round" stroke-linejoin="round" stroke-miterlimit="10" d="
				M80-45.2c-3-2-6.4-3.3-9.9-3.8c2-3.5,5.8-5.7,9.9-5.7c4.2,0,7.9,2.3,9.9,5.7C86.4-48.5,83-47.2,80-45.2z"/>
			
				<path id="XMLID_00000065070979739329916330000013462617917960597915_" fill="none" stroke="#95B4A0" stroke-linecap="round" stroke-linejoin="round" stroke-miterlimit="10" d="
				M80-48.7c-1.3-0.8-2.7-1.4-4.1-1.9c1.2-0.7,2.7-1.1,4.1-1.1c1.5,0,2.9,0.4,4.1,1.1C82.7-50.1,81.3-49.5,80-48.7z"/>
		</g>
		<g>
			
				<path id="XMLID_00000072240254155472511200000012288432570038911105_" fill="none" stroke="#95B4A0" stroke-linecap="round" stroke-linejoin="round" stroke-miterlimit="10" d="
				M66.5-31c0,0.2,0,0.4,0,0.5c-1.4-0.4-2.8-0.5-4.3-0.5c-5.2,0-10,2.3-13.2,6c-3.2-3.7-7.9-6-13.2-6c-1.5,0-2.9,0.2-4.3,0.5
				c0-0.2,0-0.4,0-0.5c0-9.7,7.8-17.5,17.5-17.5C58.7-48.5,66.5-40.6,66.5-31z"/>
			
				<path id="XMLID_00000161601346760888522930000017828017927166130089_" fill="none" stroke="#95B4A0" stroke-linecap="round" stroke-linejoin="round" stroke-miterlimit="10" d="
				M49-29.2c-3.7-3.1-8.3-4.8-13.2-4.8c-0.3,0-0.7,0-1,0C36.2-40.5,42-45.5,49-45.5s12.8,5,14.2,11.5c-0.3,0-0.7,0-1,0
				C57.3-34,52.7-32.3,49-29.2z"/>
			
				<path id="XMLID_00000161631423290453383530000016264169072186124170_" fill="none" stroke="#95B4A0" stroke-linecap="round" stroke-linejoin="round" stroke-miterlimit="10" d="
				M49-32.9c-3-2-6.4-3.3-9.9-3.8c2-3.5,5.8-5.7,9.9-5.7c4.2,0,7.9,2.3,9.9,5.7C55.4-36.3,52-35,49-32.9z"/>
			
				<path id="XMLID_00000017486879861375053060000017915897671351049605_" fill="none" stroke="#95B4A0" stroke-linecap="round" stroke-linejoin="round" stroke-miterlimit="10" d="
				M49-36.5c-1.3-0.8-2.7-1.4-4.1-1.9c1.2-0.7,2.7-1.1,4.1-1.1c1.5,0,2.9,0.4,4.1,1.1C51.7-37.9,50.3-37.2,49-36.5z"/>
		</g>
		<g>
			
				<path id="XMLID_00000127741039292742566060000006054021144884499122_" fill="none" stroke="#95B4A0" stroke-linecap="round" stroke-linejoin="round" stroke-miterlimit="10" d="
				M35.5-43.2c0,0.2,0,0.4,0,0.5c-1.4-0.3-2.8-0.5-4.3-0.5c-5.2,0-10,2.3-13.2,6c-3.2-3.7-7.9-6-13.2-6c-1.5,0-2.9,0.2-4.3,0.5
				c0-0.2,0-0.4,0-0.5c0-9.7,7.8-17.5,17.5-17.5C27.7-60.7,35.5-52.9,35.5-43.2z"/>
			
				<path id="XMLID_00000073702364675870210430000008753537865242146732_" fill="none" stroke="#95B4A0" stroke-linecap="round" stroke-linejoin="round" stroke-miterlimit="10" d="
				M18-41.4c-3.7-3.1-8.3-4.8-13.2-4.8c-0.3,0-0.7,0-1,0C5.2-52.8,11-57.7,18-57.7s12.8,5,14.2,11.5c-0.3,0-0.7,0-1,0
				C26.3-46.2,21.7-44.5,18-41.4z"/>
			
				<path id="XMLID_00000155112075720544483300000005533466182478620090_" fill="none" stroke="#95B4A0" stroke-linecap="round" stroke-linejoin="round" stroke-miterlimit="10" d="
				M18-45.2c-3-2-6.4-3.3-9.9-3.8c2-3.5,5.8-5.7,9.9-5.7c4.2,0,7.9,2.3,9.9,5.7C24.4-48.5,21-47.2,18-45.2z"/>
			
				<path id="XMLID_00000180364493160812598930000016617885841055406243_" fill="none" stroke="#95B4A0" stroke-linecap="round" stroke-linejoin="round" stroke-miterlimit="10" d="
				M18-48.7c-1.3-0.8-2.7-1.4-4.1-1.9c1.2-0.7,2.7-1.1,4.1-1.1c1.5,0,2.9,0.4,4.1,1.1C20.7-50.1,19.3-49.5,18-48.7z"/>
		</g>
		<g>
			
				<path id="XMLID_00000132768097472200006320000000263546527236911518_" fill="none" stroke="#95B4A0" stroke-linecap="round" stroke-linejoin="round" stroke-miterlimit="10" d="
				M66.5-55.5c0,0.2,0,0.4,0,0.5c-1.4-0.3-2.8-0.5-4.3-0.5c-5.2,0-10,2.3-13.2,6c-3.2-3.7-7.9-6-13.2-6c-1.5,0-2.9,0.2-4.3,0.5
				c0-0.2,0-0.4,0-0.5C31.5-65.1,39.3-73,49-73C58.7-73,66.5-65.1,66.5-55.5z"/>
			
				<path id="XMLID_00000060737772416828055920000010855668526651020446_" fill="none" stroke="#95B4A0" stroke-linecap="round" stroke-linejoin="round" stroke-miterlimit="10" d="
				M49-53.7c-3.7-3.1-8.3-4.8-13.2-4.8c-0.3,0-0.7,0-1,0C36.2-65,42-70,49-70s12.8,5,14.2,11.5c-0.3,0-0.7,0-1,0
				C57.3-58.5,52.7-56.8,49-53.7z"/>
			
				<path id="XMLID_00000151505828531271200730000017337536127654068668_" fill="none" stroke="#95B4A0" stroke-linecap="round" stroke-linejoin="round" stroke-miterlimit="10" d="
				M49-57.4c-3-2-6.4-3.3-9.9-3.8c2-3.5,5.8-5.7,9.9-5.7c4.2,0,7.9,2.3,9.9,5.7C55.4-60.8,52-59.4,49-57.4z"/>
			
				<path id="XMLID_00000106837363569114768540000010271610015468195716_" fill="none" stroke="#95B4A0" stroke-linecap="round" stroke-linejoin="round" stroke-miterlimit="10" d="
				M49-61c-1.3-0.8-2.7-1.4-4.1-1.9c1.2-0.7,2.7-1.1,4.1-1.1c1.5,0,2.9,0.4,4.1,1.1C51.7-62.4,50.3-61.7,49-61z"/>
		</g>
	</g>
</pattern>
<pattern  x="-750" y="-464.6" width="73.7" height="72.7" patternUnits="userSpaceOnUse" id="Nueva_muestra_de_motivo_3" viewBox="18.2 -90.9 73.7 72.7" overflow="visible">
	<g>
		<rect x="18.2" y="-90.9" fill="none" width="73.7" height="72.7"/>
		<g>
			<circle fill="none" stroke="#E2CA72" stroke-miterlimit="10" cx="82.3" cy="-18.2" r="8.8"/>
			<circle fill="none" stroke="#E2CA72" stroke-miterlimit="10" cx="64.6" cy="-18.2" r="8.8"/>
			<circle fill="none" stroke="#E2CA72" stroke-miterlimit="10" cx="73.5" cy="-9.3" r="8.8"/>
			<circle fill="none" stroke="#E2CA72" stroke-miterlimit="10" cx="73.5" cy="-27" r="8.8"/>
			<circle fill="none" stroke="#E2CA72" stroke-miterlimit="10" cx="58.3" cy="-33.1" r="2.8"/>
			<circle fill="none" stroke="#E2CA72" stroke-miterlimit="10" cx="88.6" cy="-33.1" r="2.8"/>
		</g>
		<g>
			<circle fill="none" stroke="#E2CA72" stroke-miterlimit="10" cx="45.4" cy="-18.2" r="8.8"/>
			<circle fill="none" stroke="#E2CA72" stroke-miterlimit="10" cx="27.8" cy="-18.2" r="8.8"/>
			<circle fill="none" stroke="#E2CA72" stroke-miterlimit="10" cx="36.6" cy="-9.3" r="8.8"/>
			<circle fill="none" stroke="#E2CA72" stroke-miterlimit="10" cx="36.6" cy="-27" r="8.8"/>
			<circle fill="none" stroke="#E2CA72" stroke-miterlimit="10" cx="21.4" cy="-33.1" r="2.8"/>
			<circle fill="none" stroke="#E2CA72" stroke-miterlimit="10" cx="51.8" cy="-33.1" r="2.8"/>
		</g>
		<g>
			<circle fill="none" stroke="#E2CA72" stroke-miterlimit="10" cx="100.7" cy="-54.5" r="8.8"/>
			<circle fill="none" stroke="#E2CA72" stroke-miterlimit="10" cx="83" cy="-54.5" r="8.8"/>
			<circle fill="none" stroke="#E2CA72" stroke-miterlimit="10" cx="91.9" cy="-45.7" r="8.8"/>
			<circle fill="none" stroke="#E2CA72" stroke-miterlimit="10" cx="91.9" cy="-63.4" r="8.8"/>
			<circle fill="none" stroke="#E2CA72" stroke-miterlimit="10" cx="76.7" cy="-69.5" r="2.8"/>
			
				<ellipse transform="matrix(0.2298 -0.9732 0.9732 0.2298 97.6305 44.1485)" fill="none" stroke="#E2CA72" stroke-miterlimit="10" cx="76.7" cy="-39.6" rx="2.8" ry="2.8"/>
		</g>
		<g>
			<circle fill="none" stroke="#E2CA72" stroke-miterlimit="10" cx="63.9" cy="-54.5" r="8.8"/>
			<circle fill="none" stroke="#E2CA72" stroke-miterlimit="10" cx="46.2" cy="-54.5" r="8.8"/>
			<circle fill="none" stroke="#E2CA72" stroke-miterlimit="10" cx="55" cy="-45.7" r="8.8"/>
			<circle fill="none" stroke="#E2CA72" stroke-miterlimit="10" cx="55" cy="-63.4" r="8.8"/>
			<circle fill="none" stroke="#E2CA72" stroke-miterlimit="10" cx="39.9" cy="-69.5" r="2.8"/>
			<circle fill="none" stroke="#E2CA72" stroke-miterlimit="10" cx="70.2" cy="-69.5" r="2.8"/>
			
				<ellipse transform="matrix(0.2298 -0.9732 0.9732 0.2298 69.2456 8.2827)" fill="none" stroke="#E2CA72" stroke-miterlimit="10" cx="39.9" cy="-39.6" rx="2.8" ry="2.8"/>
			<circle fill="none" stroke="#E2CA72" stroke-miterlimit="10" cx="70.2" cy="-39.6" r="2.8"/>
		</g>
		<g>
			<circle fill="none" stroke="#E2CA72" stroke-miterlimit="10" cx="27" cy="-54.5" r="8.8"/>
			<circle fill="none" stroke="#E2CA72" stroke-miterlimit="10" cx="9.3" cy="-54.5" r="8.8"/>
			<circle fill="none" stroke="#E2CA72" stroke-miterlimit="10" cx="18.2" cy="-45.7" r="8.8"/>
			<circle fill="none" stroke="#E2CA72" stroke-miterlimit="10" cx="18.2" cy="-63.4" r="8.8"/>
			<circle fill="none" stroke="#E2CA72" stroke-miterlimit="10" cx="33.3" cy="-69.5" r="2.8"/>
			<circle fill="none" stroke="#E2CA72" stroke-miterlimit="10" cx="33.3" cy="-39.6" r="2.8"/>
		</g>
		<g>
			<circle fill="none" stroke="#E2CA72" stroke-miterlimit="10" cx="82.3" cy="-90.9" r="8.8"/>
			<circle fill="none" stroke="#E2CA72" stroke-miterlimit="10" cx="64.6" cy="-90.9" r="8.8"/>
			<circle fill="none" stroke="#E2CA72" stroke-miterlimit="10" cx="73.5" cy="-82" r="8.8"/>
			<circle fill="none" stroke="#E2CA72" stroke-miterlimit="10" cx="73.5" cy="-99.7" r="8.8"/>
			
				<ellipse transform="matrix(0.2298 -0.9732 0.9732 0.2298 118.8189 -1.7854)" fill="none" stroke="#E2CA72" stroke-miterlimit="10" cx="58.3" cy="-76" rx="2.8" ry="2.8"/>
			<circle fill="none" stroke="#E2CA72" stroke-miterlimit="10" cx="88.6" cy="-76" r="2.8"/>
		</g>
		<g>
			<circle fill="none" stroke="#E2CA72" stroke-miterlimit="10" cx="45.4" cy="-90.9" r="8.8"/>
			<circle fill="none" stroke="#E2CA72" stroke-miterlimit="10" cx="27.8" cy="-90.9" r="8.8"/>
			<circle fill="none" stroke="#E2CA72" stroke-miterlimit="10" cx="36.6" cy="-82" r="8.8"/>
			<circle fill="none" stroke="#E2CA72" stroke-miterlimit="10" cx="36.6" cy="-99.7" r="8.8"/>
			
				<ellipse transform="matrix(0.2298 -0.9732 0.9732 0.2298 90.434 -37.6513)" fill="none" stroke="#E2CA72" stroke-miterlimit="10" cx="21.4" cy="-76" rx="2.8" ry="2.8"/>
			<circle fill="none" stroke="#E2CA72" stroke-miterlimit="10" cx="51.8" cy="-76" r="2.8"/>
		</g>
	</g>
</pattern>
<g>
	<pattern  id="SVGID_1_" xlink:href="#New_Pattern_Swatch_5" patternTransform="matrix(1 0 0 1 2 42.04)">
	</pattern>
	<path fill="url(#SVGID_1_)" stroke="url(#New_Pattern_Swatch_5)" stroke-miterlimit="10" d="M-348.4,205.4
		c-6.4,0-12.2-2.1-17.5-6.2c-5.3-4.1-8-9.5-8-16c0-6.5,2-11.9,6-16c4-4.1,8.7-6.2,14-6.2c5.3,0,9.8,1.7,13.4,5.1
		c3.6,3.4,5.4,7.6,5.4,12.5c0,5-1.5,9.2-4.6,12.6c-3,3.4-7.1,5.2-12.2,5.2c-2.9,0-5.3-0.5-7.4-1.6c-2.1-1-3.4-2.1-4.1-3.1l-1-1.8
		c-0.8-1.6-1.6-2.3-2.3-2.3c-1.2,0-1.8,0.6-1.8,1.8c0,0.3,0.4,1.3,1.3,3.2c0.8,1.9,2.9,3.9,6.3,6c3.4,2.1,7.2,3.2,11.5,3.2
		c7.4,0,13-2.3,16.8-6.9c3.8-4.6,5.7-9.6,5.7-14.9c0-5.3-0.7-9.7-2.2-13c-1.5-3.4-3.3-6-5.3-8c-4.4-3.8-8.4-6.1-12.1-7l-2.1-0.6
		V32.6h-14.2v-3.1h70.4v3.1h-16.3v125.2c0,15.3-3.6,27.1-10.8,35.3C-326.5,201.3-336.2,205.4-348.4,205.4z"/>
</g>
<g>
	
		<pattern  id="SVGID_00000059990354053549879220000004337939640670506417_" xlink:href="#Nueva_muestra_de_motivo_3" patternTransform="matrix(1 0 0 1 44.0766 67.2934)">
	</pattern>
	<path fill="url(#SVGID_00000059990354053549879220000004337939640670506417_)" d="M-180.4,151.8c-9.5,8.9-21.8,13.3-37.1,13.3
		c-15.3,0-27.7-4.4-37.1-13.3c-9.5-8.9-14.2-20.6-14.2-35.1c0-14.5,4.7-26.2,14.2-35.1c9.5-8.9,21.8-13.3,37.1-13.3
		c15.3,0,27.7,4.4,37.1,13.3c9.5,8.9,14.2,20.6,14.2,35.1C-166.2,131.2-170.9,142.9-180.4,151.8z M-208.1,151.8
		c1.8-6.5,2.6-18.2,2.6-35.1c0-16.9-0.9-28.6-2.6-35.1c-1.8-6.5-4.9-9.8-9.4-9.8c-4.5,0-7.7,3.3-9.4,9.8c-1.8,6.5-2.6,18.2-2.6,35.1
		c0,16.9,0.9,28.6,2.6,35.1c1.8,6.5,4.9,9.8,9.4,9.8C-213,161.6-209.8,158.4-208.1,151.8z"/>
</g>
<g>
	<path fill="url(#KoreanPattern)" d="M-128.4,31.7h-13.8v-3.1h11.7c14.1,0,27.1-1.2,38.9-3.7v62h1c2.5-6.2,5.9-10.6,10.2-13.2
		c4.3-2.6,10-3.9,17-3.9c11.1,0,19,3.5,23.5,10.4c4.5,6.9,6.8,16.8,6.8,29.7v50h12.1v3.1h-60.1v-3.1h12.1V118
		c0-13.4-0.6-23.1-1.8-29.3c-1.2-6.2-3.8-9.2-7.8-9.2c-4.5,0-8,4.1-10.3,12.3c-2.3,8.2-3.5,17.9-3.5,29.1v42h-48v-3.1h12.1V31.7z"/>
</g>
<g>
	<path fill="url(#Korean_Pattern)" d="M49.7,153.4c2.9,6.1,8.3,9.1,16.1,9.1c7.8,0,14.6-2.5,20.4-7.6c5.8-5.1,9.5-11.9,11.2-20.4
		l0.4-1.8l3.5,0.6c-1.8,10.6-6.3,18.9-13.4,24.9c-7.1,6-16.4,8.9-27.8,8.9c-17.2,0-30.6-4.1-40.1-12.3c-9.5-8.2-14.2-20.1-14.2-35.5
		c0-15.4,4.5-27.4,13.6-36.1c9.1-8.6,21.4-12.9,36.9-12.9c12.7,0,23.3,2.4,31.8,7.1c8.5,4.7,12.7,12,12.7,21.9c0,9.9-4,16.9-11.9,21
		c-7.9,4.2-18.2,6.2-30.9,6.2H45.3C45.3,138.4,46.8,147.3,49.7,153.4z M45.1,109.1v14H50c5.8,0,9.9-2,12.2-5.9
		c2.3-4,3.4-9.8,3.4-17.4c0-17.2-3-25.9-9.1-25.9c-4,0-6.9,2.3-8.7,7C46,85.6,45.1,95,45.1,109.1z"/>
</g>
<g>
	<path fill="url(#KoreanPattern_2)" d="M179.1,148.3c2.9,6.1,8.3,9.1,16.2,9.1c7.9,0,14.7-2.5,20.6-7.6c5.8-5.1,9.6-11.9,11.3-20.4
		l0.4-1.8l3.5,0.6c-1.8,10.6-6.3,18.9-13.5,24.9c-7.2,6-16.5,8.9-28,8.9c-17.4,0-30.8-4.1-40.3-12.3c-9.5-8.2-14.3-20.1-14.3-35.5
		c0-15.4,4.6-27.4,13.7-36.1c9.1-8.6,21.5-12.9,37.2-12.9c12.8,0,23.5,2.4,32,7.1c8.5,4.7,12.8,12,12.8,21.9c0,9.9-4,16.9-11.9,21
		c-8,4.2-18.3,6.2-31.1,6.2h-12.9C174.7,133.2,176.1,142.2,179.1,148.3z M174.5,103.9v14h4.9c5.9,0,9.9-2,12.2-5.9
		c2.3-4,3.4-9.8,3.4-17.4c0-17.2-3.1-25.9-9.2-25.9c-4,0-6.9,2.3-8.7,7C175.3,80.4,174.5,89.8,174.5,103.9z"/>
</g>
<g>
	<g>
		
			<pattern  id="SVGID_00000052796501819006621800000014088695402341291198_" xlink:href="#New_Pattern_Swatch_5" patternTransform="matrix(1 0 0 1 2 42.04)">
		</pattern>
		
			<path fill="url(#SVGID_00000052796501819006621800000014088695402341291198_)" stroke="url(#New_Pattern_Swatch_5)" stroke-miterlimit="10" d="
			M417.4,45.2c0-8.6-6.7-12.8-20.2-12.8h-5.4v-3.1h56.4v3.1c-11.8,0-19.6,4-23.5,11.9L397,107.4v53.1h12.4v3.1h-64.6v-3.1h12.4v-50
			l-36.6-78.2h-11.3v-3.1h70.2v3.1h-16.9l32.3,69.4l18.5-42.4C416.1,53.8,417.4,49.1,417.4,45.2z"/>
	</g>
</g>
<g>
	<g>
		
			<pattern  id="SVGID_00000052804327467383074930000013052982554276928395_" xlink:href="#Nueva_muestra_de_motivo_3" patternTransform="matrix(1 0 0 1 44.0766 67.2934)">
		</pattern>
		<path fill="url(#SVGID_00000052804327467383074930000013052982554276928395_)" d="M498.4,152.2c2.9,6.1,8.3,9.1,16.1,9.1
			c7.8,0,14.6-2.5,20.4-7.6c5.8-5.1,9.5-11.9,11.2-20.4l0.4-1.8l3.5,0.6c-1.8,10.6-6.3,18.9-13.4,24.9c-7.1,6-16.4,8.9-27.8,8.9
			c-17.2,0-30.6-4.1-40.1-12.3c-9.5-8.2-14.2-20.1-14.2-35.5c0-15.4,4.5-27.4,13.6-36.1c9.1-8.6,21.4-12.9,36.9-12.9
			c12.7,0,23.3,2.4,31.8,7.1c8.5,4.7,12.7,12,12.7,21.9c0,9.9-4,16.9-11.9,21c-7.9,4.2-18.2,6.2-30.9,6.2H494
			C494,137.2,495.5,146.1,498.4,152.2z M493.8,107.9v14h4.9c5.8,0,9.9-2,12.2-5.9c2.3-4,3.4-9.8,3.4-17.4c0-17.2-3-25.9-9.1-25.9
			c-4,0-6.9,2.3-8.7,7C494.7,84.3,493.8,93.7,493.8,107.9z"/>
	</g>
</g>
<g>
	<g>
		<path fill="url(#KoreanPattern)" d="M680.8,155.9c-9.5,8.9-21.8,13.3-37.1,13.3c-15.3,0-27.7-4.4-37.1-13.3
			c-9.5-8.9-14.2-20.6-14.2-35.1c0-14.5,4.7-26.2,14.2-35.1c9.5-8.9,21.8-13.3,37.1-13.3c15.3,0,27.7,4.4,37.1,13.3
			c9.5,8.9,14.2,20.6,14.2,35.1C695,135.3,690.2,147,680.8,155.9z M653.1,155.9c1.8-6.5,2.6-18.2,2.6-35.1c0-16.9-0.9-28.6-2.6-35.1
			c-1.8-6.5-4.9-9.8-9.4-9.8c-4.5,0-7.7,3.3-9.4,9.8c-1.8,6.5-2.6,18.2-2.6,35.1c0,16.9,0.9,28.6,2.6,35.1c1.8,6.5,4.9,9.8,9.4,9.8
			C648.2,165.7,651.3,162.4,653.1,155.9z"/>
	</g>
</g>
<g>
	<g>
		<path fill="url(#Korean_Pattern)" d="M863.9,69.2c11.1,0,19,3.5,23.5,10.4c4.5,6.9,6.8,16.8,6.8,29.7v50h12.1v3.1h-60.1v-3.1h12.1
			v-41.8c0-13.2-0.6-22.8-1.8-28.8c-1.2-6-3.8-8.9-7.8-8.9c-4.5,0-8,4.8-10.3,14.5c-2.3,9.7-3.5,20.3-3.5,32v36.2h-43.9v-3.1H803
			v-41.8c0-13.2-0.6-22.8-1.8-28.8c-1.2-6-3.8-8.9-7.8-8.9c-4.5,0-8,4.8-10.3,14.5c-2.3,9.7-3.5,20.3-3.5,32v36.2h-48v-3.1h12.1V76
			h-13.8v-3.1h11.7c14.1,0,27.1-1.2,38.9-3.7v19.1h1c5.1-12.7,14.2-19.1,27.3-19.1c13.2,0,22.1,6.4,26.7,19.2l0.2-0.2h1
			C841.7,75.5,850.8,69.2,863.9,69.2z"/>
	</g>
</g>
<g>
</g>
<g>
</g>
<g>
</g>
<g>
</g>
<g>
</g>
<g>
</g>
<g>
</g>
<g>
</g>
<g>
</g>
<g>
</g>
<g>
</g>
</svg>
