<?xml version="1.0" encoding="UTF-8"?>
<svg id="Layer_1" data-name="Layer 1" xmlns="http://www.w3.org/2000/svg" viewBox="0 0 133.02 132.12">
  <defs>
    <style>
      .cls-1 {
        fill: none;
        stroke-width: 4px;
      }

      .cls-1, .cls-2 {
        stroke: #feddc8;
        stroke-miterlimit: 10;
      }

      .cls-2 {
        fill: #cc719e;
        stroke-width: 3px;
      }
    </style>
  </defs>
  <path class="cls-2" d="M119.24,130.62H13.78c-6.78,0-12.28-5.53-12.28-12.36V13.86C1.5,7.03,7,1.5,13.78,1.5h80.29c4.14,0,8.15,1.43,11.36,4.05l21.15,17.28c3.13,2.56,4.95,6.39,4.95,10.43v85.08c0,6.78-5.5,12.28-12.28,12.28h0Z"/>
  <path class="cls-1" d="M75.92,1.5v27.3c0,5.23-4.3,9.46-9.61,9.46h-32.22c-4.94,0-8.94-3.94-8.94-8.81V1.5"/>
  <path class="cls-1" d="M31.09,130.4v-27.3c0-5.23,6.13-9.46,13.7-9.46h45.93c7.04,0,12.75,3.94,12.75,8.81v27.96"/>
</svg>