<?xml version="1.0" encoding="utf-8"?>
<!-- Generator: Adobe Illustrator 26.5.0, SVG Export Plug-In . SVG Version: 6.00 Build 0)  -->
<svg version="1.1" id="Layer_1" xmlns="http://www.w3.org/2000/svg" xmlns:xlink="http://www.w3.org/1999/xlink" x="0px" y="0px"
	 viewBox="0 0 1920 1080" enable-background="new 0 0 1920 1080" xml:space="preserve">
<pattern  width="57" height="57" patternUnits="userSpaceOnUse" id="traditional_pattern_2" viewBox="4.8 -61.8 57 57" overflow="visible">
	<g>
		<rect x="4.8" y="-61.8" fill="none" width="57" height="57"/>
		<g>
			<g>
				<path fill="none" stroke="#B4BACF" stroke-width="0.5" stroke-miterlimit="10" d="M48.7-0.1c-0.2-0.8-0.3-1.6-0.3-2.4
					c0-0.8,0.1-1.7,0.3-2.4"/>
				<path fill="none" stroke="#B4BACF" stroke-width="0.5" stroke-miterlimit="10" d="M57.1-13.3c0.8-0.2,1.5-0.3,2.4-0.3
					c0.8,0,1.6,0.1,2.4,0.3"/>
			</g>
		</g>
		<g>
			<g>
				<path fill="none" stroke="#B4BACF" stroke-width="0.5" stroke-miterlimit="10" d="M13.2-4.9c0.2,0.8,0.3,1.6,0.3,2.4
					c0,0.8-0.1,1.6-0.3,2.4"/>
				<path fill="none" stroke="#B4BACF" stroke-width="0.5" stroke-miterlimit="10" d="M0.1-13.3c0.8-0.2,1.5-0.3,2.4-0.3
					c0.8,0,1.6,0.1,2.4,0.3"/>
			</g>
		</g>
		<g>
			<path fill="none" stroke="#B4BACF" stroke-width="0.5" stroke-miterlimit="10" d="M60-59L60-59c15.5,0,28,12.5,28,28l0,0
				C72.6-31,60-43.6,60-59z"/>
			<path fill="none" stroke="#B4BACF" stroke-width="0.5" stroke-miterlimit="10" d="M60-3L60-3c0-15.5,12.5-28,28-28l0,0
				C88-15.6,75.5-3,60-3z"/>
			<line fill="none" stroke="#B4BACF" stroke-width="0.5" stroke-miterlimit="10" x1="60" y1="-59" x2="116" y2="-3"/>
			<line fill="none" stroke="#B4BACF" stroke-width="0.5" stroke-miterlimit="10" x1="60" y1="-3" x2="116" y2="-59"/>
		</g>
		<g>
			<path fill="none" stroke="#B4BACF" stroke-width="0.5" stroke-miterlimit="10" d="M59-59L59-59c0,15.5-12.5,28-28,28l0,0
				C31-46.5,43.6-59,59-59z"/>
			<path fill="none" stroke="#B4BACF" stroke-width="0.5" stroke-miterlimit="10" d="M3-59L3-59c15.5,0,28,12.5,28,28l0,0
				C15.6-31,3-43.6,3-59z"/>
			<path fill="none" stroke="#B4BACF" stroke-width="0.5" stroke-miterlimit="10" d="M3-3L3-3c0-15.5,12.5-28,28-28l0,0
				C31-15.6,18.5-3,3-3z"/>
			<path fill="none" stroke="#B4BACF" stroke-width="0.5" stroke-miterlimit="10" d="M59-3L59-3C43.6-3,31-15.6,31-31l0,0
				C46.5-31,59-18.5,59-3z"/>
			
				<ellipse transform="matrix(1 -5.207906e-03 5.207906e-03 1 0.162 0.1612)" fill="none" stroke="#B4BACF" stroke-width="0.5" stroke-miterlimit="10" cx="31" cy="-31" rx="20.2" ry="20.2"/>
			<g>
				<path fill="none" stroke="#B4BACF" stroke-width="0.5" stroke-miterlimit="10" d="M48.7-57.1c-0.2-0.8-0.3-1.6-0.3-2.4
					c0-0.8,0.1-1.7,0.3-2.4"/>
				<path fill="none" stroke="#B4BACF" stroke-width="0.5" stroke-miterlimit="10" d="M61.9-48.7c-0.8,0.2-1.6,0.3-2.4,0.3
					c-0.8,0-1.6-0.1-2.4-0.3"/>
				<path fill="none" stroke="#B4BACF" stroke-width="0.5" stroke-miterlimit="10" d="M70.2-61.9c0.2,0.8,0.3,1.6,0.3,2.4
					c0,0.8-0.1,1.6-0.3,2.4"/>
				<path fill="none" stroke="#B4BACF" stroke-width="0.5" stroke-miterlimit="10" d="M57.1-70.3c0.8-0.2,1.5-0.3,2.4-0.3
					c0.8,0,1.6,0.1,2.4,0.3"/>
			</g>
			<line fill="none" stroke="#B4BACF" stroke-width="0.5" stroke-miterlimit="10" x1="3" y1="-59" x2="59" y2="-3"/>
			<line fill="none" stroke="#B4BACF" stroke-width="0.5" stroke-miterlimit="10" x1="3" y1="-3" x2="59" y2="-59"/>
		</g>
		<g>
			<g>
				<path fill="none" stroke="#B4BACF" stroke-width="0.5" stroke-miterlimit="10" d="M4.9-48.7c-0.8,0.2-1.6,0.3-2.4,0.3
					c-0.8,0-1.6-0.1-2.4-0.3"/>
				<path fill="none" stroke="#B4BACF" stroke-width="0.5" stroke-miterlimit="10" d="M13.2-61.9c0.2,0.8,0.3,1.6,0.3,2.4
					c0,0.8-0.1,1.6-0.3,2.4"/>
			</g>
		</g>
		<g>
			<path fill="none" stroke="#B4BACF" stroke-width="0.5" stroke-miterlimit="10" d="M60-60L60-60c0-15.5,12.5-28,28-28l0,0
				C88-72.6,75.5-60,60-60z"/>
			<line fill="none" stroke="#B4BACF" stroke-width="0.5" stroke-miterlimit="10" x1="60" y1="-116" x2="116" y2="-60"/>
			<line fill="none" stroke="#B4BACF" stroke-width="0.5" stroke-miterlimit="10" x1="60" y1="-60" x2="116" y2="-116"/>
		</g>
		<g>
			<path fill="none" stroke="#B4BACF" stroke-width="0.5" stroke-miterlimit="10" d="M3-60L3-60c0-15.5,12.5-28,28-28l0,0
				C31-72.6,18.5-60,3-60z"/>
			<path fill="none" stroke="#B4BACF" stroke-width="0.5" stroke-miterlimit="10" d="M59-60L59-60c-15.5,0-28-12.5-28-28l0,0
				C46.5-88,59-75.5,59-60z"/>
			<line fill="none" stroke="#B4BACF" stroke-width="0.5" stroke-miterlimit="10" x1="3" y1="-116" x2="59" y2="-60"/>
			<line fill="none" stroke="#B4BACF" stroke-width="0.5" stroke-miterlimit="10" x1="3" y1="-60" x2="59" y2="-116"/>
		</g>
	</g>
</pattern>
<rect x="-16.9" y="-9.6" fill="#FFDDC8" width="1954.3" height="1099.3"/>
<rect x="-16.8" y="-9.5" opacity="0.4" fill="url(#traditional_pattern_2)" stroke="url(#traditional_pattern_2)" stroke-miterlimit="10" width="1954.3" height="1098.3"/>
</svg>
