<?xml version="1.0" encoding="utf-8"?>
<!-- Generator: Adobe Illustrator 26.5.0, SVG Export Plug-In . SVG Version: 6.00 Build 0)  -->
<svg version="1.1" id="Layer_1" xmlns="http://www.w3.org/2000/svg" xmlns:xlink="http://www.w3.org/1999/xlink" x="0px" y="0px"
	 viewBox="0 0 1921 1081" style="enable-background:new 0 0 1921 1081;" xml:space="preserve">
<style type="text/css">
	.st0{fill:none;}
	.st1{fill:none;stroke:#FFFFFF;stroke-width:0.5;stroke-miterlimit:10;}
	.st2{fill:#003853;}
	.st3{opacity:0.1;fill:url(#SVGID_1_);stroke:url(#traditional_pattern);stroke-miterlimit:10;}
</style>
<pattern  x="0.1" y="0.6" width="34.1" height="34.1" patternUnits="userSpaceOnUse" id="traditional_pattern" viewBox="1.5 -35.6 34.1 34.1" style="overflow:visible;">
	<g>
		<rect x="1.5" y="-35.6" class="st0" width="34.1" height="34.1"/>
		<g>
			<g>
				<path class="st1" d="M29.1-0.1C29-0.5,29-1,29-1.5C29-2,29-2.5,29.1-3"/>
				<path class="st1" d="M34.2-8c0.5-0.1,0.9-0.2,1.4-0.2c0.5,0,1,0.1,1.4,0.2"/>
			</g>
		</g>
		<g>
			<g>
				<path class="st1" d="M8-3c0.1,0.5,0.2,1,0.2,1.5c0,0.5-0.1,1-0.2,1.4"/>
				<path class="st1" d="M0.1-8C0.5-8.1,1-8.1,1.5-8.1c0.5,0,1,0.1,1.4,0.2"/>
			</g>
		</g>
		<g>
			<path class="st1" d="M35.4-35.4L35.4-35.4c0,9.3-7.5,16.8-16.8,16.8l0,0C18.6-27.8,26.1-35.4,35.4-35.4z"/>
			<path class="st1" d="M1.7-35.4L1.7-35.4c9.3,0,16.8,7.5,16.8,16.8l0,0C9.3-18.6,1.7-26.1,1.7-35.4z"/>
			<path class="st1" d="M1.7-1.7L1.7-1.7c0-9.3,7.5-16.8,16.8-16.8l0,0C18.6-9.3,11-1.7,1.7-1.7z"/>
			<path class="st1" d="M35.4-1.7L35.4-1.7c-9.3,0-16.8-7.5-16.8-16.8l0,0C27.8-18.6,35.4-11,35.4-1.7z"/>
			
				<ellipse transform="matrix(1 -5.207906e-03 5.207906e-03 1 9.687957e-02 9.637643e-02)" class="st1" cx="18.6" cy="-18.6" rx="12.1" ry="12.1"/>
			<g>
				<path class="st1" d="M29.1-34.2C29-34.6,29-35.1,29-35.6c0-0.5,0.1-1,0.2-1.5"/>
				<path class="st1" d="M37.1-29.1c-0.5,0.1-1,0.2-1.5,0.2c-0.5,0-1-0.1-1.4-0.2"/>
				<path class="st1" d="M42.1-37.1c0.1,0.5,0.2,1,0.2,1.5c0,0.5-0.1,1-0.2,1.4"/>
				<path class="st1" d="M34.2-42.1c0.5-0.1,0.9-0.2,1.4-0.2c0.5,0,1,0.1,1.4,0.2"/>
			</g>
			<line class="st1" x1="1.7" y1="-35.4" x2="35.4" y2="-1.7"/>
			<line class="st1" x1="1.7" y1="-1.7" x2="35.4" y2="-35.4"/>
		</g>
		<g>
			<g>
				<path class="st1" d="M3-29.1C2.5-29,2-29,1.5-29c-0.5,0-1-0.1-1.4-0.2"/>
				<path class="st1" d="M8-37.1c0.1,0.5,0.2,1,0.2,1.5c0,0.5-0.1,1-0.2,1.4"/>
			</g>
		</g>
	</g>
</pattern>
<g>
	<rect x="-50" y="-28.1" class="st2" width="2019.9" height="1136.2"/>
	<pattern  id="SVGID_1_" xlink:href="#traditional_pattern" patternTransform="matrix(1 0 0 1 14.008 3.5)">
	</pattern>
	<rect x="-49.4" y="-27.6" class="st3" width="2019.9" height="1136.2"/>
</g>
</svg>
