<?xml version="1.0" encoding="utf-8"?>
<!-- Generator: Adobe Illustrator 26.5.0, SVG Export Plug-In . SVG Version: 6.00 Build 0)  -->
<svg version="1.1" id="Layer_1" xmlns="http://www.w3.org/2000/svg" xmlns:xlink="http://www.w3.org/1999/xlink" x="0px" y="0px"
	 viewBox="0 0 37 37" enable-background="new 0 0 37 37" xml:space="preserve">
<g>
	<g>
		<g>
			<path fill="#C0618C" d="M7.7,18.9c-1.5,0.4-2.9,0.8-3.7,1.1c-3,1.2-4.6,3.8-3.7,5.9c0.4,1,1.3,1.7,2.5,2c1.3,0.3,2.8,0.2,4.4-0.4
				c0.9-0.4,2.1-1,3.4-1.9l6.7-6.7L7.7,18.9z"/>
			<path fill="#C0618C" d="M18,19.7l-6.7,6.7c-0.8,1.3-1.5,2.6-1.9,3.4c-1.2,3-0.6,6,1.5,6.8c1,0.4,2.1,0.3,3.2-0.4
				c1.2-0.7,2.1-1.9,2.8-3.4c0.4-0.9,0.8-2.2,1.1-3.7V19.7z"/>
		</g>
		<g>
			<path fill="#C0618C" d="M18.9,29.2c0.4,1.5,0.8,2.9,1.1,3.7c1.2,3,3.8,4.6,5.9,3.7c1-0.4,1.7-1.3,2-2.5c0.3-1.3,0.2-2.8-0.4-4.4
				c-0.4-0.9-1-2.1-1.9-3.4l-6.7-6.7L18.9,29.2z"/>
			<path fill="#C0618C" d="M19.7,18.9l6.7,6.7c1.3,0.8,2.6,1.5,3.4,1.9c3,1.2,6,0.6,6.8-1.5c0.4-1,0.3-2.1-0.4-3.2
				c-0.7-1.2-1.9-2.1-3.4-2.8c-0.9-0.4-2.2-0.8-3.7-1.1H19.7z"/>
		</g>
		<g>
			<path fill="#C0618C" d="M18.9,17.2l6.7-6.7c0.8-1.3,1.5-2.6,1.9-3.4C28.1,5.6,28.3,4,28,2.7c-0.3-1.2-1-2.1-2-2.5
				C23.9-0.6,21.3,1,20.1,4c-0.4,0.9-0.8,2.2-1.1,3.7L18.9,17.2z"/>
			<path fill="#C0618C" d="M29.2,18c1.5-0.4,2.9-0.8,3.7-1.1c1.5-0.6,2.7-1.6,3.4-2.8c0.6-1.1,0.8-2.2,0.4-3.2
				c-0.9-2.1-3.9-2.8-6.8-1.5c-0.9,0.4-2.1,1-3.4,1.9L19.7,18H29.2z"/>
		</g>
		<g>
			<path fill="#C0618C" d="M18,7.7c-0.4-1.5-0.8-2.9-1.1-3.7c-1.2-3-3.8-4.6-5.9-3.7c-1,0.4-1.7,1.3-2,2.5C8.7,4,8.8,5.6,9.4,7.1
				c0.4,0.9,1,2.1,1.9,3.4l6.7,6.7L18,7.7z"/>
			<path fill="#C0618C" d="M17.2,18l-6.7-6.7c-1.3-0.8-2.6-1.5-3.4-1.9c-3-1.2-6-0.6-6.8,1.5c-0.4,1-0.3,2.1,0.4,3.2
				c0.7,1.2,1.9,2.1,3.4,2.8c0.9,0.4,2.2,0.8,3.7,1.1H17.2z"/>
		</g>
	</g>
</g>
</svg>
