<?xml version="1.0" encoding="utf-8"?>
<!-- Generator: Adobe Illustrator 26.5.0, SVG Export Plug-In . SVG Version: 6.00 Build 0)  -->
<svg version="1.1" id="Layer_1" xmlns="http://www.w3.org/2000/svg" xmlns:xlink="http://www.w3.org/1999/xlink" x="0px" y="0px"
	 viewBox="0 0 35.2 35.2" enable-background="new 0 0 35.2 35.2" xml:space="preserve">
<g>
	<g>
		<path fill="#A9CDA3" d="M7.3,18c-1.4,0.3-2.7,0.7-3.6,1.1c-2.8,1.2-4.4,3.6-3.6,5.6c0.4,0.9,1.2,1.6,2.4,1.9
			c1.2,0.3,2.7,0.2,4.1-0.4c0.8-0.3,2-1,3.3-1.8l6.4-6.4L7.3,18z"/>
		<path fill="#A9CDA3" d="M17.1,18.8l-6.4,6.4C10,26.4,9.3,27.6,9,28.4c-1.2,2.8-0.5,5.7,1.5,6.5c0.9,0.4,2,0.3,3-0.3
			c1.1-0.6,2-1.8,2.6-3.2c0.3-0.8,0.7-2.1,1.1-3.6V18.8z"/>
	</g>
	<g>
		<path fill="#A9CDA3" d="M18,27.8c0.3,1.4,0.7,2.7,1.1,3.6c1.2,2.8,3.6,4.4,5.6,3.6c0.9-0.4,1.6-1.2,1.9-2.4
			c0.3-1.2,0.2-2.7-0.4-4.1c-0.3-0.8-1-2-1.8-3.3L18,18.8L18,27.8z"/>
		<path fill="#A9CDA3" d="M18.8,18l6.4,6.4c1.3,0.8,2.5,1.4,3.3,1.8c2.8,1.2,5.7,0.5,6.5-1.5c0.4-0.9,0.3-2-0.3-3
			c-0.6-1.1-1.8-2-3.2-2.6c-0.8-0.3-2.1-0.7-3.6-1.1H18.8z"/>
	</g>
	<g>
		<path fill="#A9CDA3" d="M18,16.4l6.4-6.4c0.8-1.3,1.4-2.5,1.8-3.3c0.6-1.4,0.7-2.9,0.4-4.1c-0.3-1.1-1-2-1.9-2.4
			c-2-0.8-4.5,0.7-5.6,3.6c-0.3,0.8-0.7,2.1-1.1,3.6L18,16.4z"/>
		<path fill="#A9CDA3" d="M27.8,17.1c1.4-0.3,2.7-0.7,3.6-1.1c1.4-0.6,2.6-1.5,3.2-2.6c0.6-1,0.7-2.1,0.3-3c-0.8-2-3.7-2.6-6.5-1.5
			c-0.8,0.3-2,1-3.3,1.8l-6.4,6.4H27.8z"/>
	</g>
	<g>
		<path fill="#A9CDA3" d="M17.1,7.3c-0.3-1.4-0.7-2.7-1.1-3.6c-1.2-2.8-3.6-4.4-5.6-3.6C9.5,0.6,8.9,1.4,8.6,2.6
			C8.2,3.8,8.4,5.3,9,6.7c0.3,0.8,1,2,1.8,3.3l6.4,6.4L17.1,7.3z"/>
		<path fill="#A9CDA3" d="M16.4,17.1L10,10.7C8.7,10,7.5,9.3,6.7,9C3.9,7.8,1,8.5,0.2,10.4c-0.4,0.9-0.3,2,0.3,3
			c0.6,1.1,1.8,2,3.2,2.6c0.8,0.3,2.1,0.7,3.6,1.1H16.4z"/>
	</g>
</g>
</svg>
