<?xml version="1.0" encoding="utf-8"?>
<!-- Generator: Adobe Illustrator 26.5.0, SVG Export Plug-In . SVG Version: 6.00 Build 0)  -->
<svg version="1.1" id="Layer_1" xmlns="http://www.w3.org/2000/svg" xmlns:xlink="http://www.w3.org/1999/xlink" x="0px" y="0px"
	 viewBox="0 0 104.2 218.6" enable-background="new 0 0 104.2 218.6" xml:space="preserve">
<pattern  x="-1198.7" y="-463.4" width="73.7" height="72.7" patternUnits="userSpaceOnUse" id="Nueva_muestra_de_motivo_3" viewBox="18.2 -90.9 73.7 72.7" overflow="visible">
	<g>
		<rect x="18.2" y="-90.9" fill="none" width="73.7" height="72.7"/>
		<g>
			<circle fill="none" stroke="#E2CA72" stroke-miterlimit="10" cx="82.3" cy="-18.2" r="8.8"/>
			<circle fill="none" stroke="#E2CA72" stroke-miterlimit="10" cx="64.6" cy="-18.2" r="8.8"/>
			<circle fill="none" stroke="#E2CA72" stroke-miterlimit="10" cx="73.5" cy="-9.3" r="8.8"/>
			<circle fill="none" stroke="#E2CA72" stroke-miterlimit="10" cx="73.5" cy="-27" r="8.8"/>
			<circle fill="none" stroke="#E2CA72" stroke-miterlimit="10" cx="58.3" cy="-33.1" r="2.8"/>
			<circle fill="none" stroke="#E2CA72" stroke-miterlimit="10" cx="88.6" cy="-33.1" r="2.8"/>
		</g>
		<g>
			<circle fill="none" stroke="#E2CA72" stroke-miterlimit="10" cx="45.4" cy="-18.2" r="8.8"/>
			<circle fill="none" stroke="#E2CA72" stroke-miterlimit="10" cx="27.8" cy="-18.2" r="8.8"/>
			<circle fill="none" stroke="#E2CA72" stroke-miterlimit="10" cx="36.6" cy="-9.3" r="8.8"/>
			<circle fill="none" stroke="#E2CA72" stroke-miterlimit="10" cx="36.6" cy="-27" r="8.8"/>
			<circle fill="none" stroke="#E2CA72" stroke-miterlimit="10" cx="21.4" cy="-33.1" r="2.8"/>
			<circle fill="none" stroke="#E2CA72" stroke-miterlimit="10" cx="51.8" cy="-33.1" r="2.8"/>
		</g>
		<g>
			<circle fill="none" stroke="#E2CA72" stroke-miterlimit="10" cx="100.7" cy="-54.5" r="8.8"/>
			<circle fill="none" stroke="#E2CA72" stroke-miterlimit="10" cx="83" cy="-54.5" r="8.8"/>
			<circle fill="none" stroke="#E2CA72" stroke-miterlimit="10" cx="91.9" cy="-45.7" r="8.8"/>
			<circle fill="none" stroke="#E2CA72" stroke-miterlimit="10" cx="91.9" cy="-63.4" r="8.8"/>
			<circle fill="none" stroke="#E2CA72" stroke-miterlimit="10" cx="76.7" cy="-69.5" r="2.8"/>
			
				<ellipse transform="matrix(0.2298 -0.9732 0.9732 0.2298 97.6305 44.1485)" fill="none" stroke="#E2CA72" stroke-miterlimit="10" cx="76.7" cy="-39.6" rx="2.8" ry="2.8"/>
		</g>
		<g>
			<circle fill="none" stroke="#E2CA72" stroke-miterlimit="10" cx="63.9" cy="-54.5" r="8.8"/>
			<circle fill="none" stroke="#E2CA72" stroke-miterlimit="10" cx="46.2" cy="-54.5" r="8.8"/>
			<circle fill="none" stroke="#E2CA72" stroke-miterlimit="10" cx="55" cy="-45.7" r="8.8"/>
			<circle fill="none" stroke="#E2CA72" stroke-miterlimit="10" cx="55" cy="-63.4" r="8.8"/>
			<circle fill="none" stroke="#E2CA72" stroke-miterlimit="10" cx="39.9" cy="-69.5" r="2.8"/>
			<circle fill="none" stroke="#E2CA72" stroke-miterlimit="10" cx="70.2" cy="-69.5" r="2.8"/>
			
				<ellipse transform="matrix(0.2298 -0.9732 0.9732 0.2298 69.2456 8.2827)" fill="none" stroke="#E2CA72" stroke-miterlimit="10" cx="39.9" cy="-39.6" rx="2.8" ry="2.8"/>
			<circle fill="none" stroke="#E2CA72" stroke-miterlimit="10" cx="70.2" cy="-39.6" r="2.8"/>
		</g>
		<g>
			<circle fill="none" stroke="#E2CA72" stroke-miterlimit="10" cx="27" cy="-54.5" r="8.8"/>
			<circle fill="none" stroke="#E2CA72" stroke-miterlimit="10" cx="9.3" cy="-54.5" r="8.8"/>
			<circle fill="none" stroke="#E2CA72" stroke-miterlimit="10" cx="18.2" cy="-45.7" r="8.8"/>
			<circle fill="none" stroke="#E2CA72" stroke-miterlimit="10" cx="18.2" cy="-63.4" r="8.8"/>
			<circle fill="none" stroke="#E2CA72" stroke-miterlimit="10" cx="33.3" cy="-69.5" r="2.8"/>
			<circle fill="none" stroke="#E2CA72" stroke-miterlimit="10" cx="33.3" cy="-39.6" r="2.8"/>
		</g>
		<g>
			<circle fill="none" stroke="#E2CA72" stroke-miterlimit="10" cx="82.3" cy="-90.9" r="8.8"/>
			<circle fill="none" stroke="#E2CA72" stroke-miterlimit="10" cx="64.6" cy="-90.9" r="8.8"/>
			<circle fill="none" stroke="#E2CA72" stroke-miterlimit="10" cx="73.5" cy="-82" r="8.8"/>
			<circle fill="none" stroke="#E2CA72" stroke-miterlimit="10" cx="73.5" cy="-99.7" r="8.8"/>
			
				<ellipse transform="matrix(0.2298 -0.9732 0.9732 0.2298 118.8189 -1.7854)" fill="none" stroke="#E2CA72" stroke-miterlimit="10" cx="58.3" cy="-76" rx="2.8" ry="2.8"/>
			<circle fill="none" stroke="#E2CA72" stroke-miterlimit="10" cx="88.6" cy="-76" r="2.8"/>
		</g>
		<g>
			<circle fill="none" stroke="#E2CA72" stroke-miterlimit="10" cx="45.4" cy="-90.9" r="8.8"/>
			<circle fill="none" stroke="#E2CA72" stroke-miterlimit="10" cx="27.8" cy="-90.9" r="8.8"/>
			<circle fill="none" stroke="#E2CA72" stroke-miterlimit="10" cx="36.6" cy="-82" r="8.8"/>
			<circle fill="none" stroke="#E2CA72" stroke-miterlimit="10" cx="36.6" cy="-99.7" r="8.8"/>
			
				<ellipse transform="matrix(0.2298 -0.9732 0.9732 0.2298 90.434 -37.6513)" fill="none" stroke="#E2CA72" stroke-miterlimit="10" cx="21.4" cy="-76" rx="2.8" ry="2.8"/>
			<circle fill="none" stroke="#E2CA72" stroke-miterlimit="10" cx="51.8" cy="-76" r="2.8"/>
		</g>
	</g>
</pattern>
<g>
	<g>
		<pattern  id="SVGID_1_" xlink:href="#Nueva_muestra_de_motivo_3" patternTransform="matrix(1 0 0 1 44.0766 67.2934)">
		</pattern>
		<path fill="url(#SVGID_1_)" d="M49.7,153.4c2.9,6.1,8.3,9.1,16.1,9.1c7.8,0,14.6-2.5,20.4-7.6c5.8-5.1,9.5-11.9,11.2-20.4l0.4-1.8
			l3.5,0.6c-1.8,10.6-6.3,18.9-13.4,24.9c-7.1,6-16.4,8.9-27.8,8.9c-17.2,0-30.6-4.1-40.1-12.3c-9.5-8.2-14.2-20.1-14.2-35.5
			c0-15.4,4.5-27.4,13.6-36.1c9.1-8.6,21.4-12.9,36.9-12.9c12.7,0,23.3,2.4,31.8,7.1c8.5,4.7,12.7,12,12.7,21.9
			c0,9.9-4,16.9-11.9,21c-7.9,4.2-18.2,6.2-30.9,6.2H45.3C45.3,138.4,46.8,147.3,49.7,153.4z M45.1,109.1v14H50
			c5.8,0,9.9-2,12.2-5.9c2.3-4,3.4-9.8,3.4-17.4c0-17.2-3-25.9-9.1-25.9c-4,0-6.9,2.3-8.7,7C46,85.6,45.1,95,45.1,109.1z"/>
	</g>
</g>
</svg>
