<?xml version="1.0" encoding="utf-8"?>
<!-- Generator: Adobe Illustrator 26.5.0, SVG Export Plug-In . SVG Version: 6.00 Build 0)  -->
<svg version="1.1" id="Layer_1" xmlns="http://www.w3.org/2000/svg" xmlns:xlink="http://www.w3.org/1999/xlink" x="0px" y="0px"
	 viewBox="0 0 104.2 218.6" enable-background="new 0 0 104.2 218.6" xml:space="preserve">
<g>
	<path fill="#FFDFCA" d="M49.7,153.4c2.9,6.1,8.3,9.1,16.1,9.1c7.8,0,14.6-2.5,20.4-7.6c5.8-5.1,9.5-11.9,11.2-20.4l0.4-1.8l3.5,0.6
		c-1.8,10.6-6.3,18.9-13.4,24.9c-7.1,6-16.4,8.9-27.8,8.9c-17.2,0-30.6-4.1-40.1-12.3c-9.5-8.2-14.2-20.1-14.2-35.5
		c0-15.4,4.5-27.4,13.6-36.1c9.1-8.6,21.4-12.9,36.9-12.9c12.7,0,23.3,2.4,31.8,7.1c8.5,4.7,12.7,12,12.7,21.9c0,9.9-4,16.9-11.9,21
		c-7.9,4.2-18.2,6.2-30.9,6.2H45.3C45.3,138.4,46.8,147.3,49.7,153.4z M45.1,109.1v14H50c5.8,0,9.9-2,12.2-5.9
		c2.3-4,3.4-9.8,3.4-17.4c0-17.2-3-25.9-9.1-25.9c-4,0-6.9,2.3-8.7,7S45.1,95,45.1,109.1z"/>
</g>
</svg>
