<?xml version="1.0" encoding="utf-8"?>
<!-- Generator: Adobe Illustrator 26.5.0, SVG Export Plug-In . SVG Version: 6.00 Build 0)  -->
<svg version="1.1" id="Layer_1" xmlns="http://www.w3.org/2000/svg" xmlns:xlink="http://www.w3.org/1999/xlink" x="0px" y="0px"
	 viewBox="0 0 114.3 218.6" enable-background="new 0 0 114.3 218.6" xml:space="preserve">
<g>
	<path fill="#FFDFCA" d="M-934.8,203.4c-6.4,0-12.2-2.1-17.5-6.2c-5.3-4.1-8-9.5-8-16c0-6.5,2-11.9,6-16c4-4.1,8.7-6.2,14-6.2
		c5.3,0,9.8,1.7,13.4,5.1c3.6,3.4,5.4,7.6,5.4,12.5c0,5-1.5,9.2-4.6,12.6c-3,3.4-7.1,5.2-12.2,5.2c-2.9,0-5.3-0.5-7.4-1.6
		c-2.1-1-3.4-2.1-4.1-3.1l-1-1.8c-0.8-1.6-1.6-2.3-2.3-2.3c-1.2,0-1.8,0.6-1.8,1.8c0,0.3,0.4,1.3,1.3,3.2c0.8,1.9,2.9,3.9,6.3,6
		c3.4,2.1,7.2,3.2,11.5,3.2c7.4,0,13-2.3,16.8-6.9c3.8-4.6,5.7-9.6,5.7-14.9c0-5.3-0.7-9.7-2.2-13c-1.5-3.4-3.3-6-5.3-8
		c-4.4-3.8-8.4-6.1-12.1-7l-2.1-0.6V30.6H-949v-3.1h70.4v3.1H-895v125.2c0,15.3-3.6,27.1-10.8,35.3
		C-913,199.3-922.6,203.4-934.8,203.4z"/>
</g>
<g>
	<path fill="#FFDFCA" d="M-766.8,149.8c-9.5,8.9-21.8,13.3-37.1,13.3c-15.3,0-27.7-4.4-37.1-13.3c-9.5-8.9-14.2-20.6-14.2-35.1
		c0-14.5,4.7-26.2,14.2-35.1c9.5-8.9,21.8-13.3,37.1-13.3c15.3,0,27.7,4.4,37.1,13.3c9.5,8.9,14.2,20.6,14.2,35.1
		C-752.6,129.3-757.4,141-766.8,149.8z M-794.6,149.8c1.8-6.5,2.6-18.2,2.6-35.1c0-16.9-0.9-28.6-2.6-35.1c-1.8-6.5-4.9-9.8-9.4-9.8
		c-4.5,0-7.7,3.3-9.4,9.8c-1.8,6.5-2.6,18.2-2.6,35.1c0,16.9,0.9,28.6,2.6,35.1c1.8,6.5,4.9,9.8,9.4,9.8
		C-799.4,159.7-796.3,156.4-794.6,149.8z"/>
</g>
<g>
	<path fill="#FFDFCA" d="M-714.9,29.7h-13.8v-3.1h11.7c14.1,0,27.1-1.2,38.9-3.7v62h1c2.5-6.2,5.9-10.6,10.2-13.2
		c4.3-2.6,10-3.9,17-3.9c11.1,0,19,3.5,23.5,10.4c4.5,6.9,6.8,16.8,6.8,29.7v50h12.1v3.1h-60.1v-3.1h12.1V116
		c0-13.4-0.6-23.1-1.8-29.3c-1.2-6.2-3.8-9.2-7.8-9.2c-4.5,0-8,4.1-10.3,12.3c-2.3,8.2-3.5,17.9-3.5,29.1v42h-48v-3.1h12.1V29.7z"/>
</g>
<g>
	<path fill="#FFDFCA" d="M-536.8,151.4c2.9,6.1,8.3,9.1,16.1,9.1c7.8,0,14.6-2.5,20.4-7.6c5.8-5.1,9.5-11.9,11.2-20.4l0.4-1.8
		l3.5,0.6c-1.8,10.6-6.3,18.9-13.4,24.9c-7.1,6-16.4,8.9-27.8,8.9c-17.2,0-30.6-4.1-40.1-12.3c-9.5-8.2-14.2-20.1-14.2-35.5
		c0-15.4,4.5-27.4,13.6-36.1c9.1-8.6,21.4-12.9,36.9-12.9c12.7,0,23.3,2.4,31.8,7.1c8.5,4.7,12.7,12,12.7,21.9c0,9.9-4,16.9-11.9,21
		c-7.9,4.2-18.2,6.2-30.9,6.2h-12.8C-541.2,136.4-539.7,145.3-536.8,151.4z M-541.4,107.1v14h4.9c5.8,0,9.9-2,12.2-5.9
		c2.3-4,3.4-9.8,3.4-17.4c0-17.2-3-25.9-9.1-25.9c-4,0-6.9,2.3-8.7,7S-541.4,93-541.4,107.1z"/>
</g>
<g>
	<path fill="#FFDFCA" d="M-407.4,146.3c2.9,6.1,8.3,9.1,16.2,9.1c7.9,0,14.7-2.5,20.6-7.6c5.8-5.1,9.6-11.9,11.3-20.4l0.4-1.8
		l3.5,0.6c-1.8,10.6-6.3,18.9-13.5,24.9c-7.2,6-16.5,8.9-28,8.9c-17.4,0-30.8-4.1-40.3-12.3c-9.5-8.2-14.3-20.1-14.3-35.5
		c0-15.4,4.6-27.4,13.7-36.1c9.1-8.6,21.5-12.9,37.2-12.9c12.8,0,23.5,2.4,32,7.1c8.5,4.7,12.8,12,12.8,21.9c0,9.9-4,16.9-11.9,21
		c-8,4.2-18.3,6.2-31.1,6.2h-12.9C-411.8,131.2-410.3,140.2-407.4,146.3z M-412,101.9v14h4.9c5.9,0,9.9-2,12.2-5.9
		c2.3-4,3.4-9.8,3.4-17.4c0-17.2-3.1-25.9-9.2-25.9c-4,0-6.9,2.3-8.7,7C-411.1,78.4-412,87.8-412,101.9z"/>
</g>
<g>
	<path fill="#FFDFCA" d="M-169.1,43.2c0-8.6-6.7-12.8-20.2-12.8h-5.4v-3.1h56.4v3.1c-11.8,0-19.6,4-23.5,11.9l-27.6,63.2v53.1h12.4
		v3.1h-64.6v-3.1h12.4v-50l-36.6-78.2H-277v-3.1h70.2v3.1h-16.9l32.3,69.4l18.5-42.4C-170.4,51.8-169.1,47.1-169.1,43.2z"/>
</g>
<g>
	<path fill="#FFDFCA" d="M-88.1,150.2c2.9,6.1,8.3,9.1,16.1,9.1c7.8,0,14.6-2.5,20.4-7.6c5.8-5.1,9.5-11.9,11.2-20.4l0.4-1.8
		l3.5,0.6c-1.8,10.6-6.3,18.9-13.4,24.9c-7.1,6-16.4,8.9-27.8,8.9c-17.2,0-30.6-4.1-40.1-12.3c-9.5-8.2-14.2-20.1-14.2-35.5
		c0-15.4,4.5-27.4,13.6-36.1c9.1-8.6,21.4-12.9,36.9-12.9c12.7,0,23.3,2.4,31.8,7.1c8.5,4.7,12.7,12,12.7,21.9c0,9.9-4,16.9-11.9,21
		c-7.9,4.2-18.2,6.2-30.9,6.2h-12.8C-92.4,135.2-91,144.1-88.1,150.2z M-92.6,105.9v14h4.9c5.8,0,9.9-2,12.2-5.9
		c2.3-4,3.4-9.8,3.4-17.4c0-17.2-3-25.9-9.1-25.9c-4,0-6.9,2.3-8.7,7C-91.8,82.3-92.6,91.7-92.6,105.9z"/>
</g>
<g>
	<path fill="#FFDFCA" d="M94.3,153.9c-9.5,8.9-21.8,13.3-37.1,13.3c-15.3,0-27.7-4.4-37.1-13.3c-9.5-8.9-14.2-20.6-14.2-35.1
		c0-14.5,4.7-26.2,14.2-35.1c9.5-8.9,21.8-13.3,37.1-13.3c15.3,0,27.7,4.4,37.1,13.3c9.5,8.9,14.2,20.6,14.2,35.1
		C108.5,133.3,103.8,145,94.3,153.9z M66.6,153.9c1.8-6.5,2.6-18.2,2.6-35.1c0-16.9-0.9-28.6-2.6-35.1c-1.8-6.5-4.9-9.8-9.4-9.8
		c-4.5,0-7.7,3.3-9.4,9.8c-1.8,6.5-2.6,18.2-2.6,35.1c0,16.9,0.9,28.6,2.6,35.1c1.8,6.5,4.9,9.8,9.4,9.8
		C61.7,163.7,64.8,160.5,66.6,153.9z"/>
</g>
<g>
	<path fill="#FFDFCA" d="M277.4,67.2c11.1,0,19,3.5,23.5,10.4c4.5,6.9,6.8,16.8,6.8,29.7v50h12.1v3.1h-60.1v-3.1h12.1v-41.8
		c0-13.2-0.6-22.8-1.8-28.8c-1.2-6-3.8-8.9-7.8-8.9c-4.5,0-8,4.8-10.3,14.5c-2.3,9.7-3.5,20.3-3.5,32v36.2h-43.9v-3.1h12.1v-41.8
		c0-13.2-0.6-22.8-1.8-28.8c-1.2-6-3.8-8.9-7.8-8.9c-4.5,0-8,4.8-10.3,14.5c-2.3,9.7-3.5,20.3-3.5,32v36.2h-48v-3.1h12.1V74h-13.8
		v-3.1h11.7c14.1,0,27.1-1.2,38.9-3.7v19.1h1c5.1-12.7,14.2-19.1,27.3-19.1c13.2,0,22.1,6.4,26.7,19.3l0.2-0.2h1
		C255.2,73.5,264.3,67.2,277.4,67.2z"/>
</g>
<g>
</g>
<g>
</g>
<g>
</g>
<g>
</g>
<g>
</g>
<g>
</g>
<g>
</g>
<g>
</g>
<g>
</g>
<g>
</g>
<g>
</g>
</svg>
