<?xml version="1.0" encoding="utf-8"?>
<!-- Generator: Adobe Illustrator 26.5.0, SVG Export Plug-In . SVG Version: 6.00 Build 0)  -->
<svg version="1.1" id="Layer_1" xmlns="http://www.w3.org/2000/svg" xmlns:xlink="http://www.w3.org/1999/xlink" x="0px" y="0px"
	 viewBox="0 0 114.3 218.6" enable-background="new 0 0 114.3 218.6" xml:space="preserve">
<g>
	<path fill="#FFDFCA" d="M94.3,153.9c-9.5,8.9-21.8,13.3-37.1,13.3c-15.3,0-27.7-4.4-37.1-13.3c-9.5-8.9-14.2-20.6-14.2-35.1
		c0-14.5,4.7-26.2,14.2-35.1c9.5-8.9,21.8-13.3,37.1-13.3c15.3,0,27.7,4.4,37.1,13.3c9.5,8.9,14.2,20.6,14.2,35.1
		C108.5,133.3,103.8,145,94.3,153.9z M66.6,153.9c1.8-6.5,2.6-18.2,2.6-35.1c0-16.9-0.9-28.6-2.6-35.1c-1.8-6.5-4.9-9.8-9.4-9.8
		c-4.5,0-7.7,3.3-9.4,9.8c-1.8,6.5-2.6,18.2-2.6,35.1c0,16.9,0.9,28.6,2.6,35.1c1.8,6.5,4.9,9.8,9.4,9.8
		C61.7,163.7,64.8,160.5,66.6,153.9z"/>
</g>
</svg>
