<?xml version="1.0" encoding="utf-8"?>
<!-- Generator: Adobe Illustrator 26.5.0, SVG Export Plug-In . SVG Version: 6.00 Build 0)  -->
<svg version="1.1" id="Layer_1" xmlns="http://www.w3.org/2000/svg" xmlns:xlink="http://www.w3.org/1999/xlink" x="0px" y="0px"
	 viewBox="0 0 139.6 219.6" enable-background="new 0 0 139.6 219.6" xml:space="preserve">
<pattern  x="-1059" y="-463.2" width="62" height="49" patternUnits="userSpaceOnUse" id="New_Pattern_Swatch_5" viewBox="18 -61.2 62 49" overflow="visible">
	<g>
		<rect x="18" y="-61.2" fill="none" width="62" height="49"/>
		<g>
			
				<path id="XMLID_00000050627295438301690350000004150464384438683575_" fill="none" stroke="#95B4A0" stroke-linecap="round" stroke-linejoin="round" stroke-miterlimit="10" d="
				M97.5-18.7c0,0.2,0,0.4,0,0.5c-1.4-0.4-2.8-0.5-4.3-0.5c-5.2,0-10,2.3-13.2,6c-3.2-3.7-7.9-6-13.2-6c-1.5,0-2.9,0.2-4.3,0.5
				c0-0.2,0-0.4,0-0.5c0-9.7,7.8-17.5,17.5-17.5C89.7-36.2,97.5-28.4,97.5-18.7z"/>
			
				<path id="XMLID_00000024682523734380260850000012279350017004732076_" fill="none" stroke="#95B4A0" stroke-linecap="round" stroke-linejoin="round" stroke-miterlimit="10" d="
				M80-16.9c-3.7-3.1-8.3-4.8-13.2-4.8c-0.3,0-0.7,0-1,0C67.2-28.3,73-33.2,80-33.2s12.8,5,14.2,11.5c-0.3,0-0.7,0-1,0
				C88.3-21.7,83.7-20,80-16.9z"/>
			
				<path id="XMLID_00000027573881423599311500000006257428617227017127_" fill="none" stroke="#95B4A0" stroke-linecap="round" stroke-linejoin="round" stroke-miterlimit="10" d="
				M80-20.7c-3-2-6.4-3.3-9.9-3.8c2-3.5,5.8-5.7,9.9-5.7c4.2,0,7.9,2.3,9.9,5.7C86.4-24,83-22.7,80-20.7z"/>
			
				<path id="XMLID_00000085939534545272291300000016247616583286871468_" fill="none" stroke="#95B4A0" stroke-linecap="round" stroke-linejoin="round" stroke-miterlimit="10" d="
				M80-24.2c-1.3-0.8-2.7-1.4-4.1-1.9c1.2-0.7,2.7-1.1,4.1-1.1c1.5,0,2.9,0.4,4.1,1.1C82.7-25.6,81.3-25,80-24.2z"/>
		</g>
		<g>
			
				<path id="XMLID_00000070839113242298148470000017231525108143913398_" fill="none" stroke="#95B4A0" stroke-linecap="round" stroke-linejoin="round" stroke-miterlimit="10" d="
				M66.5-6.5c0,0.2,0,0.4,0,0.5c-1.4-0.4-2.8-0.5-4.3-0.5c-5.2,0-10,2.3-13.2,6c-3.2-3.7-7.9-6-13.2-6c-1.5,0-2.9,0.2-4.3,0.5
				c0-0.2,0-0.4,0-0.5C31.5-16.1,39.3-24,49-24C58.7-24,66.5-16.1,66.5-6.5z"/>
			
				<path id="XMLID_00000064333868214907482200000015175321396751781807_" fill="none" stroke="#95B4A0" stroke-linecap="round" stroke-linejoin="round" stroke-miterlimit="10" d="
				M49-4.7c-3.7-3.1-8.3-4.8-13.2-4.8c-0.3,0-0.7,0-1,0C36.2-16,42-21,49-21s12.8,5,14.2,11.5c-0.3,0-0.7,0-1,0
				C57.3-9.5,52.7-7.8,49-4.7z"/>
			
				<path id="XMLID_00000085233437637983687940000003163116559538757028_" fill="none" stroke="#95B4A0" stroke-linecap="round" stroke-linejoin="round" stroke-miterlimit="10" d="
				M49-8.4c-3-2-6.4-3.3-9.9-3.8c2-3.5,5.8-5.7,9.9-5.7c4.2,0,7.9,2.3,9.9,5.7C55.4-11.8,52-10.5,49-8.4z"/>
			
				<path id="XMLID_00000055689440733414258640000017409288920820982953_" fill="none" stroke="#95B4A0" stroke-linecap="round" stroke-linejoin="round" stroke-miterlimit="10" d="
				M49-12c-1.3-0.8-2.7-1.4-4.1-1.9c1.2-0.7,2.7-1.1,4.1-1.1c1.5,0,2.9,0.4,4.1,1.1C51.7-13.4,50.3-12.7,49-12z"/>
		</g>
		<g>
			
				<path id="XMLID_00000074412118066159619530000008509376160479348896_" fill="none" stroke="#95B4A0" stroke-linecap="round" stroke-linejoin="round" stroke-miterlimit="10" d="
				M35.5-18.7c0,0.2,0,0.4,0,0.5c-1.4-0.4-2.8-0.5-4.3-0.5c-5.2,0-10,2.3-13.2,6c-3.2-3.7-7.9-6-13.2-6c-1.5,0-2.9,0.2-4.3,0.5
				c0-0.2,0-0.4,0-0.5c0-9.7,7.8-17.5,17.5-17.5C27.7-36.2,35.5-28.4,35.5-18.7z"/>
			
				<path id="XMLID_00000052789581956192235080000015376874504539902617_" fill="none" stroke="#95B4A0" stroke-linecap="round" stroke-linejoin="round" stroke-miterlimit="10" d="
				M18-16.9c-3.7-3.1-8.3-4.8-13.2-4.8c-0.3,0-0.7,0-1,0C5.2-28.3,11-33.2,18-33.2s12.8,5,14.2,11.5c-0.3,0-0.7,0-1,0
				C26.3-21.7,21.7-20,18-16.9z"/>
			
				<path id="XMLID_00000173152040269709241750000012323780240013174930_" fill="none" stroke="#95B4A0" stroke-linecap="round" stroke-linejoin="round" stroke-miterlimit="10" d="
				M18-20.7c-3-2-6.4-3.3-9.9-3.8c2-3.5,5.8-5.7,9.9-5.7c4.2,0,7.9,2.3,9.9,5.7C24.4-24,21-22.7,18-20.7z"/>
			
				<path id="XMLID_00000057139028966169380350000015583132858766621369_" fill="none" stroke="#95B4A0" stroke-linecap="round" stroke-linejoin="round" stroke-miterlimit="10" d="
				M18-24.2c-1.3-0.8-2.7-1.4-4.1-1.9c1.2-0.7,2.7-1.1,4.1-1.1c1.5,0,2.9,0.4,4.1,1.1C20.7-25.6,19.3-25,18-24.2z"/>
		</g>
		<g>
			
				<path id="XMLID_00000017488556734780721100000001316802967029769088_" fill="none" stroke="#95B4A0" stroke-linecap="round" stroke-linejoin="round" stroke-miterlimit="10" d="
				M97.5-43.2c0,0.2,0,0.4,0,0.5c-1.4-0.3-2.8-0.5-4.3-0.5c-5.2,0-10,2.3-13.2,6c-3.2-3.7-7.9-6-13.2-6c-1.5,0-2.9,0.2-4.3,0.5
				c0-0.2,0-0.4,0-0.5c0-9.7,7.8-17.5,17.5-17.5C89.7-60.7,97.5-52.9,97.5-43.2z"/>
			
				<path id="XMLID_00000141453175605328561430000016603803826865048456_" fill="none" stroke="#95B4A0" stroke-linecap="round" stroke-linejoin="round" stroke-miterlimit="10" d="
				M80-41.4c-3.7-3.1-8.3-4.8-13.2-4.8c-0.3,0-0.7,0-1,0C67.2-52.8,73-57.7,80-57.7s12.8,5,14.2,11.5c-0.3,0-0.7,0-1,0
				C88.3-46.2,83.7-44.5,80-41.4z"/>
			
				<path id="XMLID_00000117669881423140387990000017958783246221170857_" fill="none" stroke="#95B4A0" stroke-linecap="round" stroke-linejoin="round" stroke-miterlimit="10" d="
				M80-45.2c-3-2-6.4-3.3-9.9-3.8c2-3.5,5.8-5.7,9.9-5.7c4.2,0,7.9,2.3,9.9,5.7C86.4-48.5,83-47.2,80-45.2z"/>
			
				<path id="XMLID_00000065070979739329916330000013462617917960597915_" fill="none" stroke="#95B4A0" stroke-linecap="round" stroke-linejoin="round" stroke-miterlimit="10" d="
				M80-48.7c-1.3-0.8-2.7-1.4-4.1-1.9c1.2-0.7,2.7-1.1,4.1-1.1c1.5,0,2.9,0.4,4.1,1.1C82.7-50.1,81.3-49.5,80-48.7z"/>
		</g>
		<g>
			
				<path id="XMLID_00000072240254155472511200000012288432570038911105_" fill="none" stroke="#95B4A0" stroke-linecap="round" stroke-linejoin="round" stroke-miterlimit="10" d="
				M66.5-31c0,0.2,0,0.4,0,0.5c-1.4-0.4-2.8-0.5-4.3-0.5c-5.2,0-10,2.3-13.2,6c-3.2-3.7-7.9-6-13.2-6c-1.5,0-2.9,0.2-4.3,0.5
				c0-0.2,0-0.4,0-0.5c0-9.7,7.8-17.5,17.5-17.5C58.7-48.5,66.5-40.6,66.5-31z"/>
			
				<path id="XMLID_00000161601346760888522930000017828017927166130089_" fill="none" stroke="#95B4A0" stroke-linecap="round" stroke-linejoin="round" stroke-miterlimit="10" d="
				M49-29.2c-3.7-3.1-8.3-4.8-13.2-4.8c-0.3,0-0.7,0-1,0C36.2-40.5,42-45.5,49-45.5s12.8,5,14.2,11.5c-0.3,0-0.7,0-1,0
				C57.3-34,52.7-32.3,49-29.2z"/>
			
				<path id="XMLID_00000161631423290453383530000016264169072186124170_" fill="none" stroke="#95B4A0" stroke-linecap="round" stroke-linejoin="round" stroke-miterlimit="10" d="
				M49-32.9c-3-2-6.4-3.3-9.9-3.8c2-3.5,5.8-5.7,9.9-5.7c4.2,0,7.9,2.3,9.9,5.7C55.4-36.3,52-35,49-32.9z"/>
			
				<path id="XMLID_00000017486879861375053060000017915897671351049605_" fill="none" stroke="#95B4A0" stroke-linecap="round" stroke-linejoin="round" stroke-miterlimit="10" d="
				M49-36.5c-1.3-0.8-2.7-1.4-4.1-1.9c1.2-0.7,2.7-1.1,4.1-1.1c1.5,0,2.9,0.4,4.1,1.1C51.7-37.9,50.3-37.2,49-36.5z"/>
		</g>
		<g>
			
				<path id="XMLID_00000127741039292742566060000006054021144884499122_" fill="none" stroke="#95B4A0" stroke-linecap="round" stroke-linejoin="round" stroke-miterlimit="10" d="
				M35.5-43.2c0,0.2,0,0.4,0,0.5c-1.4-0.3-2.8-0.5-4.3-0.5c-5.2,0-10,2.3-13.2,6c-3.2-3.7-7.9-6-13.2-6c-1.5,0-2.9,0.2-4.3,0.5
				c0-0.2,0-0.4,0-0.5c0-9.7,7.8-17.5,17.5-17.5C27.7-60.7,35.5-52.9,35.5-43.2z"/>
			
				<path id="XMLID_00000073702364675870210430000008753537865242146732_" fill="none" stroke="#95B4A0" stroke-linecap="round" stroke-linejoin="round" stroke-miterlimit="10" d="
				M18-41.4c-3.7-3.1-8.3-4.8-13.2-4.8c-0.3,0-0.7,0-1,0C5.2-52.8,11-57.7,18-57.7s12.8,5,14.2,11.5c-0.3,0-0.7,0-1,0
				C26.3-46.2,21.7-44.5,18-41.4z"/>
			
				<path id="XMLID_00000155112075720544483300000005533466182478620090_" fill="none" stroke="#95B4A0" stroke-linecap="round" stroke-linejoin="round" stroke-miterlimit="10" d="
				M18-45.2c-3-2-6.4-3.3-9.9-3.8c2-3.5,5.8-5.7,9.9-5.7c4.2,0,7.9,2.3,9.9,5.7C24.4-48.5,21-47.2,18-45.2z"/>
			
				<path id="XMLID_00000180364493160812598930000016617885841055406243_" fill="none" stroke="#95B4A0" stroke-linecap="round" stroke-linejoin="round" stroke-miterlimit="10" d="
				M18-48.7c-1.3-0.8-2.7-1.4-4.1-1.9c1.2-0.7,2.7-1.1,4.1-1.1c1.5,0,2.9,0.4,4.1,1.1C20.7-50.1,19.3-49.5,18-48.7z"/>
		</g>
		<g>
			
				<path id="XMLID_00000132768097472200006320000000263546527236911518_" fill="none" stroke="#95B4A0" stroke-linecap="round" stroke-linejoin="round" stroke-miterlimit="10" d="
				M66.5-55.5c0,0.2,0,0.4,0,0.5c-1.4-0.3-2.8-0.5-4.3-0.5c-5.2,0-10,2.3-13.2,6c-3.2-3.7-7.9-6-13.2-6c-1.5,0-2.9,0.2-4.3,0.5
				c0-0.2,0-0.4,0-0.5C31.5-65.1,39.3-73,49-73C58.7-73,66.5-65.1,66.5-55.5z"/>
			
				<path id="XMLID_00000060737772416828055920000010855668526651020446_" fill="none" stroke="#95B4A0" stroke-linecap="round" stroke-linejoin="round" stroke-miterlimit="10" d="
				M49-53.7c-3.7-3.1-8.3-4.8-13.2-4.8c-0.3,0-0.7,0-1,0C36.2-65,42-70,49-70s12.8,5,14.2,11.5c-0.3,0-0.7,0-1,0
				C57.3-58.5,52.7-56.8,49-53.7z"/>
			
				<path id="XMLID_00000151505828531271200730000017337536127654068668_" fill="none" stroke="#95B4A0" stroke-linecap="round" stroke-linejoin="round" stroke-miterlimit="10" d="
				M49-57.4c-3-2-6.4-3.3-9.9-3.8c2-3.5,5.8-5.7,9.9-5.7c4.2,0,7.9,2.3,9.9,5.7C55.4-60.8,52-59.4,49-57.4z"/>
			
				<path id="XMLID_00000106837363569114768540000010271610015468195716_" fill="none" stroke="#95B4A0" stroke-linecap="round" stroke-linejoin="round" stroke-miterlimit="10" d="
				M49-61c-1.3-0.8-2.7-1.4-4.1-1.9c1.2-0.7,2.7-1.1,4.1-1.1c1.5,0,2.9,0.4,4.1,1.1C51.7-62.4,50.3-61.7,49-61z"/>
		</g>
	</g>
</pattern>
<g>
	<g>
		<pattern  id="SVGID_1_" xlink:href="#New_Pattern_Swatch_5" patternTransform="matrix(1 0 0 1 2 41.04)">
		</pattern>
		<path fill="url(#SVGID_1_)" d="M108.4,45.6c0-8.6-6.7-12.8-20.2-12.8h-5.4v-3.1h56.4v3.1c-11.8,0-19.6,4-23.5,11.9L88,107.8v53.1
			h12.4v3.1H35.9v-3.1h12.4v-50L11.8,32.8H0.5v-3.1h70.2v3.1H53.8l32.3,69.4l18.5-42.4C107.1,54.2,108.4,49.5,108.4,45.6z"/>
	</g>
</g>
</svg>
