<?xml version="1.0" encoding="utf-8"?>
<!-- Generator: Adobe Illustrator 26.5.0, SVG Export Plug-In . SVG Version: 6.00 Build 0)  -->
<svg version="1.1" id="Layer_1" xmlns="http://www.w3.org/2000/svg" xmlns:xlink="http://www.w3.org/1999/xlink" x="0px" y="0px"
	 viewBox="0 0 133.6 51" enable-background="new 0 0 133.6 51" xml:space="preserve">
<g>
	<path fill="#A9CDA3" d="M38.4,15.3c0.3-0.8,0.4-1.7,0.4-2.5c0-0.8-0.2-1.5-0.5-2c-0.4-0.5-0.9-0.9-1.6-1.1
		c-1.2-0.3-2.6-0.5-4.5-0.5h-0.8V8.4h14.2v0.8c-1.7,0-3,0.5-3.9,1.4C41,11.5,40.2,13,39.5,15L32,37.6c-0.2,0.7-0.4,1.2-0.6,1.6
		c-0.5,0.9-1.2,1.3-2.3,1.3H29L22.3,19l-6.2,18.7c-0.2,0.7-0.4,1.2-0.6,1.6c-0.4,0.9-1.2,1.3-2.2,1.3h-0.1L3.4,9.2H0V8.4h12.5v0.8
		H8.9l7.2,24.8h0.3l5.4-16.5l-2.5-8.3h-3.4V8.4h12.5v0.8h-3.6L32,33.9h0.3L38.4,15.3z"/>
	<path fill="#A9CDA3" d="M62.3,37.2c-1.9,2.2-4.4,3.4-7.8,3.4c-3.3,0-5.9-1.1-7.8-3.4c-1.9-2.2-2.8-5.1-2.8-8.6
		c0-3.5,0.9-6.4,2.8-8.6c1.9-2.2,4.4-3.4,7.8-3.4c3.3,0,5.9,1.1,7.8,3.4c1.9,2.2,2.8,5.1,2.8,8.6C65,32.1,64.1,35,62.3,37.2z
		 M60.3,31.8c0.1-0.9,0.1-2,0.1-3.2s0-2.3-0.1-3.2c-0.1-0.9-0.2-1.9-0.5-3c-0.2-1.1-0.6-1.9-1-2.6c-0.4-0.7-1-1.3-1.7-1.7
		c-0.8-0.4-1.6-0.7-2.7-0.7c-1,0-1.9,0.2-2.7,0.7c-0.8,0.4-1.3,1-1.7,1.7c-0.4,0.7-0.7,1.6-1,2.6c-0.2,1.1-0.4,2-0.5,3
		s-0.1,2-0.1,3.2s0,2.3,0.1,3.2c0.1,0.9,0.2,1.9,0.5,3c0.2,1.1,0.6,1.9,1,2.6c0.4,0.7,1,1.3,1.7,1.7c0.8,0.4,1.6,0.7,2.7,0.7
		c1,0,1.9-0.2,2.7-0.7c0.8-0.4,1.3-1,1.7-1.7c0.4-0.7,0.7-1.6,1-2.6C60.1,33.7,60.2,32.7,60.3,31.8z"/>
	<path fill="#A9CDA3" d="M86.6,20.2c0-0.8-0.3-1.5-0.9-2.1c-0.6-0.5-1.4-0.8-2.4-0.8c-1,0-2,0.4-2.9,1.2c-0.9,0.8-1.6,1.9-2,3.2
		C77.5,24.3,77,27,77,30v8.9h3.5v0.7H69.6v-0.7h3.2V18.2h-3.4v-0.7h1c2.6,0,4.8-0.2,6.8-0.6v5h0.3c1.3-3.6,3.4-5.3,6-5.3
		c1.2,0,2.2,0.4,2.9,1.1s1.1,1.7,1.1,2.8c0,1.1-0.3,2-0.9,2.6c-0.6,0.7-1.4,1-2.2,1c-0.8,0-1.5-0.2-2.1-0.7
		c-0.5-0.5-0.8-1.1-0.8-1.8s0.2-1.3,0.6-1.8c0.4-0.5,1-0.7,1.7-0.7c1.1,0,1.7,0.4,1.9,1.2c0.1,0.3,0.2,0.4,0.5,0.4
		S86.6,20.5,86.6,20.2z"/>
	<path fill="#A9CDA3" d="M99.5,27l-3.1,0.5v11.3h3.2v0.7H89v-0.7h3.2V7.2h-3.4V6.5h1c2.5,0,4.7-0.2,6.7-0.6v20.9
		c6.3-0.8,9.5-2.9,9.5-6.1c0-1-0.2-1.7-0.7-2.3c-0.5-0.6-1.1-0.9-1.8-0.9c-0.3,0-0.5,0.1-0.5,0.4s0.1,0.4,0.4,0.5
		c0.8,0.2,1.2,0.8,1.2,1.9c0,0.7-0.2,1.2-0.7,1.7s-1.1,0.6-1.8,0.6c-0.7,0-1.3-0.3-1.8-0.8c-0.5-0.5-0.7-1.2-0.7-2s0.3-1.6,1-2.2
		c0.7-0.6,1.5-0.9,2.6-0.9s2,0.4,2.7,1.1c0.7,0.7,1.1,1.7,1.1,3c0,2.7-1.7,4.6-5,5.8v0.1c2.5,0.1,4.1,0.8,4.9,2
		c0.8,1.2,1.2,3.1,1.2,5.8V36c0,1.2,0.1,2.1,0.3,2.6c0.2,0.5,0.6,0.8,1.2,0.8c0.2,0,0.5,0,0.9-0.1l0.1,0.6c-0.8,0.2-1.7,0.3-2.6,0.3
		c-2.8,0-4.1-1.6-4.1-4.8v-2.6c0-3.9-1.2-5.9-3.7-5.9H99.5z"/>
	<path fill="#A9CDA3" d="M122.8,16.6c4.9,0,7.3,1.6,7.3,4.9c0,1-0.3,1.8-0.9,2.4s-1.4,1-2.2,1c-0.8,0-1.5-0.2-2.1-0.7
		c-0.5-0.5-0.8-1.1-0.8-1.8c0-0.7,0.2-1.3,0.6-1.8s1-0.7,1.7-0.7c1.1,0,1.7,0.4,1.9,1.2c0,0.3,0.2,0.4,0.5,0.4
		c0.3,0,0.4-0.1,0.4-0.4c0-0.9-0.4-1.7-1.3-2.4c-0.9-0.7-2.2-1.1-4-1.1c-1.8,0-3.3,0.3-4.5,1c-1.2,0.7-1.8,1.6-1.8,2.8
		c0,1.2,0.5,2.2,1.4,2.9c0.9,0.7,2,1.3,3.4,1.8c1.3,0.5,2.6,1,4,1.5c1.3,0.5,2.5,1.3,3.4,2.3c0.9,1,1.4,2.2,1.4,3.6
		c0,2.4-0.9,4.2-2.6,5.4c-1.7,1.2-3.8,1.8-6.4,1.8c-2.5,0-4.6-0.4-6.1-1.3s-2.3-2.3-2.3-4.1c0-1,0.3-1.8,0.9-2.4
		c0.6-0.7,1.4-1,2.2-1s1.5,0.2,2.1,0.7c0.5,0.5,0.8,1.1,0.8,1.8c0,0.7-0.2,1.3-0.6,1.8c-0.4,0.5-1,0.7-1.7,0.7
		c-1.1,0-1.7-0.4-1.9-1.2c0-0.3-0.2-0.4-0.5-0.4s-0.4,0.1-0.4,0.4c0,1,0.5,1.9,1.6,2.7c1.1,0.8,2.7,1.3,4.8,1.3c4.6,0,7-1.5,7-4.5
		c0-1.9-1.6-3.4-4.8-4.5c-1.3-0.5-2.7-1-4-1.5c-1.3-0.5-2.4-1.3-3.4-2.3c-0.9-1-1.4-2.2-1.4-3.6c0-2,0.8-3.7,2.4-4.8
		C118.6,17.2,120.5,16.6,122.8,16.6z"/>
</g>
</svg>
